<?xml version="1.0" encoding="UTF-8"?>
<!-- Generated by Pixelmator Pro 3.5.6 -->
<svg width="512" height="512" viewBox="0 0 512 512" xmlns="http://www.w3.org/2000/svg">
    <path id="Shape" fill="#ffffff" fill-rule="evenodd" stroke="none" d="M 0 512 L 0 0 L 256 0 L 512 0 L 512 256 L 512 512 L 256 512 L 0 512 Z"/>
    <path id="Ellipse" fill="#dfdbff" fill-rule="evenodd" stroke="none" d="M 399 256.5 C 399 177.247131 334.752869 113 255.5 113 C 176.247131 113 112 177.247131 112 256.5 C 112 335.752869 176.247131 400 255.5 400 C 334.752869 400 399 335.752869 399 256.5 Z"/>
    <linearGradient id="linearGradient1" x1="180" y1="256" x2="348" y2="256" gradientUnits="userSpaceOnUse">
        <stop offset="0" stop-color="#dd52e5" stop-opacity="1"/>
        <stop offset="1" stop-color="#81b5f9" stop-opacity="1"/>
    </linearGradient>
    <path id="Ellipse-copy-2" fill="url(#linearGradient1)" fill-rule="evenodd" stroke="none" d="M 180 256 C 180 209.608093 217.608078 172 264 172 C 310.391907 172 348 209.608093 348 256 C 348 302.391907 310.391907 340 264 340 C 217.608078 340 180 302.391907 180 256 Z"/>
    <linearGradient id="linearGradient2" x1="163" y1="256" x2="331" y2="256" gradientUnits="userSpaceOnUse">
        <stop offset="0" stop-color="#dd52e5" stop-opacity="1"/>
        <stop offset="1" stop-color="#81b5f9" stop-opacity="1"/>
    </linearGradient>
    <path id="Ellipse-copy-4" fill="url(#linearGradient2)" fill-rule="evenodd" stroke="none" d="M 163 256 C 163 209.608093 200.608078 172 247 172 C 293.391907 172 331 209.608093 331 256 C 331 302.391907 293.391907 340 247 340 C 200.608078 340 163 302.391907 163 256 Z"/>
    <linearGradient id="linearGradient3" x1="180" y1="256" x2="331" y2="256" gradientUnits="userSpaceOnUse">
        <stop offset="0" stop-color="#dd52e5" stop-opacity="1"/>
        <stop offset="1" stop-color="#81b5f9" stop-opacity="1"/>
    </linearGradient>
    <path id="Ellipse-copy-3" fill="url(#linearGradient3)" fill-rule="evenodd" stroke="none" d="M 331 256 C 331 209.608093 297.19751 172 255.5 172 C 213.802505 172 180 209.608093 180 256 C 180 302.391907 213.802505 340 255.5 340 C 297.19751 340 331 302.391907 331 256 Z"/>
</svg>
