<svg width="500" height="348" viewBox="0 0 500 348" fill="none" xmlns="http://www.w3.org/2000/svg">
    <g clip-path="url(#clip0_1_15873)">
        <path
            d="M99.6217 347.938C154.641 347.938 199.243 344.551 199.243 340.372C199.243 336.193 154.641 332.806 99.6217 332.806C44.6021 332.806 0 336.193 0 340.372C0 344.551 44.6021 347.938 99.6217 347.938Z"
            fill="#E6E6E6" />
        <path
            d="M76.1489 77.2495C93.4861 69.8755 115.08 74.5476 136.168 77.7903C136.365 73.8634 138.743 69.0842 136.252 66.3446C133.224 63.0162 133.503 59.5191 135.325 56.0017C139.983 47.0074 133.309 37.437 126.57 29.4792C125.052 27.6897 123.132 26.2835 120.968 25.3751C118.804 24.4667 116.455 24.0816 114.114 24.2511L101.632 25.1427C98.5942 25.3597 95.6954 26.4991 93.3231 28.4086C90.9509 30.3181 89.2184 32.9065 88.3575 35.8276C85.3769 39.8813 83.7816 43.9238 84.786 47.9452C80.3215 50.9961 79.5714 54.679 81.5776 58.8307C83.2787 61.4448 83.2606 63.9893 81.5002 66.4635C79.1882 69.6178 77.4175 73.135 76.2605 76.8708L76.1489 77.2495Z"
            fill="#2F2E41" />
        <path
            d="M488.152 300.795H134.799C131.657 300.795 128.643 299.547 126.421 297.325C124.199 295.103 122.951 292.089 122.951 288.947C251.041 274.061 376.724 274.061 500 288.947C500 292.089 498.752 295.103 496.53 297.325C494.308 299.547 491.294 300.795 488.152 300.795Z"
            fill="#2F2E41" />
        <path
            d="M500 289.644L122.951 288.947L166.65 215.419L166.859 215.071V53.0231C166.859 51.0562 167.246 49.1085 167.998 47.2913C168.751 45.4741 169.854 43.8229 171.245 42.4321C172.636 41.0413 174.287 39.938 176.104 39.1854C177.922 38.4328 179.869 38.0455 181.836 38.0457H439.024C440.991 38.0455 442.939 38.4328 444.756 39.1854C446.573 39.938 448.224 41.0413 449.615 42.4321C451.006 43.8229 452.109 45.4741 452.862 47.2913C453.614 49.1085 454.002 51.0562 454.002 53.0231V216.186L500 289.644Z"
            fill="#3F3D56" />
        <path
            d="M181.495 48.5C180.201 48.5015 178.961 49.0159 178.046 49.9305C177.132 50.8451 176.617 52.0852 176.616 53.3786V201.132C176.617 202.425 177.132 203.665 178.047 204.58C178.961 205.494 180.201 206.009 181.495 206.01H441.456C442.75 206.009 443.99 205.494 444.904 204.58C445.819 203.665 446.334 202.425 446.335 201.132V53.3786C446.334 52.0852 445.819 50.8452 444.905 49.9306C443.99 49.016 442.75 48.5015 441.456 48.5H181.495Z"
            fill="white" />
        <path
            d="M182.584 225.525C182.184 225.526 181.793 225.641 181.456 225.856C181.12 226.072 180.852 226.379 180.684 226.742L167.219 256.014C167.073 256.332 167.009 256.683 167.033 257.032C167.057 257.382 167.169 257.72 167.358 258.016C167.547 258.311 167.808 258.554 168.115 258.722C168.423 258.89 168.768 258.978 169.119 258.978H452.279C452.635 258.978 452.986 258.887 453.297 258.714C453.608 258.54 453.87 258.29 454.057 257.987C454.245 257.684 454.351 257.337 454.367 256.981C454.383 256.625 454.308 256.271 454.148 255.952L439.512 226.681C439.34 226.333 439.073 226.04 438.743 225.836C438.412 225.631 438.031 225.524 437.643 225.525H182.584Z"
            fill="#2F2E41" />
        <path
            d="M310.43 46.0606C312.162 46.0606 313.566 44.6565 313.566 42.9244C313.566 41.1922 312.162 39.7881 310.43 39.7881C308.698 39.7881 307.294 41.1922 307.294 42.9244C307.294 44.6565 308.698 46.0606 310.43 46.0606Z"
            fill="white" />
        <path
            d="M282.598 264.554C282.138 264.555 281.691 264.706 281.327 264.986C280.962 265.265 280.699 265.657 280.579 266.101L277.201 278.646C277.118 278.956 277.107 279.281 277.169 279.596C277.231 279.911 277.365 280.207 277.561 280.462C277.756 280.716 278.007 280.923 278.295 281.065C278.583 281.207 278.899 281.281 279.22 281.281H343.453C343.787 281.281 344.115 281.201 344.411 281.048C344.708 280.896 344.963 280.674 345.156 280.403C345.35 280.131 345.475 279.817 345.523 279.487C345.57 279.157 345.538 278.821 345.429 278.506L341.086 265.961C340.944 265.55 340.677 265.194 340.323 264.942C339.969 264.69 339.545 264.554 339.11 264.554H282.598Z"
            fill="#2F2E41" />
        <path d="M454.001 212.631V215.419H166.649L166.866 215.071V212.631H454.001Z" fill="#2F2E41" />
        <path
            d="M445.987 97.6348C472.931 97.6348 494.773 75.7924 494.773 48.8484C494.773 21.9044 472.931 0.0620117 445.987 0.0620117C419.043 0.0620117 397.2 21.9044 397.2 48.8484C397.2 75.7924 419.043 97.6348 445.987 97.6348Z"
            fill="#7F56D9" />
        <path
            d="M466.198 70.1053H425.775C425.036 70.1045 424.327 69.8106 423.805 69.2879C423.282 68.7653 422.988 68.0566 422.987 67.3175V42.9243C422.988 42.1851 423.282 41.4765 423.805 40.9539C424.327 40.4312 425.036 40.1373 425.775 40.1365H466.198C466.937 40.1373 467.646 40.4312 468.169 40.9539C468.691 41.4765 468.985 42.1851 468.986 42.9243V67.3175C468.985 68.0566 468.691 68.7653 468.169 69.2879C467.646 69.8106 466.937 70.1045 466.198 70.1053ZM425.775 42.9243V67.3175H466.2L466.198 42.9243L425.775 42.9243Z"
            fill="white" />
        <path
            d="M458.532 42.9244H433.441V31.7732C433.441 23.6964 438.718 17.8342 445.986 17.8342C453.255 17.8342 458.532 23.6964 458.532 31.7732L458.532 42.9244ZM436.229 40.1366H455.744V31.7732C455.744 25.2076 451.732 20.622 445.987 20.622C440.241 20.622 436.229 25.2077 436.229 31.7732L436.229 40.1366Z"
            fill="white" />
        <path
            d="M445.987 57.2118C447.526 57.2118 448.774 55.9637 448.774 54.424C448.774 52.8844 447.526 51.6362 445.987 51.6362C444.447 51.6362 443.199 52.8844 443.199 54.424C443.199 55.9637 444.447 57.2118 445.987 57.2118Z"
            fill="white" />
        <path
            d="M411.929 155.894H211.022C210.035 155.893 209.089 155.5 208.392 154.803C207.695 154.105 207.302 153.16 207.301 152.173V102.337C207.302 101.35 207.695 100.405 208.392 99.7072C209.089 99.0097 210.035 98.6174 211.022 98.6162H411.929C412.916 98.6174 413.861 99.0097 414.559 99.7072C415.256 100.405 415.649 101.35 415.65 102.337V152.173C415.649 153.16 415.256 154.105 414.559 154.803C413.861 155.5 412.916 155.893 411.929 155.894ZM211.022 100.104C210.43 100.105 209.862 100.34 209.444 100.759C209.025 101.177 208.79 101.745 208.789 102.337V152.173C208.79 152.765 209.025 153.333 209.444 153.751C209.862 154.17 210.43 154.405 211.022 154.406H411.929C412.521 154.405 413.089 154.17 413.507 153.751C413.926 153.333 414.161 152.765 414.162 152.173V102.337C414.161 101.745 413.926 101.177 413.507 100.759C413.089 100.34 412.521 100.105 411.929 100.104L211.022 100.104Z"
            fill="#E6E6E6" />
        <path
            d="M242.238 140.498C250.609 140.498 257.394 133.713 257.394 125.343C257.394 116.973 250.609 110.188 242.238 110.188C233.868 110.188 227.083 116.973 227.083 125.343C227.083 133.713 233.868 140.498 242.238 140.498Z"
            fill="#E6E6E6" />
        <path
            d="M277.24 115.239C276.908 115.239 276.579 115.304 276.272 115.43C275.966 115.557 275.687 115.743 275.452 115.978C275.217 116.212 275.03 116.491 274.903 116.798C274.776 117.104 274.71 117.433 274.71 117.765C274.71 118.097 274.776 118.426 274.903 118.733C275.03 119.039 275.217 119.318 275.452 119.553C275.687 119.787 275.966 119.973 276.272 120.1C276.579 120.227 276.908 120.292 277.24 120.291H396.318C396.988 120.291 397.631 120.025 398.104 119.551C398.578 119.078 398.844 118.435 398.844 117.765C398.844 117.095 398.578 116.453 398.104 115.979C397.631 115.505 396.988 115.239 396.318 115.239H277.24Z"
            fill="#E6E6E6" />
        <path
            d="M277.24 130.395C276.57 130.395 275.928 130.661 275.454 131.135C274.98 131.608 274.714 132.251 274.714 132.921C274.714 133.591 274.98 134.233 275.454 134.707C275.928 135.18 276.57 135.447 277.24 135.447H328.48C329.15 135.447 329.792 135.18 330.266 134.707C330.74 134.233 331.006 133.591 331.006 132.921C331.006 132.251 330.74 131.608 330.266 131.135C329.792 130.661 329.15 130.395 328.48 130.395H277.24Z"
            fill="#E6E6E6" />
        <path
            d="M166.155 131.417L129.016 151.162L128.546 134.707C140.668 132.684 152.201 129.16 162.864 123.425L166.749 113.828C167.172 112.782 167.86 111.865 168.745 111.165C169.63 110.466 170.682 110.008 171.797 109.838C172.912 109.668 174.052 109.79 175.106 110.194C176.159 110.597 177.09 111.268 177.806 112.14C178.853 113.415 179.377 115.041 179.271 116.688C179.164 118.335 178.436 119.88 177.233 121.01L166.155 131.417Z"
            fill="#FFB8B8" />
        <path
            d="M75.4086 245.417C75.1377 244.423 75.0802 243.383 75.2398 242.366C75.3995 241.348 75.7728 240.376 76.335 239.513L84.4935 226.993C86.4232 224.031 89.3841 221.892 92.8018 220.991C96.2195 220.089 99.8503 220.489 102.99 222.113C99.561 227.949 100.039 233.069 104.174 237.519C97.7549 240.652 91.8222 244.697 86.5597 249.527C85.599 250.182 84.4957 250.598 83.3417 250.74C82.1877 250.882 81.0164 250.747 79.9254 250.344C78.8344 249.942 77.8553 249.285 77.0697 248.428C76.284 247.571 75.7145 246.539 75.4086 245.417Z"
            fill="#2F2E41" />
        <path
            d="M167.847 229.046C166.612 231.104 164.869 232.809 162.786 233.999C160.702 235.19 158.348 235.824 155.948 235.842L101.749 236.253L99.3982 222.619L123.374 215.568L103.159 200.054L125.255 174.197L165.387 211.602C167.733 213.788 169.257 216.714 169.704 219.889C170.152 223.064 169.496 226.296 167.847 229.046Z"
            fill="#2F2E41" />
        <path
            d="M93.2868 322.285H80.5936C69.1969 244.165 57.5962 165.827 91.8764 136.588L132.307 143.17L127.135 177.488L104.57 203.345L93.2868 322.285Z"
            fill="#2F2E41" />
        <path
            d="M104.445 339.981C103.451 340.252 102.411 340.31 101.394 340.15C100.376 339.99 99.4039 339.617 98.5409 339.055L84.7588 337.202C81.7972 335.273 79.658 332.312 78.7561 328.895C77.8542 325.477 78.254 321.846 79.8779 318.707C85.7145 322.135 90.8345 321.657 95.2837 317.521C98.4274 323.869 103.607 323.482 108.554 328.83C109.209 329.79 109.625 330.894 109.767 332.048C109.909 333.202 109.774 334.373 109.372 335.464C108.97 336.555 108.313 337.534 107.456 338.32C106.599 339.106 105.566 339.675 104.445 339.981Z"
            fill="#2F2E41" />
        <path
            d="M123.374 84.4045L99.8684 78.7631C103.772 70.772 104.094 61.8802 102.219 52.4364L118.203 51.9663C118.704 63.7099 120.219 74.6815 123.374 84.4045Z"
            fill="#FFB8B8" />
        <path
            d="M129.834 157.324C112.723 168.985 100.633 157.723 91.4061 140.349C92.6882 129.717 90.6123 116.994 86.7676 103.169C85.0577 97.0718 85.6961 90.5547 88.5567 84.9048C91.4172 79.2549 96.2921 74.8828 102.219 72.6516L122.434 81.1138C139.599 95.1052 142.977 110.261 136.538 126.245L129.834 157.324Z"
            fill="#7F56D9" />
        <path
            d="M80.5935 96.1577L61.7887 106.03L95.1671 125.775L99.8115 137.231C100.122 137.996 100.273 138.816 100.255 139.641C100.238 140.466 100.053 141.278 99.7117 142.029C99.3701 142.78 98.8792 143.454 98.2688 144.009C97.6584 144.564 96.9413 144.989 96.1613 145.258C95.2746 145.564 94.3292 145.66 93.3991 145.54C92.469 145.419 91.5794 145.085 90.8001 144.563C90.0207 144.041 89.3728 143.346 88.9069 142.532C88.4411 141.718 88.17 140.807 88.1149 139.871L87.6453 131.887L45.2217 117.887C43.7923 117.415 42.489 116.624 41.4106 115.574C40.3321 114.525 39.5066 113.243 38.9968 111.827C38.2536 109.762 38.2158 107.51 38.8892 105.422C39.5627 103.334 40.9093 101.528 42.7185 100.287L76.8325 76.8828L80.5935 96.1577Z"
            fill="#FFB8B8" />
        <path
            d="M99.3981 98.038C91.5554 94.601 84.4237 98.3346 75.4221 101.329L74.0117 76.4125C82.95 71.6485 91.4721 70.3641 99.3981 74.0619L99.3981 98.038Z"
            fill="#7F56D9" />
        <path
            d="M108.78 64.3082C117.068 64.3082 123.787 57.5891 123.787 49.3006C123.787 41.0121 117.068 34.293 108.78 34.293C100.491 34.293 93.7722 41.0121 93.7722 49.3006C93.7722 57.5891 100.491 64.3082 108.78 64.3082Z"
            fill="#FFB8B8" />
        <path d="M126.734 47.4071C111.875 48.8624 100.553 46.4323 93.3164 39.513V33.9407H125.473L126.734 47.4071Z"
            fill="#2F2E41" />
    </g>
    <defs>
        <clipPath id="clip0_1_15873">
            <rect width="500" height="347.876" fill="white" transform="translate(0 0.0620117)" />
        </clipPath>
    </defs>
</svg>