<svg width="500" height="584" viewBox="0 0 500 584" fill="none" xmlns="http://www.w3.org/2000/svg">
    <g clip-path="url(#clip0_1_15825)">
        <path
            d="M483.84 215.353H15.7321C11.5612 215.348 7.56245 213.689 4.61315 210.74C1.66384 207.791 0.0048161 203.792 0 199.621V16.1367C0.0048161 11.9657 1.66384 7.96699 4.61315 5.01769C7.56245 2.06838 11.5612 0.409357 15.7321 0.404541H483.84C488.011 0.409357 492.009 2.06838 494.959 5.01769C497.908 7.96699 499.567 11.9657 499.572 16.1367V199.621C499.567 203.792 497.908 207.791 494.959 210.74C492.009 213.689 488.011 215.348 483.84 215.353Z"
            fill="#F2F2F2" />
        <path
            d="M374.666 205.319H90.0369C68.8268 205.296 48.4921 196.859 33.4943 181.861C18.4964 166.863 10.0601 146.529 10.0361 125.319V90.4477C10.06 69.2374 18.4963 48.9027 33.4942 33.9048C48.4921 18.9068 68.8267 10.4703 90.0369 10.4463H409.537C430.748 10.4703 451.082 18.9068 466.08 33.9048C481.078 48.9027 489.514 69.2374 489.538 90.4477C489.504 120.903 477.39 150.101 455.855 171.636C434.32 193.171 405.122 205.285 374.666 205.319Z"
            fill="white" />
        <path
            d="M301.244 62.9718H113.1C112.024 62.9718 110.992 62.5444 110.231 61.7835C109.47 61.0226 109.043 59.9906 109.043 58.9145C109.043 57.8384 109.47 56.8064 110.231 56.0455C110.992 55.2847 112.024 54.8572 113.1 54.8572H301.244C302.32 54.8572 303.352 55.2847 304.113 56.0455C304.873 56.8064 305.301 57.8384 305.301 58.9145C305.301 59.9906 304.873 61.0226 304.113 61.7835C303.352 62.5444 302.32 62.9718 301.244 62.9718Z"
            fill="#E6E6E6" />
        <path
            d="M396.485 106.261H113.1C112.024 106.261 110.992 105.833 110.231 105.073C109.47 104.312 109.043 103.28 109.043 102.204C109.043 101.127 109.47 100.095 110.231 99.3346C110.992 98.5737 112.024 98.1462 113.1 98.1462H396.485C397.561 98.1462 398.593 98.5737 399.354 99.3346C400.115 100.095 400.542 101.127 400.542 102.204C400.542 103.28 400.115 104.312 399.354 105.073C398.593 105.833 397.561 106.261 396.485 106.261Z"
            fill="#E6E6E6" />
        <path
            d="M396.485 149.55H113.1C112.024 149.55 110.992 149.122 110.231 148.361C109.47 147.6 109.043 146.568 109.043 145.492C109.043 144.416 109.47 143.384 110.231 142.623C110.992 141.863 112.024 141.435 113.1 141.435H396.485C397.561 141.435 398.593 141.863 399.354 142.623C400.115 143.384 400.542 144.416 400.542 145.492C400.542 146.568 400.115 147.6 399.354 148.361C398.593 149.122 397.561 149.55 396.485 149.55Z"
            fill="#E6E6E6" />
        <path
            d="M396.485 149.55H113.1C112.024 149.55 110.992 149.122 110.231 148.361C109.47 147.6 109.043 146.568 109.043 145.492C109.043 144.416 109.47 143.384 110.231 142.623C110.992 141.863 112.024 141.435 113.1 141.435H396.485C397.561 141.435 398.593 141.863 399.354 142.623C400.115 143.384 400.542 144.416 400.542 145.492C400.542 146.568 400.115 147.6 399.354 148.361C398.593 149.122 397.561 149.55 396.485 149.55Z"
            fill="#E6E6E6" />
        <path
            d="M281.39 111.229C281.435 112.452 281.747 113.649 282.305 114.737C282.863 115.826 283.653 116.778 284.619 117.528C285.585 118.278 286.703 118.807 287.896 119.078C289.089 119.349 290.326 119.356 291.521 119.096L306.994 144.48L313.58 130.506L297.877 108.544C297.308 106.565 296.034 104.863 294.295 103.761C292.555 102.658 290.472 102.232 288.44 102.564C286.408 102.895 284.568 103.96 283.268 105.557C281.969 107.154 281.3 109.172 281.39 111.229Z"
            fill="#FFB6B6" />
        <path
            d="M397.505 183.977L344.182 155.054L327.363 139.274C327.363 139.274 320.051 137.316 322.742 134.939C325.433 132.561 317.764 130.268 317.764 130.268L308.735 121.797L295.905 130.875L299.618 136.631C299.618 136.631 299.363 146.16 304.583 144.327C309.802 142.494 308.498 150.396 308.498 150.396L339.655 198.693L397.505 183.977Z"
            fill="#3F3D56" />
        <path
            d="M240.101 156.727C268.866 156.727 292.185 133.408 292.185 104.643C292.185 75.8778 268.866 52.5591 240.101 52.5591C211.336 52.5591 188.017 75.8778 188.017 104.643C188.017 133.408 211.336 156.727 240.101 156.727Z"
            fill="#7F56D9" />
        <path d="M397.67 563.346H386.84L381.687 521.574H397.67V563.346Z" fill="#FFB6B6" />
        <path
            d="M403.386 582.109H395.62L394.234 574.777L390.683 582.109H370.085C369.098 582.109 368.136 581.794 367.341 581.209C366.545 580.623 365.958 579.799 365.664 578.857C365.37 577.914 365.385 576.902 365.707 575.969C366.029 575.036 366.641 574.23 367.454 573.669L383.903 562.308V554.896L401.205 555.928L403.386 582.109Z"
            fill="#2F2E41" />
        <path d="M311.055 563.346H300.225L295.071 521.574H311.055V563.346Z" fill="#FFB6B6" />
        <path
            d="M316.771 582.109H309.004L307.618 574.777L304.068 582.109H283.47C282.482 582.109 281.521 581.794 280.725 581.209C279.93 580.623 279.343 579.799 279.049 578.857C278.755 577.914 278.77 576.902 279.092 575.969C279.414 575.036 280.026 574.23 280.839 573.669L297.288 562.308V554.896L314.589 555.928L316.771 582.109Z"
            fill="#2F2E41" />
        <path d="M386.179 247.433H331.519V309.661H386.179V247.433Z" fill="#FFB6B6" />
        <path
            d="M332.78 278.126L323.53 289.058L307.552 322.695L267.293 418.485L258.779 438.743L265.655 474.555C265.655 474.555 266.768 499.785 266.768 503.915C266.768 512.324 273.801 516.984 273.801 516.984L278.961 543.859L328.996 541.756C328.996 541.756 327.25 512.132 316.771 504.66C306.291 497.187 301.474 458.243 301.474 458.243L295.779 440.965L351.28 375.174L351.639 398.171L351.812 409.302C351.812 409.302 343.684 481.701 353.159 495.751C362.633 509.801 353.352 508.148 353.352 508.148L353.803 537.131L413.088 537.552L400.009 454.109C400.009 454.109 393.368 448.865 396.921 443.594C400.475 438.323 393.477 431.867 393.477 431.867L396.616 366.725C396.616 366.725 393.141 355.473 397.228 354.011C401.315 352.548 397.765 342.872 397.765 342.872L398.372 330.264L386.179 291.161L332.78 278.126Z"
            fill="#2F2E41" />
        <path
            d="M387.02 247.433L392.906 229.774L397.111 223.887L398.793 207.069C398.793 161.659 388.664 169.22 388.664 169.22L382.815 153.249L355.906 152.408L338.667 168.806L324.371 173.852L318.773 202.94L328.996 233.978L331.519 250.797C326.706 259.681 327.114 255.479 331.098 262.149L378.611 275.183C395.429 281.07 395.429 265.933 392.057 262.149C388.684 258.365 387.02 247.433 387.02 247.433Z"
            fill="#3F3D56" />
        <path
            d="M365.884 146.763C379.662 146.763 390.83 135.595 390.83 121.817C390.83 108.04 379.662 96.8711 365.884 96.8711C352.107 96.8711 340.938 108.04 340.938 121.817C340.938 135.595 352.107 146.763 365.884 146.763Z"
            fill="#FFB6B6" />
        <path
            d="M399.188 155.116C399.423 155.513 399.566 155.957 399.605 156.416C399.644 156.876 399.58 157.338 399.416 157.769C399.251 158.2 398.992 158.588 398.657 158.905C398.322 159.221 397.92 159.458 397.481 159.598C394.134 160.708 392.074 163.946 389.669 166.536C387.272 169.118 383.412 171.262 380.351 169.504C377.299 167.755 377.089 163.29 374.532 160.868C372.043 158.513 367.906 158.799 364.979 160.591L364.892 160.644C364.387 160.974 363.796 161.148 363.193 161.145C362.59 161.142 362.001 160.963 361.499 160.629C360.997 160.295 360.604 159.821 360.368 159.266C360.132 158.711 360.064 158.099 360.173 157.506C361.198 152.053 362.223 146.6 363.247 141.148C360.556 147.632 356.648 153.541 351.735 158.555C350.381 160.117 348.667 161.324 346.74 162.071C344.991 162.626 343.292 160.818 341.593 161.146C345.815 157.454 360.009 133.79 357.47 117.972C354.485 118.309 351.499 118.645 348.514 118.982C348.191 117.569 347.5 116.266 346.513 115.206C346.633 116.581 346.458 117.966 346 119.267C344.755 119.41 343.502 119.545 342.258 119.688C340.525 119.881 338.641 120.05 337.153 119.141C334.672 117.628 334.597 114.045 335.303 111.22C337.372 103.004 343.645 96.1336 351.323 92.5345C359 88.9437 361.271 96.9409 369.36 94.3845C385.338 89.339 397.582 97.9669 401.896 113.978C405.52 127.408 402.888 141.661 399.188 155.116Z"
            fill="#2F2E41" />
        <path
            d="M468.251 582.652H437.704L437.573 582.414C437.183 581.705 436.806 580.955 436.453 580.184C433.307 573.448 431.977 565.743 430.803 558.946L429.92 553.823C429.813 553.202 429.893 552.564 430.151 551.989C430.409 551.415 430.833 550.931 431.367 550.598C431.902 550.266 432.524 550.101 433.153 550.124C433.782 550.147 434.391 550.357 434.9 550.728C439.542 554.106 444.186 557.48 448.831 560.852C450.591 562.132 452.6 563.613 454.524 565.214C454.709 564.312 454.903 563.408 455.097 562.516C455.231 561.901 455.546 561.339 456.001 560.903C456.456 560.467 457.031 560.177 457.651 560.07C458.272 559.962 458.911 560.043 459.486 560.301C460.061 560.558 460.546 560.982 460.879 561.517L464.452 567.259C467.059 571.452 469.36 575.584 468.891 580.041C468.893 580.095 468.889 580.149 468.879 580.203C468.785 580.935 468.611 581.654 468.36 582.348L468.251 582.652Z"
            fill="#F0F0F0" />
        <path
            d="M498.91 583.312L208.643 583.595C208.353 583.594 208.076 583.478 207.871 583.272C207.667 583.067 207.552 582.789 207.552 582.499C207.552 582.21 207.667 581.932 207.871 581.726C208.076 581.521 208.353 581.405 208.643 581.403L498.91 581.121C499.2 581.122 499.477 581.238 499.681 581.444C499.886 581.649 500 581.927 500 582.217C500 582.506 499.886 582.784 499.681 582.99C499.477 583.195 499.2 583.311 498.91 583.312Z"
            fill="#CACACA" />
        <path
            d="M235.366 174.744L203.438 147.781C202.347 146.857 201.667 145.538 201.546 144.114C201.426 142.689 201.876 141.275 202.798 140.181L208.674 133.223C209.598 132.131 210.917 131.451 212.341 131.331C213.766 131.211 215.18 131.661 216.274 132.582L248.202 159.545C249.293 160.469 249.974 161.788 250.094 163.212C250.214 164.637 249.764 166.051 248.843 167.145L242.966 174.103C242.042 175.195 240.723 175.875 239.299 175.995C237.874 176.115 236.46 175.665 235.366 174.744Z"
            fill="#3F3D56" />
        <path
            d="M205.113 140.742C204.617 141.332 204.375 142.094 204.439 142.861C204.504 143.629 204.871 144.34 205.459 144.838L237.387 171.801C237.976 172.297 238.738 172.54 239.506 172.475C240.274 172.41 240.984 172.044 241.482 171.456L247.359 164.497C247.855 163.908 248.097 163.146 248.033 162.378C247.968 161.61 247.601 160.9 247.013 160.402L215.085 133.439C214.496 132.942 213.734 132.7 212.966 132.764C212.198 132.829 211.488 133.196 210.99 133.784L205.113 140.742Z"
            fill="white" />
        <path
            d="M223.857 151.224C223.747 151.379 223.601 151.506 223.433 151.595C223.264 151.684 223.077 151.733 222.887 151.737L217.87 151.853C217.709 151.856 217.549 151.828 217.398 151.77C217.248 151.712 217.111 151.624 216.994 151.513C216.878 151.402 216.784 151.268 216.719 151.121C216.654 150.973 216.619 150.815 216.615 150.653C216.611 150.492 216.639 150.332 216.697 150.182C216.756 150.031 216.843 149.894 216.954 149.777C217.066 149.661 217.199 149.567 217.346 149.502C217.494 149.437 217.653 149.402 217.814 149.398L221.096 149.323L217.864 140.794C217.749 140.49 217.76 140.153 217.894 139.857C218.028 139.56 218.274 139.329 218.578 139.214C218.882 139.099 219.219 139.109 219.515 139.242C219.812 139.375 220.044 139.621 220.16 139.924L224.007 150.075C224.076 150.259 224.101 150.456 224.078 150.651C224.056 150.846 223.987 151.033 223.877 151.196L223.857 151.224Z"
            fill="#7F56D9" />
        <path
            d="M224.501 153.367C225.711 153.545 226.867 153.986 227.888 154.659C228.909 155.332 229.771 156.22 230.411 157.262C231.052 158.304 231.456 159.474 231.596 160.689C231.735 161.904 231.607 163.134 231.22 164.294L254.77 182.436L240.163 187.463L220.038 169.465C218.133 168.684 216.579 167.232 215.673 165.384C214.766 163.535 214.57 161.418 215.12 159.434C215.67 157.45 216.929 155.736 218.658 154.618C220.387 153.5 222.466 153.055 224.501 153.367Z"
            fill="#FFB6B6" />
        <path
            d="M347.111 162.337L286.814 199.41C286.814 199.41 262.503 190.415 267.254 186.251C272.005 182.087 256.88 179.272 256.88 179.272L240.171 168.03L230.475 179.299C230.475 179.299 232.242 197.602 235.247 194.433C238.253 191.263 242.747 199.921 242.747 199.921C242.747 199.921 244.074 209.588 252.631 207.155C261.188 204.722 284.149 230.222 284.149 230.222L358.357 202.545L347.111 162.337Z"
            fill="#3F3D56" />
        <path
            d="M238.269 125.536C237.57 125.536 236.881 125.373 236.256 125.06C235.63 124.748 235.087 124.294 234.667 123.735L223.624 109.01C223.269 108.537 223.011 107.998 222.864 107.426C222.718 106.853 222.685 106.257 222.769 105.671C222.853 105.086 223.051 104.523 223.352 104.014C223.653 103.505 224.052 103.061 224.525 102.706C225.48 101.99 226.681 101.682 227.863 101.851C228.449 101.935 229.012 102.133 229.52 102.434C230.029 102.735 230.474 103.134 230.828 103.607L238.053 113.239L256.61 85.4053C257.272 84.4116 258.302 83.7218 259.473 83.4876C260.644 83.2534 261.86 83.494 262.854 84.1564C263.848 84.8188 264.538 85.8489 264.772 87.0199C265.006 88.191 264.765 89.4071 264.103 90.4007L242.016 123.531C241.617 124.13 241.079 124.625 240.449 124.973C239.819 125.322 239.114 125.514 238.395 125.535C238.353 125.535 238.311 125.536 238.269 125.536Z"
            fill="white" />
    </g>
    <defs>
        <clipPath id="clip0_1_15825">
            <rect width="500" height="583.191" fill="white" transform="translate(0 0.404541)" />
        </clipPath>
    </defs>
</svg>