<?xml version="1.0" encoding="UTF-8"?>
<!-- Generated by Pixelmator Pro 3.3.5 -->
<svg width="512" height="512" viewBox="0 0 512 512" xmlns="http://www.w3.org/2000/svg">
    <path id="Shape" fill="#ffffff" fill-rule="evenodd" stroke="none" d="M 0 512 L 0 0 L 256 0 L 512 0 L 512 256 L 512 512 L 256 512 L 0 512 Z"/>
    <path id="path1" fill="#cfe0d8" fill-rule="evenodd" stroke="none" d="M 248.50618 363.497681 C 239.209534 363.528809 229.896515 363.352295 220.630707 362.595215 C 214.221725 362.071533 207.837616 361.193542 201.504211 360.081177 C 193.331696 358.645813 184.963135 357.63855 177.195358 354.721069 C 171.052917 352.414001 164.138 350.296112 159.935455 345.257202 C 156.598755 341.256409 155.103607 335.635559 155.003845 330.426941 C 154.891357 324.552948 157.261627 318.740234 159.921005 313.501526 C 163.284958 306.874878 168.199432 301.019592 173.532898 295.84436 C 179.834045 289.730164 187.164948 284.610565 194.868439 280.398193 C 202.24231 276.366028 210.217667 273.353241 218.336945 271.183167 C 227.940063 268.616516 237.900833 267.232635 247.83075 266.780518 C 259.301697 266.258209 270.931183 266.663147 282.222961 268.749146 C 292.82016 270.706818 303.322388 273.874786 313.029449 278.555237 C 321.533325 282.655518 329.657837 287.878113 336.557556 294.32193 C 342.066528 299.466919 346.881683 305.53775 350.399109 312.204681 C 353.135529 317.391266 355.474182 323.091553 355.803772 328.946472 C 356.039825 333.140442 355.652069 337.81543 353.302612 341.297546 C 350.248352 345.824249 344.575806 348.006439 339.630798 350.323059 C 332.04892 353.875 323.750244 355.735168 315.581512 357.571655 C 305.840668 359.761597 295.903442 361.093933 285.963837 362.033997 C 273.523926 363.210541 261.001526 363.455872 248.50618 363.497681 Z M 257.217255 261.361694 C 252.445511 261.968201 247.518311 261.756683 242.796295 260.84021 C 237.251999 259.76416 231.77623 257.861755 226.86441 255.074066 C 222.212067 252.433655 217.948318 248.955353 214.43811 244.918701 C 210.527939 240.42215 207.293503 235.20282 205.156921 229.640137 C 202.295685 222.190826 200.692719 214.100159 200.693375 206.120239 C 200.694031 198.113098 202.240005 189.970245 205.17601 182.520813 C 207.520264 176.572815 211.14566 171.06134 215.415268 166.302673 C 219.034409 162.268951 223.451401 158.898865 228.144577 156.189026 C 232.867538 153.462006 238.050339 151.413239 243.363495 150.182953 C 246.173889 149.532227 249.107758 149.393372 251.990601 149.498199 C 255.497025 149.625702 259.033813 150.086273 262.395599 151.091003 C 268.531799 152.924927 274.602448 155.436615 279.868225 159.081879 C 284.156647 162.050537 287.828827 165.944824 290.969147 170.109222 C 294.290192 174.513275 297.024109 179.435791 298.953308 184.603333 C 301.062531 190.253143 302.297546 196.279572 302.744415 202.29364 C 303.145203 207.687439 302.833832 213.193573 301.726471 218.487671 C 300.670258 223.537384 298.878632 228.490204 296.425049 233.028381 C 293.578705 238.29306 290.010681 243.282318 285.678802 247.411896 C 281.450775 251.442444 276.436401 254.721985 271.154999 257.21759 C 266.772675 259.28833 262.025482 260.750488 257.217255 261.361694 Z"/>
</svg>
