<?xml version="1.0" encoding="UTF-8"?>
<!-- Generated by Pixelmator Pro 3.3.5 -->
<svg width="512" height="121" viewBox="0 0 512 121" xmlns="http://www.w3.org/2000/svg">
    <path id="Shape" fill="#23e6a8" fill-opacity="0.401708" fill-rule="evenodd" stroke="none" d="M 71.968239 22.793457 L 88.742859 39.461998 L 88.933311 39.570763 L 89.202988 39.754158 L 92.028679 42.495453 L 94.665459 45.308083 L 102.972458 53.779152 L 111.438583 62.091606 L 113.811974 64.339706 L 116.263382 66.830811 L 116.477661 67.177757 L 116.838943 67.655235 L 117.228462 68.402145 L 117.272377 83.477417 L 117.256531 98.23645 L 117.183647 98.306061 L 117.117538 98.292023 L 117.090462 98.192398 L 117.135895 98.04718 L 117.15799 97.8311 L 117.069038 97.622116 L 117.020638 97.298203 L 116.988968 96.961174 L 116.918663 96.70565 L 116.859657 96.312538 L 116.773857 95.840805 L 116.728859 95.45752 L 116.741905 95.195007 L 116.662682 94.988266 L 116.562653 94.818359 L 116.50943 94.582848 L 116.42627 94.268356 L 116.268166 93.737656 L 116.132713 93.187302 L 116.067108 92.813843 L 115.968407 92.577972 L 115.903145 92.460037 L 115.774834 92.225166 L 115.564835 91.833458 L 115.491127 91.508347 L 115.39756 91.267769 L 115.186157 90.943253 L 115.062981 90.612411 L 114.917198 90.374504 L 114.745422 90.069321 L 114.544144 89.625061 L 114.305748 89.351379 L 114.215385 89.200912 L 114.129143 89.072182 L 113.935318 88.882721 L 113.824638 88.603806 L 113.752617 88.446556 L 113.565536 88.330711 L 113.447388 88.13456 L 113.368614 87.998611 L 113.277817 87.894585 L 113.149818 87.767807 L 113.033844 87.606079 L 112.90078 87.467514 L 112.727776 87.359406 L 112.692055 87.166107 L 112.50293 86.871269 L 112.200714 86.62085 L 111.99176 86.486237 L 111.891693 86.317032 L 110.626526 84.987305 L 109.237358 83.732941 L 108.779442 83.397766 L 108.444298 82.924835 L 103.154999 77.508789 L 97.729088 72.230476 L 95.404503 70.047821 L 93.194817 67.694397 L 92.045624 66.390244 L 90.837547 65.279236 L 89.52224 64.089554 L 88.28096 62.74649 L 83.511406 57.86248 L 78.684425 53.109489 L 78.034523 52.543655 L 77.042053 51.570702 L 76.470978 51.077797 L 74.397537 49.083946 L 72.428307 47.079445 L 72.157761 46.77359 L 71.873093 46.406921 L 71.799019 43.300255 L 71.860222 40.262383 L 71.945259 31.483696 L 71.968239 22.793457 Z M 48.896 97.942848 L 14.868082 63.925293 L 3.702154 52.766899 L 3.702154 38.078545 L 3.734463 23.39019 L 3.816369 23.87175 L 3.959782 24.923325 L 4.170691 26.004387 L 4.425458 26.987167 L 4.73974 27.969948 L 5.149615 29.031349 L 5.682592 30.171379 L 6.255675 31.219727 L 6.887531 32.20433 L 7.652794 33.239479 L 8.436783 34.161469 L 19.111834 44.869247 L 39.162754 64.922943 L 48.915821 74.681641 L 48.905914 86.312241 L 48.896 97.942848 Z"/>
    <path id="path1" fill="#23e6a8" fill-rule="evenodd" stroke="none" d="M 99.387077 117.23896 C 99.062157 117.247643 98.495018 117.241112 98.12677 117.224434 C 97.758522 117.207756 97.155945 117.155655 96.787689 117.10865 C 96.419441 117.061638 95.859634 116.973236 95.543663 116.912201 C 95.227692 116.851166 94.722588 116.736504 94.421204 116.657394 C 94.11982 116.578293 93.632645 116.435112 93.338608 116.339226 C 93.044556 116.24334 92.557175 116.066956 92.255531 115.947266 C 91.953873 115.827583 91.370338 115.563202 90.958771 115.359756 C 90.547203 115.156311 90.015511 114.872742 89.777229 114.729607 C 89.538956 114.586472 89.122459 114.320892 88.851692 114.139427 C 88.580925 113.957962 88.167633 113.660263 87.933258 113.477875 C 87.698891 113.295486 87.326714 112.991554 87.106186 112.802467 C 86.885666 112.61338 80.444252 106.19912 72.791954 98.548553 C 65.139648 90.89798 53.235619 78.993553 46.338554 72.094269 C 39.44149 65.194992 28.102812 53.850937 21.141497 46.885277 C 14.180181 39.919617 8.312824 34.019615 8.102926 33.774185 C 7.893028 33.528732 7.572709 33.130707 7.391106 32.889679 C 7.209502 32.648636 6.9184 32.238472 6.744212 31.978195 C 6.570024 31.717911 6.300086 31.284508 6.144351 31.015076 C 5.988614 30.745636 5.731018 30.259827 5.571914 29.935509 C 5.412809 29.611191 5.183337 29.101982 5.061975 28.803917 C 4.940612 28.505867 4.746464 27.975166 4.630534 27.62458 C 4.514603 27.27401 4.346013 26.689644 4.255888 26.326019 C 4.165762 25.962379 4.040964 25.360924 3.978557 24.989433 C 3.916151 24.617943 3.833222 24.022118 3.794272 23.665367 C 3.745687 23.220367 3.723202 22.708191 3.72265 22.033951 C 3.722208 21.493423 3.74434 20.784828 3.771832 20.459297 C 3.799324 20.133766 3.857806 19.62075 3.901792 19.319267 C 3.945778 19.017784 4.025549 18.558838 4.079062 18.299385 C 4.132575 18.039925 4.245717 17.562294 4.330488 17.237976 C 4.415259 16.913658 4.584034 16.360115 4.705543 16.007881 C 4.827051 15.655647 5.029161 15.124939 5.154675 14.828545 C 5.280189 14.532143 5.517752 14.024284 5.682592 13.699966 C 5.847433 13.375648 6.105319 12.903893 6.255675 12.651619 C 6.406029 12.399338 6.689848 11.957085 6.886382 11.668839 C 7.082916 11.380585 7.397891 10.95015 7.586327 10.712311 C 7.774763 10.47448 8.102065 10.085304 8.313665 9.847466 C 8.525265 9.609634 8.899039 9.217499 9.144274 8.976051 C 9.389508 8.734612 9.760135 8.389648 9.967889 8.209488 C 10.175643 8.029312 10.530105 7.738037 10.755581 7.56221 C 10.981058 7.386375 11.413661 7.074936 11.716923 6.870132 C 12.020185 6.665306 12.480985 6.372749 12.740923 6.219994 C 13.000862 6.067245 13.518166 5.792755 13.890488 5.610046 C 14.262809 5.42733 14.776779 5.193703 15.032641 5.090874 C 15.288504 4.988045 15.75483 4.817032 16.068924 4.710823 C 16.383015 4.60463 16.870399 4.456314 17.152 4.381256 C 17.433599 4.30619 17.912123 4.193001 18.215385 4.129715 C 18.518646 4.066429 19.014893 3.979294 19.318153 3.936066 C 19.621416 3.892838 20.117661 3.839043 20.420923 3.816528 C 20.724186 3.794014 21.176123 3.767975 21.42523 3.758659 C 21.674339 3.749352 22.241476 3.757324 22.685539 3.776382 C 23.129601 3.795456 23.776493 3.847153 24.123077 3.891289 C 24.469662 3.935417 24.992493 4.016327 25.284924 4.071091 C 25.577353 4.12587 26.08873 4.240845 26.421312 4.326607 C 26.753897 4.412376 27.269188 4.561882 27.566404 4.658836 C 27.863621 4.755783 28.353598 4.933044 28.655245 5.052734 C 28.95689 5.172424 29.54043 5.436806 29.952 5.640251 C 30.363569 5.843689 30.895262 6.127258 31.133539 6.270393 C 31.371815 6.413528 31.788307 6.679108 32.059078 6.86058 C 32.329845 7.042038 32.743141 7.339745 32.977505 7.522125 C 33.211872 7.704514 33.584057 8.008659 33.804581 8.197998 C 34.025108 8.387337 40.643398 14.978851 48.51189 22.845802 C 56.380386 30.712753 70.591583 44.922356 80.092346 54.422699 C 89.593109 63.92305 100.754509 75.089851 104.895462 79.237816 C 109.036423 83.385773 112.596603 86.980377 112.806984 87.225822 C 113.017357 87.47126 113.338058 87.869293 113.519661 88.110321 C 113.701271 88.351364 113.992363 88.761528 114.166557 89.021805 C 114.340744 89.282082 114.61068 89.715485 114.766426 89.984924 C 114.922157 90.254372 115.179749 90.740173 115.33886 91.064491 C 115.497963 91.388809 115.727432 91.898018 115.848801 92.196075 C 115.970154 92.494125 116.164307 93.024834 116.280243 93.375412 C 116.396164 93.725998 116.564758 94.310349 116.654884 94.673981 C 116.74501 95.037613 116.869743 95.639076 116.932068 96.010567 C 116.994392 96.38205 117.077682 96.986725 117.117157 97.354286 C 117.16642 97.813026 117.188927 98.324585 117.188927 98.985703 C 117.188927 99.515427 117.166435 100.215172 117.138931 100.540703 C 117.111443 100.866234 117.052963 101.37925 117.00898 101.680733 C 116.964989 101.982216 116.885223 102.441162 116.831711 102.700615 C 116.778191 102.960068 116.665047 103.437698 116.580276 103.762024 C 116.495506 104.086334 116.326729 104.639885 116.205231 104.992119 C 116.083717 105.34436 115.881607 105.875061 115.756096 106.171455 C 115.630577 106.467857 115.393021 106.975716 115.228172 107.300034 C 115.063339 107.624352 114.80545 108.096107 114.655098 108.348381 C 114.504738 108.600662 114.220924 109.042908 114.024384 109.331161 C 113.827858 109.619415 113.512878 110.04985 113.32444 110.287689 C 113.136009 110.52552 112.808701 110.914703 112.597107 111.152534 C 112.385498 111.390366 112.011734 111.782501 111.766502 112.023949 C 111.521263 112.265396 111.150635 112.610352 110.942886 112.79052 C 110.735123 112.970688 110.380661 113.261955 110.15519 113.43779 C 109.92971 113.613625 109.497108 113.925064 109.193848 114.129875 C 108.890587 114.334686 108.429787 114.627243 108.169846 114.780006 C 107.909904 114.932762 107.392609 115.207237 107.020279 115.389954 C 106.647964 115.57267 106.133987 115.806297 105.878128 115.909126 C 105.622269 116.011955 105.155945 116.182739 104.841843 116.288651 C 104.527748 116.394554 104.049232 116.541328 103.778465 116.614815 C 103.50769 116.688293 103.029175 116.801727 102.71508 116.866882 C 102.400978 116.932037 101.895874 117.020622 101.592613 117.063744 C 101.289352 117.106865 100.801971 117.160378 100.509537 117.182655 C 100.217102 117.204933 99.711998 117.23027 99.387077 117.23896 Z M 3.702195 52.775345 C 20.70352 69.760254 30.851042 79.900009 37.22084 86.266144 C 43.590633 92.632278 52.209278 101.251762 56.373375 105.420547 C 63.403336 112.458427 63.954597 113.019829 64.086235 113.275345 C 64.164215 113.426689 64.260895 113.656021 64.301079 113.784966 C 64.355194 113.958588 64.374153 114.142151 64.374153 114.492561 C 64.374153 114.885437 64.358162 115.014458 64.279892 115.252922 C 64.22805 115.410881 64.121712 115.645432 64.043587 115.774147 C 63.965462 115.902863 63.8265 116.095001 63.734787 116.201111 C 63.643078 116.307228 63.436172 116.482079 63.275009 116.589676 C 63.113842 116.697273 62.869862 116.822517 62.732838 116.868011 C 62.595806 116.913498 62.350769 116.967911 62.188309 116.98893 C 62.000023 117.013283 54.702942 117.025352 42.062771 117.022217 C 31.156185 117.019516 21.949045 117.004204 21.602461 116.988205 C 21.255877 116.972198 20.715322 116.929245 20.40123 116.892754 C 20.087139 116.856262 19.582031 116.78299 19.278769 116.729927 C 18.975508 116.676865 18.4704 116.571747 18.156307 116.496338 C 17.842215 116.420929 17.346338 116.287346 17.054361 116.199486 C 16.762381 116.111626 16.274996 115.946396 15.971284 115.832306 C 15.66757 115.718216 15.170955 115.515182 14.867692 115.381111 C 14.56443 115.247047 14.112493 115.02948 13.863384 114.897636 C 13.614277 114.765793 13.215508 114.542915 12.977231 114.402351 C 12.738955 114.261795 12.357907 114.022873 12.130462 113.871422 C 11.903016 113.719971 11.521969 113.4505 11.283692 113.272614 C 11.045416 113.094719 10.673231 112.801781 10.456615 112.621635 C 10.24 112.441498 9.781022 112.019562 9.436664 111.684006 C 9.092305 111.348457 8.615894 110.852783 8.377972 110.58252 C 8.140049 110.312256 7.758353 109.843468 7.529758 109.540771 C 7.301164 109.238075 6.96939 108.769287 6.792484 108.499023 C 6.615579 108.22876 6.364032 107.821892 6.233492 107.594864 C 6.102952 107.367844 5.862221 106.914886 5.698533 106.588303 C 5.534844 106.261711 5.302523 105.76123 5.182261 105.47612 C 5.062 105.19101 4.865493 104.672668 4.745578 104.324265 C 4.625663 103.975861 4.457336 103.435196 4.37152 103.122795 C 4.285702 102.810394 4.154234 102.242645 4.079368 101.861137 C 4.004501 101.479622 3.90702 100.875595 3.862742 100.518845 C 3.818465 100.162094 3.764301 99.578323 3.742379 99.221573 C 3.716282 98.796906 3.702464 90.666336 3.702357 75.674141 L 3.702195 52.775345 Z M 117.188927 67.998215 C 97.305016 48.109825 87.020103 37.826454 81.505241 32.315056 C 75.990372 26.803658 68.222694 19.033836 64.243721 15.048805 C 58.261787 9.057747 56.983482 7.759033 56.860497 7.54776 C 56.778694 7.407219 56.675655 7.177246 56.631523 7.036713 C 56.587395 6.896179 56.541164 6.629959 56.52879 6.445122 C 56.51326 6.213142 56.525581 6.014648 56.568581 5.804176 C 56.60284 5.63649 56.689026 5.373367 56.760101 5.219452 C 56.831177 5.065536 56.965538 4.840958 57.058689 4.720375 C 57.151836 4.599792 57.319958 4.424271 57.432285 4.33033 C 57.544617 4.236382 57.756737 4.099098 57.90366 4.025246 C 58.050587 3.951393 58.281631 3.864883 58.417091 3.833 C 58.632442 3.782326 61.224316 3.774963 79.047386 3.774467 C 97.129539 3.773949 99.504501 3.780739 100.078766 3.834633 C 100.434837 3.868042 100.947693 3.929031 101.21846 3.970177 C 101.489227 4.011322 101.968727 4.098686 102.284019 4.164322 C 102.599304 4.229958 103.107384 4.354218 103.413071 4.440453 C 103.718758 4.526672 104.196297 4.674805 104.474281 4.7696 C 104.752258 4.864403 105.2258 5.042236 105.526588 5.16478 C 105.827377 5.287323 106.323624 5.509895 106.629356 5.659386 C 106.935089 5.808876 107.40654 6.058113 107.67704 6.213242 C 107.947533 6.36837 108.395615 6.643425 108.672775 6.824486 C 108.949944 7.005539 109.375526 7.302849 109.618507 7.485184 C 109.861504 7.667503 110.237541 7.962852 110.454155 8.141487 C 110.670769 8.320122 111.212517 8.830116 111.658035 9.274803 C 112.103561 9.71949 112.614502 10.260231 112.793472 10.476448 C 112.972443 10.692657 113.265076 11.064148 113.443771 11.301979 C 113.622459 11.539818 113.892815 11.920158 114.044556 12.147171 C 114.196304 12.374191 114.435333 12.754532 114.575729 12.992363 C 114.716133 13.230202 114.929886 13.610535 115.050728 13.837555 C 115.171577 14.064575 115.368065 14.464203 115.487373 14.725624 C 115.606682 14.98703 115.788109 15.411591 115.890541 15.66909 C 115.992958 15.926582 116.160904 16.393768 116.263733 16.707275 C 116.366554 17.02079 116.522766 17.560333 116.610855 17.906273 C 116.698952 18.252213 116.816391 18.774063 116.871849 19.065948 C 116.927292 19.357841 117.007713 19.87085 117.05056 20.205978 C 117.093407 20.5411 117.148148 21.177956 117.172211 21.621185 C 117.203629 22.199783 117.212151 28.85321 117.202446 45.212631 L 117.188927 67.998215 Z"/>
    <path id="path2" fill="#130f35" fill-rule="evenodd" stroke="none" d="M 268.796448 98.559944 C 271.018707 97.295677 271.018707 97.295677 271.132141 97.493912 C 271.194519 97.602936 271.347107 97.793022 271.471191 97.916328 C 271.595276 98.039627 271.788086 98.189545 271.899628 98.249481 C 272.011169 98.30941 272.239532 98.39344 272.407043 98.436203 C 272.621796 98.49102 272.840576 98.513802 273.148468 98.51339 C 273.398224 98.513054 273.693268 98.487389 273.837555 98.453438 C 273.976349 98.420784 274.193512 98.338959 274.320129 98.271599 C 274.446716 98.204239 274.622681 98.070763 274.711121 97.974983 C 274.799591 97.879196 274.923676 97.690544 274.986877 97.555756 C 275.054352 97.411789 275.117462 97.189911 275.139832 97.01799 C 275.162292 96.845001 275.178375 94.880569 275.179108 92.21434 L 275.180298 87.703384 L 276.460297 87.703384 L 277.740295 87.703384 L 277.740265 92.253654 C 277.740265 95.053856 277.724731 96.96711 277.699951 97.22821 C 277.677765 97.461555 277.634064 97.762283 277.602844 97.8965 C 277.571625 98.030708 277.512512 98.237808 277.471436 98.356728 C 277.430389 98.475647 277.334259 98.69677 277.257782 98.848114 C 277.181274 98.999466 277.040009 99.229431 276.943848 99.359161 C 276.847687 99.488892 276.651001 99.704788 276.506805 99.838943 C 276.36261 99.973099 276.142487 100.152031 276.0177 100.23658 C 275.892883 100.321129 275.648987 100.461349 275.475677 100.548187 C 275.302399 100.635017 275.013 100.752541 274.832581 100.809349 C 274.652161 100.866158 274.350861 100.939392 274.163025 100.972099 C 273.97522 101.004807 273.617737 101.038803 273.368622 101.047653 C 273.119507 101.056503 272.756195 101.048622 272.561218 101.030144 C 272.366272 101.011665 272.061584 100.967972 271.884186 100.933044 C 271.706726 100.898117 271.437561 100.827438 271.28598 100.775986 C 271.13443 100.724525 270.89856 100.628624 270.761841 100.562866 C 270.625092 100.497101 270.406128 100.372849 270.275208 100.286736 C 270.144287 100.200623 269.919556 100.022606 269.775818 99.891144 C 269.63208 99.759674 269.417206 99.523102 269.298309 99.365417 C 269.179413 99.207741 269.017853 98.962006 268.939301 98.819336 L 268.796448 98.559944 Z M 248.792618 100.794022 L 248.792618 87.703384 L 250.068024 87.703384 C 251.34343 87.703384 251.34343 87.703384 251.367172 87.791824 C 251.380234 87.840477 251.391174 90.757889 251.391464 94.274971 C 251.391754 97.792046 251.381256 100.697639 251.368103 100.731842 C 251.346985 100.786774 251.195419 100.794022 250.068405 100.794022 L 248.792618 100.794022 Z M 295.148315 100.794022 L 295.148315 87.703384 L 296.428314 87.703384 L 297.708313 87.703384 L 297.708313 94.248703 L 297.708313 100.794022 L 296.428314 100.794022 L 295.148315 100.794022 Z M 318.660919 100.794022 L 318.660919 90.179985 L 316.95755 90.179382 C 315.954376 90.179031 315.229858 90.163483 315.195068 90.141556 C 315.145416 90.11026 315.134064 89.933296 315.123962 89.031609 C 315.11734 88.44162 315.122589 87.901413 315.13559 87.831139 C 315.159271 87.703384 315.159271 87.703384 319.962402 87.703384 L 324.765533 87.703384 L 324.765533 88.92128 C 324.765533 90.139175 324.765533 90.139175 324.67691 90.160233 C 324.628204 90.171806 323.835083 90.18541 322.914459 90.19046 L 321.240601 90.199646 L 321.230621 95.496834 L 321.220642 100.794022 L 319.940796 100.794022 L 318.660919 100.794022 Z M 342.019989 100.794022 C 342.434418 99.60244 343.464264 96.657043 344.575958 93.479935 L 346.597198 87.703384 L 348.200897 87.703384 C 349.804626 87.703384 349.804626 87.703384 349.848145 87.811485 C 349.872101 87.870941 350.788971 90.466957 351.88559 93.580414 C 352.982178 96.693863 354.001068 99.590607 354.14978 100.017624 L 354.420166 100.794022 L 353.119476 100.794022 C 351.818726 100.794022 351.818726 100.794022 351.766296 100.66626 C 351.737457 100.595993 351.548279 100.06517 351.345886 99.486656 L 350.977875 98.434814 L 348.282379 98.444908 L 345.586884 98.455002 L 345.19632 99.624512 L 344.805725 100.794022 L 343.412872 100.794022 L 342.019989 100.794022 Z M 371.672607 100.794022 L 371.672607 87.703384 L 372.972321 87.703384 L 374.272003 87.703384 L 374.272003 93.010399 L 374.272003 98.317413 L 376.748657 98.317413 C 379.225281 98.317413 379.225281 98.317413 379.249023 98.405869 C 379.262085 98.454514 379.272766 98.971947 379.272766 99.555717 C 379.272766 100.139488 379.262085 100.656921 379.249023 100.705574 C 379.225281 100.794022 379.225281 100.794022 375.448975 100.794022 L 371.672607 100.794022 Z M 219.884308 100.758301 L 219.884308 87.664063 L 222.375381 87.664673 C 223.745483 87.665009 225.132309 87.683304 225.45723 87.705322 C 225.78215 87.727341 226.218979 87.780106 226.427979 87.822571 C 226.636963 87.865036 226.991425 87.963058 227.215668 88.04039 C 227.439911 88.117729 227.791748 88.269936 227.997543 88.378632 C 228.203323 88.487328 228.513474 88.67617 228.686768 88.798286 C 228.860062 88.920395 229.205658 89.224113 229.454773 89.473213 C 229.703888 89.722305 230.027344 90.093803 230.173599 90.298752 C 230.319839 90.503693 230.545425 90.883659 230.674896 91.143112 C 230.804367 91.402565 230.962769 91.774055 231.026901 91.968651 C 231.091034 92.163239 231.179871 92.499352 231.224304 92.715561 C 231.268753 92.931778 231.326324 93.352097 231.352264 93.649605 C 231.388794 94.068466 231.38887 94.321304 231.352615 94.769974 C 231.326889 95.088669 231.269302 95.526314 231.22467 95.742523 C 231.180038 95.95874 231.090363 96.294846 231.025391 96.489441 C 230.960419 96.684036 230.827988 97.010536 230.731033 97.214996 C 230.634109 97.419464 230.442169 97.755653 230.304474 97.962082 C 230.166809 98.168503 229.918533 98.492233 229.752792 98.681465 C 229.587036 98.870705 229.314819 99.142838 229.147873 99.286201 C 228.980911 99.429573 228.684814 99.653099 228.489853 99.782936 C 228.294891 99.912766 227.975891 100.093628 227.78093 100.184845 C 227.585968 100.27607 227.283676 100.39769 227.109161 100.455124 C 226.934631 100.512558 226.615616 100.597778 226.400238 100.644493 C 226.021408 100.726662 225.90863 100.729904 222.946457 100.743866 L 219.884308 100.758301 Z M 222.444305 90.140678 C 222.444305 96.437027 222.456116 98.276794 222.470551 98.291206 C 222.485001 98.305618 223.145187 98.317307 223.937637 98.317184 C 224.99675 98.317009 225.47757 98.301849 225.752609 98.259964 C 225.958405 98.228622 226.255173 98.15905 226.412109 98.105362 C 226.569061 98.051666 226.799469 97.953331 226.924118 97.886826 C 227.048767 97.820328 227.269928 97.676674 227.415558 97.567596 C 227.561172 97.458519 227.770462 97.268608 227.880615 97.145569 C 227.990753 97.022537 228.142365 96.829697 228.217499 96.717056 C 228.292633 96.604416 228.425034 96.364731 228.511719 96.184433 C 228.598389 96.004128 228.717545 95.662888 228.776505 95.426117 C 228.874313 95.033295 228.883698 94.930115 228.883698 94.247261 C 228.883698 93.620544 228.869751 93.437508 228.797958 93.121124 C 228.750809 92.913338 228.664673 92.624725 228.606583 92.479752 C 228.548462 92.334778 228.432907 92.098557 228.349747 91.954819 C 228.266617 91.811073 228.100906 91.575409 227.981522 91.431107 C 227.862122 91.286804 227.644073 91.071968 227.496979 90.95369 C 227.349884 90.835419 227.11264 90.674736 226.969757 90.596619 C 226.826859 90.518509 226.578735 90.409706 226.418365 90.354851 C 226.25798 90.299995 225.958405 90.229469 225.752609 90.19812 C 225.476654 90.156097 224.993439 90.141083 223.911392 90.140907 L 222.444305 90.140678 Z M 348.278503 96.037361 C 350.099701 96.037361 350.099701 96.037361 350.077148 95.92926 C 350.064758 95.869797 349.671356 94.742058 349.202911 93.423164 C 348.734467 92.104271 348.320282 90.954422 348.282501 90.867935 C 348.213806 90.710693 348.213806 90.710693 347.352722 93.285576 C 346.87912 94.701767 346.483917 95.900269 346.474457 95.948914 C 346.457275 96.037361 346.457275 96.037361 348.278503 96.037361 Z M 250.131699 86.710297 C 249.921936 86.716934 249.743149 86.701019 249.652939 86.667679 C 249.573746 86.638412 249.430481 86.568573 249.334579 86.512466 C 249.238647 86.45636 249.09317 86.336426 249.011276 86.245926 C 248.929352 86.155441 248.815628 85.981979 248.75856 85.860466 C 248.66925 85.670357 248.65477 85.587448 248.65477 85.266083 C 248.65477 84.937012 248.667831 84.866096 248.764572 84.669434 C 248.831696 84.533028 248.965149 84.362358 249.107834 84.230515 C 249.259506 84.090347 249.421082 83.984924 249.569092 83.929527 C 249.755219 83.859879 249.861801 83.84668 250.151382 83.857422 C 250.429352 83.867737 250.54834 83.891357 250.702774 83.966888 C 250.811081 84.019859 250.989197 84.152527 251.098557 84.261703 C 251.207947 84.37088 251.336441 84.540962 251.384094 84.639671 C 251.431747 84.73838 251.48938 84.919701 251.512131 85.04261 C 251.541153 85.19928 251.541061 85.333649 251.511795 85.492126 C 251.488846 85.61644 251.424713 85.810844 251.369263 85.924133 C 251.313828 86.037415 251.185532 86.212875 251.084167 86.314041 C 250.982803 86.415222 250.802368 86.543381 250.683167 86.598846 C 250.513901 86.677628 250.393173 86.702026 250.131699 86.710297 Z M 296.467682 86.710754 C 296.192474 86.718399 296.070892 86.70369 295.923889 86.64492 C 295.819763 86.603294 295.669098 86.51963 295.589111 86.459 C 295.509125 86.398376 295.393616 86.295334 295.332428 86.230026 C 295.27124 86.164711 295.179565 86.030556 295.128723 85.9319 C 295.077881 85.833237 295.017303 85.647491 294.99411 85.519127 C 294.96582 85.362656 294.964355 85.209755 294.989685 85.055199 C 295.010468 84.928406 295.067108 84.742661 295.115479 84.642426 C 295.163879 84.542206 295.292969 84.371063 295.402374 84.262131 C 295.511719 84.153183 295.68985 84.020828 295.798157 83.967987 C 295.969421 83.884438 296.050262 83.871834 296.418793 83.871231 C 296.809875 83.87059 296.859222 83.87925 297.059235 83.983688 C 297.178436 84.045929 297.371399 84.199738 297.488068 84.3255 C 297.604706 84.451263 297.733002 84.639153 297.773163 84.743042 C 297.82486 84.876839 297.846161 85.035408 297.846161 85.286652 C 297.846161 85.608109 297.834045 85.665939 297.716949 85.903244 C 297.63501 86.069359 297.5159 86.229591 297.391266 86.341438 C 297.283203 86.438416 297.110931 86.558968 297.008453 86.609329 C 296.862488 86.681076 296.745422 86.703033 296.467682 86.710754 Z"/>
    <path id="path3" fill="#130f35" fill-rule="evenodd" stroke="none" d="M 394.78598 101 C 394.747986 99.78009 394.704529 98.259262 394.664978 96.833336 C 394.613037 94.963448 394.592926 93.289246 394.592773 90.8274 L 394.59259 87.414063 L 394.898163 87.392624 C 395.066193 87.380829 395.603699 87.354233 396.09259 87.333511 C 396.581482 87.31279 397.205048 87.270523 397.478333 87.239586 C 397.751587 87.208649 398.244659 87.134674 398.574005 87.07518 C 398.903381 87.015686 399.413147 86.907043 399.706818 86.833755 C 400.000458 86.760468 400.480316 86.617554 400.773102 86.516159 C 401.065948 86.414764 401.545624 86.221558 401.839081 86.086807 C 402.132568 85.952057 402.620087 85.696701 402.922455 85.519348 C 403.224823 85.342003 403.703308 85.02475 403.985718 84.814346 C 404.342896 84.548264 404.69751 84.233589 405.150665 83.780716 C 405.508972 83.422623 405.960175 82.929626 406.153381 82.685181 C 406.346619 82.440742 406.647339 82.03241 406.821716 81.777779 C 406.996094 81.523148 407.283936 81.073151 407.461395 80.777779 C 407.638855 80.482407 407.953827 79.899078 408.161346 79.481476 C 408.368896 79.063889 408.641846 78.48056 408.767975 78.185181 C 408.894104 77.889816 409.098175 77.386475 409.221497 77.066658 L 409.445709 76.485168 L 408.167328 73.464798 C 407.464203 71.803604 406.038696 68.436188 404.999573 65.981667 C 403.960419 63.527145 402.2771 59.552151 401.258789 57.148346 C 400.240509 54.744545 398.623993 50.927811 397.666534 48.666718 C 396.709106 46.405632 394.800018 41.897606 393.424164 38.648895 C 392.048309 35.400185 390.298462 31.266785 389.535614 29.463554 C 388.772827 27.660332 387.731293 25.19751 387.221161 23.990631 C 386.71106 22.783745 386.284454 21.760185 386.273224 21.716034 C 386.254639 21.643112 386.271027 21.633492 386.452148 21.610855 C 386.561798 21.59716 390.148438 21.583282 394.422455 21.580017 L 402.19342 21.574074 L 403.131622 23.991562 C 403.647644 25.321182 404.437653 27.358604 404.887177 28.519173 C 405.336761 29.679741 406.095947 31.637741 406.57428 32.870293 C 407.052612 34.102837 407.993591 36.528107 408.665375 38.259766 C 409.337128 39.991425 411.179535 44.732803 412.759583 48.796158 C 414.339661 52.85952 415.832581 56.696831 416.077148 57.323521 L 416.52182 58.462963 L 416.936859 58.457592 C 417.351837 58.452221 417.351837 58.452221 417.468384 58.142776 C 417.532501 57.972584 417.886108 56.920647 418.254181 55.805138 C 418.622253 54.689636 419.281982 52.685364 419.720276 51.351212 C 420.158569 50.017052 420.917511 47.708923 421.40683 46.222023 C 421.896118 44.735138 422.730011 42.201973 423.259827 40.592781 C 423.789673 38.983597 425.047882 35.158554 426.055878 32.09269 C 427.063843 29.026825 428.258331 25.399216 428.710297 24.031319 L 429.532074 21.544243 L 436.441956 21.574043 C 440.242401 21.590439 443.754669 21.613823 444.246948 21.626007 L 445.142059 21.648148 L 444.890289 22.351852 C 444.751831 22.738884 444.361969 23.818214 444.023956 24.750351 C 443.685913 25.682487 442.758911 28.236641 441.963867 30.426254 C 441.168823 32.61586 439.793213 36.398972 438.906952 38.83316 C 438.02063 41.267349 436.579254 45.225792 435.703888 47.629692 C 434.828491 50.033592 432.586731 56.191887 430.722137 61.314789 C 428.857605 66.437691 426.565674 72.716766 425.629059 75.26828 C 424.692383 77.819801 423.74826 80.340744 423.531006 80.870369 C 423.313721 81.400002 422.972046 82.195313 422.771729 82.637718 C 422.571442 83.080132 422.239716 83.780136 422.034607 84.193268 C 421.829498 84.606415 421.509644 85.227783 421.323792 85.574074 C 421.137939 85.920364 420.811707 86.503708 420.598755 86.870369 C 420.385803 87.237038 420.010223 87.853699 419.76413 88.240738 C 419.518097 88.627777 419.101349 89.251564 418.838104 89.62693 C 418.574829 90.002296 418.158997 90.56897 417.91394 90.886192 C 417.668945 91.203415 417.264069 91.704628 417.014282 92 C 416.764465 92.295372 416.36322 92.748734 416.12262 93.007469 C 415.882019 93.266205 415.42688 93.72538 415.111115 94.027863 C 414.795349 94.330345 414.337036 94.753517 414.09259 94.968246 C 413.848175 95.182983 413.44812 95.516144 413.203705 95.708618 C 412.959259 95.901093 412.550934 96.208359 412.296295 96.391434 C 412.041656 96.574516 411.61792 96.863625 411.354614 97.033897 C 411.091278 97.204178 410.621063 97.490784 410.309692 97.670807 C 409.99826 97.85083 409.505341 98.117683 409.214325 98.263802 C 408.923279 98.409927 408.443512 98.636383 408.148163 98.767036 C 407.852783 98.89769 407.360382 99.101921 407.053986 99.220871 C 406.747589 99.339828 406.208069 99.532089 405.855194 99.648132 C 405.502228 99.764168 404.977936 99.924438 404.690063 100.004288 C 404.402191 100.084137 403.883331 100.214264 403.537048 100.293457 C 403.190765 100.372658 402.672882 100.480492 402.386261 100.533081 C 402.099609 100.585678 401.582947 100.669632 401.238098 100.719666 C 400.89328 100.769684 400.369263 100.837006 400.073608 100.869263 C 399.777985 100.90152 399.06134 100.943771 398.481018 100.963142 C 397.900726 100.982521 396.831909 100.998741 396.105927 100.999184 L 394.78598 101 Z M 225.648148 79.866867 C 224.89444 79.875702 223.919449 79.86911 223.481476 79.852219 C 223.043518 79.835327 222.335175 79.785721 221.90741 79.741989 C 221.47963 79.698257 220.837967 79.621552 220.481476 79.57151 C 220.125 79.521477 219.550003 79.429489 219.203705 79.367081 C 218.857407 79.304688 218.324081 79.196342 218.018524 79.126335 C 217.712967 79.05632 217.246292 78.941994 216.981476 78.872284 C 216.716675 78.802567 216.218689 78.660202 215.874893 78.555923 C 215.531082 78.451653 214.95549 78.259888 214.595795 78.129776 C 214.236099 77.999664 213.681351 77.784775 213.363052 77.652222 C 213.044739 77.519676 212.503677 77.279938 212.16066 77.119476 C 211.817673 76.959007 211.226685 76.659424 210.847366 76.453735 C 210.468048 76.248055 209.900467 75.922958 209.586075 75.7313 C 209.271698 75.539642 208.740143 75.198219 208.404816 74.97258 C 208.069519 74.746941 207.54541 74.375 207.240173 74.146027 C 206.934937 73.917068 206.469727 73.553047 206.206375 73.33709 C 205.943039 73.12114 205.493042 72.736893 205.206375 72.483223 C 204.919724 72.229553 204.325684 71.662888 203.886307 71.223969 C 203.446915 70.785042 202.874054 70.184692 202.613281 69.889862 C 202.352509 69.595016 201.957306 69.133148 201.735062 68.86348 C 201.512817 68.593811 201.124939 68.098877 200.873123 67.763641 C 200.621277 67.428406 200.223816 66.86528 199.989853 66.512238 C 199.75589 66.15921 199.415131 65.620369 199.232605 65.314819 C 199.050064 65.009262 198.755661 64.490707 198.578384 64.162476 C 198.401093 63.834244 198.10881 63.250908 197.928848 62.86618 C 197.748917 62.481445 197.467163 61.830257 197.30275 61.419094 C 197.138321 61.007931 196.91127 60.402195 196.798203 60.073013 C 196.68512 59.743832 196.51857 59.221905 196.428101 58.913177 C 196.337631 58.604446 196.204819 58.122662 196.13298 57.842537 C 196.061111 57.562412 195.94426 57.062412 195.873306 56.73143 C 195.802338 56.400444 195.69397 55.829628 195.632492 55.462959 C 195.571014 55.096298 195.469986 54.387962 195.40799 53.888885 C 195.345993 53.389816 195.275772 52.623146 195.251938 52.185188 C 195.228104 51.747223 195.207504 50.722221 195.206146 49.90741 C 195.204803 49.09259 195.224777 48.09259 195.250549 47.685188 C 195.276291 47.277779 195.330444 46.646194 195.370865 46.28167 C 195.41127 45.917145 195.478638 45.383812 195.520569 45.096481 C 195.5625 44.809151 195.654572 44.258728 195.725174 43.873299 C 195.795776 43.487877 195.913177 42.921204 195.986069 42.614044 C 196.05896 42.306877 196.193298 41.781212 196.284607 41.4459 C 196.375916 41.110596 196.566986 40.485596 196.709198 40.057014 C 196.85144 39.628433 197.091034 38.967499 197.241669 38.58828 C 197.392288 38.209053 197.642471 37.617393 197.797638 37.273468 C 197.952805 36.929543 198.209595 36.398148 198.368332 36.09259 C 198.527054 35.787041 198.795502 35.295372 198.964874 35 C 199.134262 34.704628 199.404892 34.254631 199.566269 34 C 199.727646 33.745369 200.001755 33.328705 200.1754 33.074074 C 200.349045 32.819443 200.652466 32.39444 200.849686 32.129631 C 201.046875 31.864815 201.375793 31.439812 201.580597 31.185188 C 201.785416 30.930557 202.154602 30.492073 202.401047 30.210762 C 202.647476 29.929474 203.078888 29.456657 203.359741 29.160072 C 203.640594 28.863487 204.120804 28.385315 204.42688 28.097458 C 204.732971 27.809601 205.174622 27.406212 205.408371 27.201065 C 205.64209 26.995903 206.033325 26.663658 206.277771 26.462738 C 206.522232 26.261818 206.976944 25.907242 207.288269 25.674805 C 207.599579 25.442368 208.157913 25.049042 208.529007 24.800766 C 208.900085 24.552483 209.445374 24.205765 209.740738 24.030289 C 210.036118 23.854805 210.544449 23.568504 210.870377 23.394058 C 211.196289 23.219612 211.771301 22.928017 212.148148 22.746056 C 212.524994 22.56411 213.191956 22.272057 213.630249 22.097038 C 214.068542 21.922028 214.701859 21.685829 215.037659 21.572159 C 215.373428 21.458481 215.898148 21.292336 216.203705 21.202942 C 216.509262 21.113556 216.992584 20.981972 217.277771 20.910553 C 217.562973 20.839127 218.029617 20.730431 218.314819 20.668999 C 218.600006 20.607567 219.063065 20.51535 219.343826 20.464066 C 219.624603 20.412788 220.157928 20.32988 220.529007 20.279831 C 220.900101 20.229782 221.445374 20.163246 221.740738 20.131981 C 222.036118 20.1007 222.677765 20.055534 223.166672 20.031593 C 223.747543 20.003159 224.658768 19.996063 225.796295 20.011124 C 226.895447 20.025681 227.755447 20.055038 228.129623 20.090782 C 228.455551 20.121918 228.997208 20.182182 229.333328 20.224701 C 229.669449 20.26722 230.236115 20.349991 230.59259 20.408638 C 230.949081 20.467285 231.488586 20.566826 231.791519 20.629837 C 232.094452 20.692863 232.638214 20.818657 232.999893 20.909393 C 233.361557 21.000137 233.936798 21.158607 234.278198 21.261574 C 234.619568 21.36454 235.175812 21.546638 235.514282 21.666245 C 235.852753 21.785843 236.396347 21.991631 236.72226 22.123535 C 237.048157 22.255455 237.531479 22.462166 237.796295 22.582916 C 238.061111 22.703667 238.561111 22.945938 238.90741 23.121292 C 239.253708 23.296638 239.797775 23.589554 240.116486 23.772209 C 240.435181 23.954872 240.926849 24.249908 241.209076 24.427872 C 241.491302 24.605827 241.913879 24.884247 242.148148 25.046585 C 242.382416 25.208931 242.857407 25.55484 243.203705 25.815285 C 243.550003 26.075722 244.066666 26.483215 244.351852 26.720818 C 244.637039 26.958435 245.103577 27.364288 245.38858 27.622711 C 245.673615 27.881149 246.222153 28.409264 246.607559 28.796295 C 246.992996 29.183334 247.543137 29.763847 247.830093 30.086319 C 248.117065 30.408791 248.606339 30.991806 248.917389 31.381897 C 249.228424 31.772003 249.670105 32.354149 249.898865 32.675583 C 250.12764 32.997009 250.489822 33.531929 250.703705 33.864288 C 250.917587 34.196648 251.25325 34.750648 251.449631 35.095406 C 251.646011 35.440147 251.959961 36.028618 252.147293 36.403107 C 252.334656 36.777588 252.588593 37.310921 252.711624 37.588287 C 252.834671 37.865662 253.042938 38.366646 253.174454 38.701591 C 253.305984 39.036537 253.504562 39.578209 253.615738 39.905289 C 253.726913 40.232384 253.891525 40.75 253.981537 41.055557 C 254.071548 41.361115 254.220322 41.915825 254.31218 42.288246 C 254.404022 42.660675 254.539154 43.269005 254.612442 43.640099 C 254.68576 44.011192 254.786148 44.584091 254.835556 44.913216 C 254.884949 45.242332 254.958954 45.800667 254.999985 46.153954 C 255.041016 46.50724 255.095306 47.1213 255.120621 47.518517 C 255.146423 47.923248 255.166672 49.005974 255.166672 49.981483 C 255.166672 50.98867 255.147079 52.010956 255.120209 52.40741 C 255.094635 52.784264 255.039658 53.384262 254.998032 53.740738 C 254.956406 54.097221 254.881927 54.649948 254.83255 54.969025 C 254.783173 55.288094 254.682755 55.854767 254.609436 56.228279 C 254.536072 56.601799 254.410141 57.182407 254.329559 57.51852 C 254.248962 57.85463 254.089539 58.446297 253.975235 58.833332 C 253.860962 59.220367 253.676208 59.795368 253.564713 60.111111 C 253.453186 60.426853 253.270203 60.918522 253.158066 61.203705 C 253.045929 61.488888 252.848694 61.958202 252.719742 62.246624 C 252.590805 62.535038 252.349442 63.043369 252.183395 63.376251 C 252.017349 63.709129 251.772064 64.181488 251.638321 64.425926 C 251.504593 64.670364 251.27002 65.078705 251.117081 65.333328 C 250.964127 65.587967 250.689331 66.021294 250.506409 66.296295 C 250.323502 66.571297 250.031143 66.996292 249.856735 67.240738 C 249.682327 67.485184 249.398224 67.868515 249.225388 68.09259 C 249.052551 68.316666 248.714035 68.736221 248.473114 69.024933 C 248.232193 69.31366 247.746597 69.863655 247.394043 70.247162 C 247.041473 70.630661 246.521088 71.167313 246.23761 71.439713 C 245.954163 71.712112 245.513885 72.122116 245.259262 72.350822 C 245.004623 72.579529 244.571289 72.954208 244.296295 73.183441 C 244.021301 73.412674 243.571289 73.770706 243.296295 73.97908 C 243.021301 74.187454 242.57962 74.508179 242.314819 74.691818 C 242.050003 74.875458 241.558334 75.20118 241.222229 75.415649 C 240.886108 75.630112 240.39444 75.929855 240.129623 76.081734 C 239.864822 76.233612 239.389816 76.492546 239.074081 76.657135 C 238.758331 76.821716 238.204193 77.090874 237.842651 77.255249 C 237.481094 77.419632 236.906113 77.664536 236.564865 77.799484 C 236.223633 77.934425 235.552765 78.176132 235.074081 78.336601 C 234.595383 78.49707 233.902832 78.710419 233.535126 78.810715 C 233.167389 78.910995 232.553131 79.062057 232.170105 79.146408 C 231.787079 79.230759 231.087921 79.364273 230.61647 79.443123 C 230.145004 79.521973 229.375916 79.628952 228.90741 79.680862 C 228.438889 79.732773 227.822235 79.792244 227.537033 79.813019 C 227.251846 79.833801 226.401855 79.858032 225.648148 79.866867 Z M 364.629639 21.544228 C 371.145386 21.581039 374.437073 21.6026 376.148193 21.615906 L 379.259308 21.640076 L 379.250031 49.92189 L 379.240753 78.203705 L 378.388885 78.225876 C 377.920349 78.238068 374.632874 78.261475 371.083344 78.277878 L 364.629639 78.307709 L 364.629608 76.866814 C 364.629547 76.074326 364.61853 74.66433 364.605072 73.73349 C 364.580597 72.041046 364.580597 72.041046 364.468689 71.994698 C 364.358643 71.949112 364.353119 71.952362 364.13208 72.192329 C 364.008545 72.326508 363.682373 72.675629 363.407349 72.968147 C 363.132294 73.260666 362.615631 73.776382 362.259186 74.114182 C 361.90274 74.451973 361.402069 74.894508 361.146515 75.097595 C 360.890991 75.300674 360.451874 75.630157 360.170715 75.829788 C 359.889587 76.029411 359.440277 76.32991 359.172333 76.497559 C 358.904419 76.665207 358.401825 76.953362 358.055542 77.137894 C 357.709259 77.322418 357.132538 77.607819 356.773895 77.772118 C 356.415283 77.936409 355.856964 78.169968 355.533173 78.29113 C 355.209381 78.412292 354.652771 78.603836 354.296295 78.716774 C 353.939819 78.829712 353.348175 78.996887 352.981476 79.088272 C 352.614807 79.179657 352.048126 79.305908 351.722229 79.368835 C 351.396301 79.431763 350.854645 79.524216 350.518524 79.57428 C 350.182404 79.624359 349.66922 79.69136 349.378113 79.723175 C 349.087036 79.755005 348.411987 79.796524 347.878113 79.81546 C 347.344208 79.834404 346.28241 79.848236 345.518524 79.846207 C 344.658783 79.843918 343.932068 79.823395 343.611115 79.792328 C 343.325928 79.764725 342.817596 79.707855 342.481476 79.665955 C 342.145355 79.624054 341.628693 79.549088 341.333344 79.499344 C 341.037964 79.449615 340.496307 79.342476 340.129639 79.261261 C 339.762939 79.180054 339.162964 79.030495 338.796295 78.928909 C 338.429626 78.827316 337.862946 78.653854 337.537048 78.543427 C 337.211121 78.432999 336.694458 78.241936 336.388885 78.118843 C 336.083344 77.995743 335.545319 77.760551 335.193329 77.596184 C 334.841278 77.431808 334.282959 77.1521 333.952576 76.974609 C 333.622192 76.797104 333.110168 76.502792 332.814819 76.320572 C 332.51947 76.138351 332.044464 75.830315 331.759247 75.636032 C 331.47406 75.441765 330.971252 75.077789 330.641846 74.827225 C 330.3125 74.576653 329.8125 74.178108 329.530731 73.941574 C 329.249023 73.705048 328.704163 73.217255 328.319977 72.857613 C 327.935791 72.497955 327.30249 71.87014 326.912567 71.462456 C 326.522705 71.054764 325.973969 70.450195 325.693176 70.118958 C 325.412384 69.78772 324.980469 69.256287 324.733398 68.938011 C 324.486328 68.619736 324.097931 68.090973 323.870331 67.762993 C 323.642761 67.435013 323.270966 66.870377 323.044159 66.50824 C 322.817352 66.146103 322.491638 65.5961 322.320343 65.286011 C 322.149048 64.975929 321.859039 64.422226 321.675903 64.055557 C 321.492706 63.688889 321.200378 63.055557 321.026245 62.648148 C 320.852112 62.240742 320.585205 61.56477 320.433136 61.145992 C 320.281006 60.727207 320.052795 60.043877 319.925964 59.627472 C 319.799164 59.211063 319.606873 58.512035 319.498688 58.074074 C 319.390503 57.636112 319.235016 56.92778 319.153137 56.5 C 319.071228 56.07222 318.961639 55.430557 318.909546 55.074074 C 318.857452 54.71759 318.782593 54.125923 318.743164 53.759262 C 318.703735 53.392593 318.649567 52.759262 318.622803 52.351852 C 318.594116 51.915634 318.574066 50.91832 318.574066 49.925926 C 318.574066 48.948303 318.594116 47.9375 318.621826 47.518517 C 318.648102 47.1213 318.702576 46.487968 318.74295 46.111115 C 318.783264 45.734261 318.858765 45.134262 318.910706 44.777779 C 318.962646 44.421295 319.062744 43.821297 319.133209 43.444443 C 319.203644 43.067589 319.327942 42.475929 319.409424 42.129631 C 319.490936 41.783333 319.640289 41.204491 319.741425 40.843315 C 319.842529 40.482132 320.048798 39.823799 320.199829 39.380356 C 320.35083 38.936897 320.582428 38.298935 320.714447 37.962646 C 320.846466 37.626366 321.063843 37.107162 321.197449 36.808853 C 321.331085 36.510551 321.585114 35.977364 321.761963 35.623985 C 321.938843 35.270607 322.248383 34.694031 322.449829 34.34269 C 322.651245 33.991356 322.990997 33.429214 323.204803 33.093498 C 323.418549 32.757774 323.77594 32.226181 323.998962 31.91217 C 324.222015 31.598152 324.591064 31.101959 324.819153 30.809509 C 325.047241 30.517052 325.470581 30.002777 325.759949 29.666664 C 326.049286 29.330559 326.564911 28.763885 326.905823 28.40741 C 327.246674 28.050926 327.7948 27.504112 328.123871 27.192276 C 328.452972 26.880432 328.972229 26.4132 329.277771 26.153984 C 329.583344 25.894768 330.049988 25.515587 330.314819 25.311371 C 330.579651 25.10714 331.023102 24.779655 331.300323 24.583626 C 331.577515 24.387589 332.053101 24.069839 332.357147 23.877525 C 332.661194 23.685211 333.161102 23.385437 333.467987 23.211342 C 333.774933 23.037262 334.291016 22.762306 334.614868 22.600327 C 334.938721 22.438347 335.501526 22.178497 335.865479 22.022865 C 336.229492 21.867241 336.846619 21.625092 337.236877 21.484749 C 337.627106 21.344398 338.262268 21.135689 338.648254 21.020935 C 339.034302 20.906181 339.642181 20.744804 339.999146 20.662308 C 340.356079 20.579819 340.914825 20.463722 341.240753 20.404327 C 341.56665 20.344933 342.141663 20.255707 342.518524 20.206055 C 342.895355 20.156395 343.562042 20.086823 344 20.051445 C 344.568237 20.005531 345.194092 19.987213 346.185181 19.98745 C 347.154724 19.987686 347.820099 20.007011 348.388885 20.051445 C 348.837036 20.086456 349.520355 20.155319 349.90741 20.20446 C 350.294464 20.253616 350.89447 20.342857 351.240753 20.402771 C 351.587036 20.462685 352.170349 20.580902 352.537048 20.665474 C 352.903717 20.750053 353.495361 20.90419 353.851837 21.008003 C 354.208344 21.111816 354.791656 21.301079 355.148163 21.428581 C 355.504639 21.556084 356.046295 21.767853 356.351837 21.899162 C 356.65741 22.030479 357.199066 22.283974 357.555542 22.462463 C 357.912048 22.640961 358.445374 22.929459 358.740753 23.103577 C 359.036102 23.277695 359.477783 23.553535 359.722229 23.71656 C 359.966644 23.879585 360.391663 24.182365 360.666656 24.389412 C 360.94165 24.596466 361.399994 24.967285 361.685181 25.21347 C 361.970367 25.459648 362.438324 25.891495 362.725067 26.173134 C 363.011871 26.454765 363.44519 26.899071 363.688049 27.160492 C 364.129639 27.635788 364.129639 27.635788 364.303772 27.588463 C 364.477722 27.541206 364.477966 27.540871 364.49826 27.353905 C 364.509491 27.250923 364.54361 26.625 364.574188 25.962959 C 364.604736 25.300926 364.6297 24.035881 364.629669 23.151741 L 364.629639 21.544228 Z M 507.585083 21.555557 C 507.62146 21.943054 507.641541 23.60556 507.653137 25.5 C 507.664764 27.39444 507.661499 40.048615 507.645905 53.620369 L 507.617523 78.296295 L 500.313416 78.296295 C 493.009247 78.296295 493.009247 78.296295 492.986115 78.180557 C 492.973389 78.116898 492.962952 76.72438 492.962952 75.086075 C 492.962952 72.10733 492.962952 72.10733 492.824066 72.049286 C 492.685181 71.991234 492.685181 71.991234 492.342133 72.351395 C 492.153442 72.549492 491.825592 72.897293 491.613556 73.124298 C 491.401581 73.351303 490.919281 73.825867 490.541779 74.178879 C 490.164307 74.531891 489.642151 74.988083 489.381439 75.192635 C 489.120728 75.397186 488.674072 75.72718 488.388885 75.925949 C 488.103699 76.124725 487.647339 76.423935 487.374786 76.590874 C 487.102203 76.757813 486.575165 77.051857 486.203522 77.244293 C 485.831848 77.436737 485.263214 77.712349 484.939819 77.856766 C 484.616425 78.00119 484.068512 78.22393 483.722229 78.351761 C 483.375946 78.479584 482.816559 78.669098 482.479156 78.772903 C 482.141785 78.876709 481.587524 79.029152 481.247437 79.111679 C 480.907379 79.194199 480.375061 79.31131 480.064575 79.371918 C 479.754059 79.432526 479.225006 79.523338 478.888885 79.573723 C 478.552765 79.6241 478.043762 79.690895 477.757782 79.722153 C 477.471741 79.753418 476.788452 79.794952 476.239258 79.814453 C 475.690063 79.833969 474.624054 79.848068 473.870361 79.845779 C 473.116669 79.843506 472.341644 79.826996 472.148163 79.809105 C 471.954651 79.791214 471.504639 79.743027 471.148163 79.702019 C 470.791656 79.661011 470.233337 79.585571 469.90741 79.534378 C 469.581482 79.483177 469.00647 79.374641 468.629639 79.29319 C 468.252777 79.211731 467.64447 79.062798 467.277771 78.962219 C 466.911102 78.861649 466.319458 78.681107 465.962952 78.561035 C 465.606476 78.440948 465.023163 78.225647 464.666656 78.082573 C 464.310181 77.939499 463.702728 77.670349 463.316772 77.484451 C 462.930847 77.298561 462.355835 77.002449 462.039001 76.826431 C 461.722198 76.650406 461.212952 76.348663 460.90741 76.155876 C 460.601837 75.963089 460.135193 75.65451 459.870361 75.470139 C 459.60553 75.285767 459.172241 74.968353 458.90741 74.764786 C 458.642578 74.561203 458.242584 74.242188 458.018524 74.055855 C 457.794464 73.869522 457.411102 73.536896 457.166656 73.316681 C 456.922241 73.096481 456.438873 72.639847 456.09259 72.301933 C 455.746307 71.96402 455.244751 71.451965 454.978058 71.164017 C 454.711334 70.876068 454.302307 70.417206 454.069092 70.144318 C 453.835876 69.871429 453.484131 69.445267 453.287445 69.197311 C 453.090759 68.949341 452.756897 68.507683 452.545532 68.21582 C 452.334167 67.923973 452.011292 67.46019 451.828064 67.185181 C 451.644806 66.910187 451.335754 66.418518 451.141266 66.09259 C 450.946808 65.766663 450.652893 65.25 450.488129 64.944443 C 450.323395 64.638885 450.044495 64.08889 449.868378 63.722221 C 449.692261 63.355556 449.39798 62.688889 449.214386 62.240742 C 449.030792 61.792595 448.764893 61.092594 448.623505 60.685184 C 448.482147 60.277779 448.285095 59.66111 448.185577 59.314816 C 448.08609 58.968521 447.929901 58.385185 447.83847 58.01852 C 447.74704 57.651852 447.605347 57.001854 447.523621 56.574074 C 447.441864 56.146294 447.331665 55.505356 447.278717 55.149765 C 447.225769 54.794174 447.150269 54.210846 447.110992 53.85347 C 447.071716 53.496101 447.011292 52.7537 446.976624 52.203705 C 446.924805 51.379967 446.917816 50.874023 446.936981 49.333336 C 446.955109 47.87709 446.97641 47.303047 447.033234 46.740738 C 447.073364 46.343521 447.141357 45.743515 447.184326 45.40741 C 447.227295 45.071297 447.320374 44.449944 447.391205 44.026611 C 447.462036 43.603287 447.5784 42.986618 447.649933 42.656242 C 447.721405 42.325867 447.855286 41.763885 447.94751 41.40741 C 448.039703 41.050926 448.198853 40.484917 448.301147 40.149605 C 448.403473 39.814301 448.578949 39.28183 448.691162 38.966347 C 448.803345 38.650864 448.994141 38.144775 449.115173 37.841728 C 449.236145 37.538673 449.460754 37.01281 449.614288 36.673141 C 449.767792 36.333466 450.044342 35.763885 450.228851 35.40741 C 450.41333 35.050926 450.720886 34.488808 450.912292 34.158249 C 451.103729 33.827698 451.425385 33.300743 451.627106 32.987259 C 451.828766 32.673767 452.188812 32.145416 452.427124 31.813141 C 452.665436 31.480865 453.086548 30.924492 453.362915 30.576729 C 453.639252 30.228966 454.048309 29.736115 454.271912 29.481483 C 454.495544 29.226852 454.930023 28.753212 455.237366 28.42894 C 455.544769 28.104668 456.162964 27.498016 456.611115 27.080818 C 457.059235 26.663628 457.684235 26.11055 458 25.851753 C 458.315765 25.592957 458.807404 25.206779 459.09259 24.993584 C 459.377777 24.78038 459.861115 24.438919 460.166656 24.234772 C 460.472229 24.030624 461.004028 23.694427 461.34845 23.487656 C 461.692902 23.280876 462.426208 22.886734 462.978088 22.611778 C 463.529938 22.336823 464.231476 22.01001 464.537048 21.885544 C 464.84259 21.76107 465.367584 21.560791 465.703705 21.440475 C 466.039825 21.32016 466.593811 21.138565 466.934814 21.036926 C 467.275818 20.935287 467.825806 20.787102 468.157043 20.707626 C 468.488251 20.628143 469.075928 20.504097 469.462952 20.431953 C 469.850006 20.359818 470.491669 20.258629 470.888885 20.207077 C 471.286102 20.155533 471.961121 20.084869 472.388885 20.050041 C 472.93927 20.005234 473.567322 19.9869 474.537048 19.987335 C 475.479309 19.987747 476.161957 20.007652 476.722229 20.051056 C 477.170349 20.085762 477.812042 20.147423 478.148163 20.188087 C 478.484253 20.228745 479.059235 20.312614 479.425934 20.374466 C 479.792603 20.436317 480.417603 20.560257 480.814819 20.649895 C 481.212036 20.739532 481.84848 20.903847 482.229156 21.015053 C 482.609894 21.126259 483.219604 21.325531 483.584198 21.457893 C 483.948761 21.590248 484.537292 21.825981 484.892029 21.981743 C 485.246796 22.137497 485.83847 22.420883 486.206848 22.611481 C 486.575256 22.802086 487.108612 23.102425 487.392029 23.2789 C 487.675507 23.455383 488.149078 23.768898 488.444458 23.975594 C 488.739807 24.182304 489.228851 24.54863 489.531128 24.789658 C 489.833466 25.030701 490.383453 25.517349 490.753357 25.871109 C 491.12326 26.224869 491.692596 26.806343 492.018524 27.163269 C 492.555054 27.750832 492.62085 27.810677 492.714081 27.795708 C 492.770721 27.786621 492.849884 27.761612 492.890015 27.740135 C 492.96167 27.701797 492.962952 27.647987 492.962952 24.744072 C 492.962952 23.117706 492.973389 21.734955 492.986115 21.671295 C 493.009247 21.555557 493.009247 21.555557 500.29715 21.555557 L 507.585083 21.555557 Z M 132.678345 78.307793 C 132.641083 77.997498 132.630264 65.315742 132.630264 49.925926 C 132.630264 34.536118 132.640793 21.856941 132.653625 21.75 L 132.676987 21.555557 L 139.963089 21.555557 C 147.249191 21.555557 147.249191 21.555557 147.272736 21.727394 C 147.285706 21.821907 147.296295 22.168022 147.296295 22.496544 C 147.296295 22.825066 147.313354 23.360245 147.334198 23.685822 C 147.355057 24.011391 147.387527 24.393974 147.406387 24.535988 C 147.427765 24.697151 147.427277 24.898994 147.40506 25.073029 C 147.385483 25.226379 147.353149 25.635185 147.333206 25.981483 C 147.313263 26.327782 147.307083 26.711945 147.319489 26.835175 C 147.342041 27.059258 147.342041 27.059258 147.513611 27.105164 C 147.607986 27.130409 147.712662 27.154579 147.746231 27.158867 C 147.784805 27.163788 147.943039 26.996162 148.175903 26.703705 C 148.378647 26.449074 148.767838 26.007576 149.040787 25.722603 C 149.313721 25.437614 149.787033 24.973335 150.09259 24.690857 C 150.398148 24.408379 150.856476 24.017868 151.111115 23.823051 C 151.365738 23.628242 151.812485 23.312988 152.103882 23.12249 C 152.395279 22.931984 152.92218 22.619965 153.274796 22.4291 C 153.62738 22.238235 154.205643 21.953514 154.559784 21.796371 C 154.913956 21.639221 155.453705 21.420464 155.759262 21.310242 C 156.064819 21.200005 156.570908 21.034081 156.883911 20.941505 C 157.196945 20.848938 157.73027 20.708832 158.069107 20.630165 C 158.407944 20.551483 158.976852 20.43663 159.333328 20.374916 C 159.689819 20.313202 160.25647 20.228706 160.59259 20.187126 C 160.928711 20.145546 161.595383 20.083778 162.074081 20.04985 C 162.786835 19.999336 163.249619 19.992447 164.629623 20.01178 C 165.959778 20.030418 166.439667 20.050606 166.90741 20.10762 C 167.233322 20.147346 167.766678 20.221832 168.09259 20.273148 C 168.418518 20.324463 168.985184 20.43232 169.351852 20.512833 C 169.718521 20.593346 170.318527 20.74527 170.685181 20.850456 C 171.051849 20.95565 171.610184 21.134117 171.925919 21.24704 C 172.241669 21.35997 172.728027 21.549919 173.006729 21.669144 C 173.285431 21.788368 173.785431 22.022003 174.117844 22.188316 C 174.450256 22.354637 174.963882 22.632996 175.259262 22.806892 C 175.554626 22.980782 176.004623 23.265373 176.259262 23.439308 C 176.513885 23.613243 176.913879 23.899757 177.148148 24.075996 C 177.382416 24.252251 177.762894 24.557114 177.993668 24.753471 C 178.224442 24.949837 178.650177 25.33519 178.939743 25.609818 C 179.229309 25.884453 179.684937 26.347084 179.95224 26.637901 C 180.219559 26.928719 180.587189 27.349998 180.76918 27.574074 C 180.951202 27.798149 181.265503 28.214813 181.467606 28.5 C 181.669739 28.785187 181.994614 29.276855 182.18956 29.59259 C 182.384491 29.908333 182.687363 30.441666 182.862564 30.777779 C 183.037766 31.113884 183.300766 31.655556 183.447006 31.981483 C 183.593262 32.307411 183.810074 32.827499 183.928833 33.137253 C 184.047592 33.447006 184.244736 34.022003 184.366928 34.415031 C 184.48912 34.80806 184.663513 35.429634 184.754517 35.796295 C 184.845505 36.162956 184.979416 36.76297 185.052109 37.129631 C 185.124786 37.496292 185.226395 38.07621 185.277908 38.418312 C 185.329422 38.760429 185.403793 39.335419 185.443146 39.696091 C 185.482513 40.056755 185.540817 40.935188 185.572739 41.648148 C 185.620667 42.718742 185.633682 44.58886 185.647552 52.388885 C 185.656769 57.583332 185.653793 65.520248 185.6409 70.026482 L 185.617462 78.21962 L 184.771652 78.233498 C 184.306458 78.241135 181.032608 78.260941 177.496399 78.277534 C 171.993912 78.303345 171.062225 78.300201 171.034058 78.255692 C 171.015121 78.225784 171.001114 74.767456 171.001114 70.111115 C 171.001099 65.660187 170.984177 57.851852 170.963501 52.759262 C 170.926544 43.651756 170.924637 43.490898 170.847946 42.944443 C 170.805069 42.638885 170.721405 42.155556 170.662079 41.870369 C 170.602722 41.58519 170.485352 41.118515 170.401245 40.833336 C 170.317123 40.548149 170.165314 40.106483 170.063828 39.851852 C 169.962341 39.597221 169.805649 39.241714 169.715561 39.061829 C 169.625504 38.88195 169.447815 38.565285 169.320694 38.358124 C 169.193558 38.15097 168.966827 37.815689 168.816864 37.613052 C 168.666534 37.409981 168.26828 36.969078 167.929489 36.630661 C 167.496597 36.19825 167.18338 35.922966 166.870377 35.699806 C 166.625916 35.525528 166.236069 35.269295 166.004028 35.130409 C 165.772003 34.991508 165.369766 34.780769 165.110184 34.662094 C 164.850601 34.543411 164.450455 34.379333 164.220978 34.29747 C 163.991501 34.215614 163.611389 34.098335 163.376282 34.036858 C 163.141205 33.97538 162.722855 33.882896 162.446655 33.831329 C 162.170425 33.779755 161.677765 33.713486 161.351852 33.684052 C 161.013535 33.653511 160.328506 33.630341 159.755371 33.630089 C 159.203247 33.629837 158.536591 33.646454 158.273895 33.66703 C 158.011215 33.687592 157.571289 33.739189 157.296295 33.781685 C 157.021301 33.824181 156.554626 33.91626 156.259262 33.986313 C 155.963882 34.056358 155.522232 34.17897 155.277771 34.258781 C 155.033325 34.338585 154.591675 34.510361 154.296295 34.640511 C 154.000916 34.770653 153.48848 35.029449 153.157532 35.215622 C 152.826599 35.401794 152.368271 35.690559 152.139023 35.857315 C 151.909775 36.024078 151.555557 36.308769 151.351852 36.489952 C 151.148148 36.671143 150.813309 36.99884 150.607788 37.218163 C 150.402252 37.437492 150.084305 37.815628 149.90123 38.058464 C 149.71814 38.301315 149.445648 38.708336 149.29567 38.962959 C 149.145691 39.21759 148.899551 39.68325 148.748672 39.997757 C 148.597809 40.312263 148.393646 40.795601 148.294968 41.071831 C 148.196304 41.348061 148.055038 41.789604 147.981033 42.053032 C 147.907059 42.31646 147.798782 42.758125 147.740448 43.034515 C 147.682098 43.310898 147.600815 43.745369 147.559799 44 C 147.518799 44.254631 147.45929 44.712959 147.427567 45.018517 C 147.395859 45.324074 147.357498 45.799072 147.342361 46.074074 C 147.327209 46.349075 147.325623 46.740738 147.338821 46.944443 C 147.35202 47.148148 147.380188 47.423149 147.401413 47.555557 C 147.425858 47.708145 147.427643 47.857323 147.406265 47.962959 C 147.387268 48.05677 147.356003 51.736122 147.334732 56.379623 C 147.31395 60.917114 147.292053 67.679352 147.286087 71.40683 C 147.278229 76.306412 147.26384 78.195419 147.234146 78.225113 C 147.204498 78.254761 145.174789 78.271973 139.935715 78.286987 L 132.678345 78.307793 Z M 278.427002 78.166672 C 275.486969 70.429901 273.148621 64.27597 271.333862 59.49979 C 269.519135 54.723618 266.826691 47.632256 265.350647 43.741203 C 263.874634 39.850143 261.47348 33.520752 260.014801 29.675873 C 258.556091 25.830994 257.273956 22.44352 257.165588 22.148148 L 256.968536 21.611115 L 258.437988 21.588364 C 259.246155 21.575859 262.859833 21.563347 266.468384 21.560585 L 273.029327 21.555557 L 273.176483 21.972221 C 273.257416 22.201385 274.084137 24.576401 275.013611 27.250015 C 275.943115 29.92363 277.445251 34.244492 278.351685 36.851913 C 279.258087 39.459343 280.874817 44.109322 281.944397 47.185196 C 283.014008 50.261078 284.240814 53.790222 284.670685 55.02774 C 285.100525 56.265259 285.559052 57.58186 285.689606 57.953518 C 285.82016 58.325176 286.011902 58.871006 286.115692 59.166481 L 286.304382 59.703705 L 286.811249 59.703705 L 287.318115 59.703705 L 288.049652 57.611702 C 288.451996 56.461105 289.155365 54.44442 289.612701 53.130188 C 290.070038 51.815948 290.84436 49.590714 291.333435 48.185219 C 291.822479 46.779716 292.588867 44.579628 293.03656 43.296127 C 293.484222 42.012627 294.384216 39.429291 295.03656 37.555389 C 295.688904 35.681488 296.788544 32.523018 297.480194 30.536583 C 298.171844 28.550148 299.158142 25.716782 299.671936 24.240219 L 300.60611 21.555557 L 305.941956 21.55558 C 308.876678 21.555603 312.490509 21.566681 313.972809 21.580193 C 316.667786 21.604782 316.667786 21.604782 316.644348 21.682022 C 316.631439 21.724503 315.564453 24.54673 314.273254 27.953644 C 312.982056 31.36055 310.825897 37.048141 309.481812 40.59272 C 308.137726 44.137306 306.170898 49.320572 305.111053 52.111092 C 304.051208 54.901604 302.192902 59.793282 300.981476 62.981472 C 299.77002 66.169662 297.989044 70.857254 297.023743 73.398346 C 296.058441 75.939445 295.242371 78.081024 295.210297 78.15741 C 295.151917 78.296295 295.151917 78.296295 290.28894 78.290337 C 287.614288 78.287064 284.492584 78.271011 283.351837 78.254669 C 282.211121 78.238327 280.636353 78.211845 279.852386 78.195816 L 278.427002 78.166672 Z M 349.240753 65.900139 C 349.729645 65.892426 350.387939 65.860962 350.703705 65.830215 C 351.01947 65.799469 351.486115 65.741554 351.740753 65.701508 C 351.995361 65.661453 352.437042 65.577415 352.722229 65.51474 C 353.007416 65.452057 353.490753 65.325577 353.796295 65.233673 C 354.101837 65.141754 354.585175 64.978859 354.870361 64.871674 C 355.155548 64.764496 355.602509 64.575172 355.863617 64.450974 C 356.124725 64.326767 356.541382 64.113083 356.78952 63.97612 C 357.037689 63.839157 357.465759 63.577202 357.740753 63.394001 C 358.015747 63.210796 358.432404 62.911015 358.666656 62.727814 C 358.90094 62.544609 359.27594 62.232491 359.5 62.03421 C 359.72406 61.835934 360.058167 61.517952 360.242401 61.327591 C 360.426636 61.13723 360.728058 60.806484 360.912231 60.592594 C 361.096405 60.378704 361.390381 60.010639 361.565552 59.774666 C 361.740692 59.538696 362.032104 59.113697 362.213104 58.830223 C 362.394104 58.546749 362.654327 58.098148 362.791351 57.833332 C 362.928375 57.568516 363.154999 57.085186 363.294891 56.759262 C 363.434784 56.433334 363.635345 55.908859 363.74057 55.593765 C 363.845825 55.278664 363.998871 54.745331 364.08078 54.408577 C 364.162659 54.071823 364.278351 53.512962 364.337891 53.166664 C 364.39743 52.820374 364.478882 52.178703 364.518921 51.740738 C 364.567993 51.203751 364.591858 50.640869 364.592163 50.012207 C 364.592407 49.499474 364.574829 48.824478 364.553131 48.512207 C 364.531464 48.199936 364.473969 47.644447 364.425385 47.277779 C 364.376801 46.91111 364.2771 46.327774 364.203827 45.981483 C 364.130524 45.635185 363.994507 45.093513 363.90152 44.777779 C 363.808563 44.462044 363.641418 43.963188 363.530151 43.669235 C 363.418884 43.375275 363.226196 42.916939 363.10199 42.650719 C 362.977814 42.384483 362.761658 41.961281 362.621674 41.710251 C 362.481659 41.459229 362.228668 41.042564 362.059418 40.784325 C 361.890198 40.526093 361.628448 40.15419 361.477722 39.957863 C 361.326996 39.761528 360.957062 39.334564 360.655609 39.009041 C 360.354126 38.683525 359.830444 38.160881 359.491821 37.847626 C 359.153198 37.53437 358.708191 37.15181 358.502899 36.997505 C 358.297607 36.843201 357.954651 36.600327 357.740753 36.457794 C 357.526825 36.315269 357.13559 36.076904 356.871277 35.928108 C 356.606964 35.779312 356.170258 35.552818 355.900787 35.424789 C 355.631378 35.296761 355.164185 35.099083 354.862579 34.985535 C 354.561066 34.871971 354.056091 34.703011 353.740479 34.610046 C 353.424866 34.51709 352.899994 34.384521 352.574066 34.31546 C 352.248169 34.246391 351.731476 34.154442 351.425934 34.11113 C 351.120361 34.067818 350.520355 34.011002 350.09259 33.984879 C 349.664825 33.958755 349.014832 33.942802 348.648163 33.949409 C 348.281464 33.956017 347.69812 33.979477 347.351837 34.001534 C 347.005585 34.023598 346.454651 34.081696 346.127594 34.130653 C 345.800568 34.179596 345.300568 34.271179 345.016479 34.33416 C 344.732422 34.397148 344.245239 34.523369 343.933807 34.614655 C 343.622437 34.70594 343.114105 34.878258 342.804169 34.997589 C 342.494293 35.116905 342.032227 35.313934 341.777405 35.43541 C 341.522583 35.556892 341.114258 35.769585 340.869995 35.908058 C 340.625763 36.046539 340.234253 36.288467 340 36.445686 C 339.765747 36.602898 339.374054 36.886124 339.129639 37.075081 C 338.885193 37.264023 338.428497 37.661926 338.114777 37.959312 C 337.801025 38.256691 337.325012 38.741661 337.056915 39.037041 C 336.788879 39.332413 336.419922 39.774071 336.237061 40.018517 C 336.054169 40.26297 335.787048 40.646294 335.643372 40.870369 C 335.499756 41.094444 335.272644 41.477776 335.138794 41.722221 C 335.004883 41.966667 334.795258 42.383591 334.672882 42.648727 C 334.550568 42.913857 334.365509 43.35746 334.261688 43.634514 C 334.157837 43.91156 333.998169 44.389923 333.90683 44.69754 C 333.815491 45.005157 333.690277 45.486549 333.628632 45.767303 C 333.566925 46.048065 333.475189 46.527405 333.424805 46.832504 C 333.37442 47.137596 333.305542 47.712593 333.271759 48.110283 C 333.221283 48.704857 333.214478 49.106445 333.233429 50.370369 C 333.251923 51.603737 333.270874 52.00985 333.329346 52.425926 C 333.369415 52.711113 333.436096 53.131203 333.477417 53.359467 C 333.518799 53.587723 333.602203 53.987724 333.662811 54.248352 C 333.723389 54.50898 333.830444 54.915291 333.900635 55.15126 C 333.970886 55.387238 334.115967 55.820122 334.222992 56.113228 C 334.330048 56.406334 334.537872 56.904938 334.684814 57.221222 C 334.831757 57.53751 335.093994 58.046295 335.267609 58.351852 C 335.441223 58.657406 335.720306 59.107407 335.887817 59.351852 C 336.055298 59.596294 336.380676 60.029633 336.61087 60.314816 C 336.841034 60.599998 337.248688 61.061954 337.516785 61.341373 C 337.784821 61.620796 338.215759 62.030266 338.474335 62.251308 C 338.73288 62.472343 339.114655 62.781368 339.322693 62.938023 C 339.530731 63.094681 339.889069 63.345322 340.118988 63.49501 C 340.348907 63.644695 340.757294 63.887455 341.02655 64.034477 C 341.295776 64.181503 341.75412 64.410202 342.045074 64.542709 C 342.335999 64.675201 342.796356 64.864868 343.068085 64.964172 C 343.339783 65.063469 343.764771 65.202751 344.012512 65.273682 C 344.260284 65.344604 344.653717 65.44561 344.886871 65.498123 C 345.119995 65.550644 345.553345 65.634384 345.849823 65.684204 C 346.146301 65.734032 346.638885 65.800735 346.944458 65.832443 C 347.25 65.864151 347.69165 65.895508 347.925934 65.902122 C 348.160187 65.908737 348.751831 65.907845 349.240753 65.900139 Z M 477.611115 65.899857 C 478.100006 65.892044 478.758331 65.860336 479.074066 65.829407 C 479.389832 65.79847 479.931488 65.725113 480.277771 65.666382 C 480.624054 65.607658 481.140778 65.502182 481.426025 65.431999 C 481.711273 65.361816 482.169586 65.233459 482.44455 65.146774 C 482.719482 65.060081 483.211121 64.881195 483.537048 64.749252 C 483.862946 64.61731 484.325531 64.411263 484.564972 64.291367 C 484.804352 64.171478 485.187683 63.962692 485.416809 63.827415 C 485.645905 63.692135 486.049988 63.430584 486.314819 63.246193 C 486.579651 63.061798 487.004639 62.744728 487.259247 62.541584 C 487.513885 62.338444 487.911682 61.987648 488.143219 61.762043 C 488.374756 61.536442 488.749756 61.151382 488.976563 60.906364 C 489.203339 60.661346 489.556824 60.244678 489.762054 59.980438 C 489.967255 59.716194 490.285767 59.266666 490.469849 58.98148 C 490.6539 58.696297 490.929443 58.22963 491.082184 57.944443 C 491.234924 57.65926 491.472656 57.167595 491.610413 56.851852 C 491.74823 56.53611 491.951141 56.011116 492.06131 55.685188 C 492.171509 55.359261 492.33609 54.797562 492.427032 54.436974 C 492.518005 54.076385 492.642517 53.476387 492.703705 53.103645 C 492.764893 52.730896 492.845703 52.034264 492.88324 51.555557 C 492.932098 50.932663 492.947845 50.427177 492.938507 49.777779 C 492.931396 49.278702 492.900543 48.541435 492.869965 48.139397 C 492.839447 47.737366 492.773376 47.153847 492.723175 46.842697 C 492.672913 46.531548 492.581055 46.052155 492.518951 45.777374 C 492.456879 45.502594 492.338318 45.045891 492.255493 44.762466 C 492.172699 44.47905 492.033905 44.054001 491.947083 43.817909 C 491.860229 43.581802 491.694 43.173523 491.577667 42.910599 C 491.461304 42.647675 491.255127 42.222725 491.119537 41.966278 C 490.983948 41.709824 490.745361 41.298843 490.589386 41.052994 C 490.43338 40.807144 490.15918 40.407143 489.980042 40.164108 C 489.800842 39.921074 489.466522 39.505554 489.23703 39.240738 C 489.007538 38.975929 488.622833 38.566124 488.38208 38.33007 C 488.141388 38.094009 487.76947 37.750946 487.555542 37.567696 C 487.341644 37.38446 486.99646 37.106621 486.788422 36.950279 C 486.580353 36.793945 486.213684 36.53756 485.973602 36.380554 C 485.733459 36.223534 485.31546 35.974678 485.044678 35.827538 C 484.773865 35.680405 484.315552 35.452362 484.026154 35.320793 C 483.736755 35.189217 483.266663 34.997757 482.981476 34.895317 C 482.696289 34.792877 482.221283 34.641373 481.925934 34.558647 C 481.630585 34.475922 481.10553 34.350937 480.759247 34.280899 C 480.412964 34.210869 479.81366 34.114845 479.42749 34.067528 C 478.794586 33.989975 478.571655 33.981491 477.168213 33.981575 C 475.671906 33.981651 475.580811 33.98571 474.835297 34.085464 C 474.4086 34.14257 473.791931 34.247299 473.464905 34.318207 C 473.137909 34.389107 472.612061 34.522697 472.296295 34.615074 C 471.98053 34.707451 471.48053 34.874512 471.185181 34.986328 C 470.889832 35.098145 470.40741 35.305771 470.113129 35.447723 C 469.818909 35.589684 469.385559 35.816261 469.150177 35.951233 C 468.914795 36.086212 468.553314 36.309807 468.346893 36.448105 C 468.140472 36.586411 467.815491 36.818298 467.624664 36.963417 C 467.433868 37.108528 467.036102 37.442566 466.740753 37.705711 C 466.445374 37.968857 465.986145 38.413567 465.720276 38.693939 C 465.454376 38.974312 465.077576 39.403702 464.882965 39.648148 C 464.688324 39.892593 464.38736 40.300926 464.214203 40.555557 C 464.041016 40.810188 463.763733 41.26104 463.598022 41.557457 C 463.432281 41.853867 463.171356 42.366699 463.018188 42.697075 C 462.865051 43.027443 462.656616 43.526054 462.555023 43.805084 C 462.4534 44.084122 462.303864 44.546288 462.222595 44.83213 C 462.141357 45.117981 462.02417 45.584 461.962158 45.867737 C 461.900177 46.151482 461.809021 46.651482 461.759613 46.978851 C 461.710205 47.306221 461.648254 47.832405 461.621918 48.148148 C 461.595184 48.468933 461.574066 49.269661 461.574066 49.962959 C 461.574066 50.68261 461.594543 51.437027 461.622833 51.759262 C 461.649628 52.064812 461.71283 52.579773 461.763275 52.903603 C 461.813721 53.227432 461.905823 53.727432 461.967957 54.014709 C 462.03009 54.301994 462.15451 54.787041 462.244476 55.09259 C 462.334381 55.398148 462.493774 55.881485 462.598663 56.166664 C 462.703552 56.451851 462.888214 56.901848 463.009003 57.166668 C 463.129822 57.431484 463.337311 57.846317 463.470123 58.08852 C 463.602936 58.330723 463.829071 58.714062 463.972656 58.940372 C 464.116241 59.166683 464.394653 59.568596 464.591278 59.833504 C 464.787933 60.098412 465.133423 60.523411 465.359009 60.77795 C 465.584625 61.032486 465.958618 61.425098 466.190155 61.650421 C 466.421692 61.875748 466.777771 62.202045 466.981476 62.37553 C 467.185181 62.549015 467.518524 62.815628 467.722229 62.96801 C 467.925934 63.120384 468.27594 63.363667 468.5 63.508625 C 468.72406 63.653587 469.132416 63.894756 469.40741 64.044556 C 469.682404 64.194351 470.140747 64.423035 470.425934 64.552734 C 470.711121 64.682442 471.14447 64.862381 471.388885 64.952621 C 471.633331 65.042847 472.049988 65.180023 472.314819 65.257446 C 472.579651 65.334869 473.029633 65.450226 473.314819 65.513786 C 473.600006 65.577347 474.100006 65.669998 474.425934 65.719681 C 474.751831 65.769356 475.235168 65.828537 475.5 65.851196 C 475.764832 65.873856 476.148163 65.89727 476.351837 65.903229 C 476.555542 65.909195 477.122223 65.907684 477.611115 65.899857 Z M 225.370377 65.536179 C 226.658997 65.524994 226.994202 65.510735 227.444443 65.447983 C 227.739822 65.40683 228.198151 65.330299 228.462967 65.277931 C 228.727768 65.225571 229.168289 65.124176 229.441895 65.052612 C 229.715469 64.981049 230.158585 64.849243 230.426544 64.75972 C 230.694519 64.670197 231.104004 64.515213 231.336517 64.415329 C 231.569031 64.31543 231.994507 64.116341 232.282013 63.972897 C 232.569534 63.829453 233.002853 63.591999 233.24498 63.445217 C 233.487091 63.298439 233.860184 63.055279 234.074081 62.904861 C 234.287964 62.754448 234.646301 62.486141 234.870377 62.308628 C 235.094437 62.131119 235.637772 61.62656 236.077744 61.187386 C 236.517715 60.748215 237.038147 60.190258 237.234207 59.947487 C 237.430283 59.704716 237.728531 59.304714 237.896988 59.058598 C 238.065445 58.812481 238.307343 58.438213 238.434555 58.226902 C 238.561752 58.015583 238.77269 57.632252 238.90329 57.37505 C 239.03389 57.117847 239.224625 56.707405 239.327133 56.462959 C 239.429657 56.218521 239.597885 55.77076 239.700989 55.467934 C 239.804092 55.165108 239.962173 54.623444 240.052261 54.264229 C 240.14238 53.905014 240.268051 53.30278 240.331543 52.925926 C 240.39502 52.549072 240.467224 51.982407 240.492004 51.666664 C 240.516769 51.350922 240.537033 50.542595 240.537033 49.870369 C 240.537033 48.984505 240.519531 48.474869 240.47345 48.018517 C 240.438477 47.672226 240.366196 47.130554 240.312851 46.814812 C 240.259476 46.499077 240.142288 45.947395 240.052444 45.58886 C 239.962585 45.230331 239.798965 44.672005 239.688873 44.348129 C 239.578781 44.024254 239.389999 43.541344 239.269348 43.274986 C 239.148727 43.008636 238.924805 42.550301 238.771774 42.256462 C 238.618744 41.962639 238.398407 41.568459 238.28212 41.380524 C 238.165833 41.192589 237.93988 40.856094 237.780014 40.632767 C 237.620148 40.409431 237.364273 40.071526 237.211426 39.881874 C 237.058578 39.692207 236.744629 39.337044 236.513794 39.09259 C 236.282944 38.848145 235.918747 38.48378 235.704453 38.282875 C 235.490143 38.081978 235.143234 37.779678 234.933517 37.611092 C 234.723816 37.44252 234.359955 37.167442 234.124939 36.99984 C 233.889938 36.832222 233.478195 36.561996 233.209946 36.399323 C 232.941696 36.236656 232.512222 35.998062 232.255554 35.86911 C 231.998886 35.740166 231.608719 35.557716 231.388565 35.463669 C 231.168381 35.369629 230.745041 35.210724 230.44783 35.110542 C 230.150589 35.010361 229.646851 34.860847 229.328384 34.77829 C 229.009888 34.69574 228.4599 34.579521 228.106155 34.52002 C 227.75238 34.460518 227.246292 34.390007 226.981476 34.363327 C 226.678055 34.332756 225.986252 34.314812 225.110809 34.314812 C 224.027954 34.314812 223.59288 34.329239 223.137802 34.380234 C 222.816696 34.416214 222.325165 34.487747 222.045502 34.539207 C 221.765839 34.59066 221.303711 34.690681 221.018524 34.761467 C 220.733322 34.83226 220.231857 34.980614 219.904129 35.091156 C 219.576431 35.201698 219.093079 35.385803 218.830063 35.500298 C 218.567062 35.614784 218.135178 35.820816 217.870377 35.958153 C 217.60556 36.095474 217.205551 36.322327 216.981476 36.462265 C 216.757416 36.602196 216.415741 36.829361 216.222229 36.967079 C 216.028702 37.10479 215.71817 37.339371 215.532135 37.488365 C 215.346115 37.637352 214.975601 37.956543 214.708786 38.197662 C 214.441971 38.438782 214.038712 38.841103 213.812698 39.09169 C 213.586655 39.342285 213.250885 39.736664 213.066513 39.968102 C 212.882156 40.199532 212.560028 40.647224 212.350677 40.962959 C 212.141327 41.278702 211.852036 41.753723 211.707779 42.01857 C 211.563538 42.283417 211.330429 42.758415 211.189774 43.074127 C 211.049133 43.389839 210.872391 43.813911 210.797043 44.01651 C 210.72168 44.219124 210.587723 44.636749 210.49939 44.94458 C 210.411026 45.252411 210.279999 45.778313 210.208191 46.113251 C 210.136398 46.448181 210.044022 46.955559 210.002914 47.240738 C 209.961823 47.525925 209.911026 47.974182 209.89003 48.236862 C 209.869034 48.499542 209.852036 49.274544 209.852234 49.959084 C 209.852448 50.643623 209.869904 51.403702 209.891037 51.648148 C 209.912186 51.892593 209.971191 52.375923 210.022202 52.722221 C 210.073212 53.06852 210.165466 53.576851 210.227264 53.851852 C 210.289047 54.126854 210.395416 54.551849 210.463608 54.796295 C 210.53183 55.040741 210.657883 55.440742 210.743713 55.685188 C 210.829559 55.929626 210.978348 56.312958 211.074356 56.537041 C 211.17038 56.761116 211.344986 57.136112 211.462387 57.370369 C 211.579788 57.60463 211.762344 57.946297 211.868088 58.129631 C 211.973816 58.312962 212.168732 58.629631 212.301239 58.833332 C 212.433731 59.037037 212.723282 59.44537 212.944702 59.740742 C 213.251923 60.150616 213.5495 60.480133 214.201385 61.132378 C 214.671188 61.602413 215.232452 62.13105 215.4487 62.307129 C 215.664917 62.483212 216.023239 62.754337 216.244995 62.909626 C 216.466721 63.064915 216.798141 63.284847 216.981476 63.398361 C 217.164825 63.511875 217.50647 63.709274 217.740738 63.837017 C 217.975006 63.964767 218.391678 64.168533 218.666672 64.289848 C 218.941666 64.411163 219.379883 64.587593 219.640457 64.681915 C 219.901062 64.776245 220.351059 64.919235 220.640457 64.99968 C 220.929871 65.080124 221.416672 65.195663 221.722229 65.256439 C 222.027771 65.317215 222.461121 65.393372 222.685181 65.42569 C 222.909256 65.457993 223.259262 65.499077 223.462967 65.516975 C 223.666672 65.534882 224.524994 65.543518 225.370377 65.536179 Z"/>
</svg>
