<svg width="500" height="430" viewBox="0 0 500 430" fill="none" xmlns="http://www.w3.org/2000/svg">
    <g clip-path="url(#clip0_1_15922)">
        <path
            d="M146.94 424.541C154.967 417.759 159.842 407.044 158.564 396.614C157.285 386.184 149.366 376.595 139.094 374.38C128.821 372.165 117.112 378.297 113.992 388.331C112.275 368.985 110.296 348.828 100.01 332.353C90.697 317.436 74.566 306.761 57.0838 304.852C39.6015 302.942 21.1948 310.155 10.2918 323.953C-0.611284 337.752 -3.28085 357.812 4.35538 373.654C9.98071 385.324 20.3446 394.009 31.2033 401.075C66.2918 423.715 108.376 432.921 149.712 427.001"
            fill="#F2F2F2" />
        <path
            d="M27.5797 310.554C42.0047 322.304 55.2382 335.445 67.0887 349.787C85.6346 372.155 100.642 397.235 111.589 424.151C112.39 426.114 109.201 426.969 108.409 425.027C101.448 408.009 92.8357 391.715 82.6959 376.377C66.8839 352.417 47.5122 331.008 25.248 312.886C23.6019 311.546 25.9471 309.225 27.5797 310.554Z"
            fill="white" />
        <path
            d="M152.484 424.541C144.458 417.759 139.582 407.044 140.861 396.614C142.14 386.184 150.059 376.595 160.331 374.38C170.603 372.165 182.313 378.297 185.433 388.331C187.15 368.985 189.129 348.828 199.414 332.353C208.728 317.436 224.859 306.761 242.341 304.852C259.823 302.942 278.23 310.155 289.133 323.953C300.036 337.752 302.705 357.812 295.069 373.654C289.444 385.324 279.08 394.009 268.221 401.075C233.133 423.715 191.049 432.921 149.712 427.001"
            fill="#F2F2F2" />
        <path
            d="M271.845 310.554C257.42 322.304 244.186 335.445 232.336 349.787C213.79 372.155 198.782 397.235 187.836 424.151C187.035 426.114 190.223 426.969 191.016 425.027C208.926 381.283 237.518 342.727 274.177 312.886C275.823 311.546 273.478 309.225 271.845 310.554Z"
            fill="white" />
        <path
            d="M176.303 193.534C191.152 193.534 203.189 181.497 203.189 166.648C203.189 151.799 191.152 139.761 176.303 139.761C161.454 139.761 149.416 151.799 149.416 166.648C149.416 181.497 161.454 193.534 176.303 193.534Z"
            fill="#F2F2F2" />
        <path
            d="M93.4047 73.9657H278.645V84.1004H117.052C107.551 84.1004 98.1432 85.9717 89.3654 89.6076C80.5875 93.2435 72.6118 98.5727 65.8936 105.291C59.1753 112.009 53.8461 119.985 50.2102 128.763C46.5743 137.54 44.703 146.948 44.703 156.45V271.592H24.4336C23.5377 271.592 22.6784 271.236 22.0449 270.602C21.4114 269.969 21.0554 269.109 21.0554 268.213V146.315C21.0554 136.814 22.9268 127.406 26.5627 118.628C30.1986 109.85 35.5278 101.874 42.246 95.1562C48.9643 88.438 56.94 83.1088 65.7178 79.4729C74.4956 75.837 83.9036 73.9657 93.4047 73.9657Z"
            fill="#F2F2F2" />
        <path
            d="M129.035 425.104V271.158H174.134V425.104C174.133 426.139 173.722 427.131 172.99 427.863C172.258 428.594 171.266 429.006 170.232 429.007H132.938C131.903 429.006 130.911 428.594 130.179 427.863C129.447 427.131 129.036 426.139 129.035 425.104Z"
            fill="#3F3D56" />
        <path
            d="M11.5149 268.122V142.94C11.5374 123.012 19.4638 103.907 33.5551 89.8155C47.6464 75.7241 66.7519 67.7977 86.68 67.7751H277.777V272.459H15.8514C14.7017 272.458 13.5995 272 12.7865 271.187C11.9735 270.374 11.5162 269.272 11.5149 268.122ZM276.043 69.5098H86.68C67.2118 69.5318 48.5472 77.2753 34.7811 91.0415C21.015 104.808 13.2715 123.472 13.2495 142.94V268.122C13.2503 268.812 13.5246 269.474 14.0124 269.961C14.5002 270.449 15.1616 270.723 15.8514 270.724H276.043V69.5098Z"
            fill="#3F3D56" />
        <path
            d="M176.303 180.525C172.164 180.52 168.196 178.874 165.269 175.947C162.342 173.02 160.696 169.052 160.691 164.913V53.031C160.69 52.3412 160.416 51.6798 159.928 51.192C159.44 50.7042 158.779 50.4299 158.089 50.4291H97.378C96.2283 50.4278 95.1261 49.9705 94.3131 49.1575C93.5002 48.3445 93.0428 47.2423 93.0415 46.0926V5.32932C93.0428 4.17961 93.5002 3.07737 94.3131 2.2644C95.1261 1.45143 96.2283 0.994129 97.378 0.992798H187.578C188.727 0.994113 189.83 1.45142 190.643 2.26439C191.456 3.07736 191.913 4.1796 191.914 5.32932V164.913C191.91 169.052 190.263 173.02 187.337 175.947C184.41 178.874 180.442 180.52 176.303 180.525Z"
            fill="#7F56D9" />
        <path
            d="M284.716 66.0406C297.799 66.0132 310.358 71.1845 319.629 80.4168C328.901 89.6491 334.124 102.186 334.152 115.27V257.776H431.29C435.192 257.768 438.938 259.311 441.703 262.064C444.468 264.818 446.026 268.557 446.034 272.459H235.279V115.27C235.307 102.186 240.531 89.6491 249.802 80.4168C259.073 71.1845 271.632 66.0132 284.716 66.0406Z"
            fill="#3F3D56" />
        <path
            d="M272.853 147.192L283.089 189.478L483.334 141.003L473.097 98.717C472.973 98.2 472.721 97.7226 472.363 97.3291C472.006 96.9356 471.555 96.6388 471.052 96.4663C470.681 96.3357 470.288 96.2766 469.895 96.2922L354.145 36.3598C353.467 36.0135 352.687 35.9209 351.947 36.0989C351.206 36.2769 350.554 36.7138 350.107 37.3305L294.322 115.122L273.292 144.457C273.254 144.508 273.227 144.567 273.214 144.63C273.2 144.692 273.201 144.757 273.215 144.82C272.787 145.532 272.657 146.384 272.853 147.192Z"
            fill="white" />
        <path
            d="M273.215 144.82C273.224 144.875 273.245 144.927 273.275 144.974C273.306 145.021 273.345 145.062 273.391 145.094C273.445 145.131 273.506 145.157 273.571 145.169C273.636 145.182 273.702 145.182 273.767 145.168C273.871 145.14 273.963 145.076 274.026 144.988L274.098 144.888L275.193 143.357L295.079 115.634L350.848 37.86C351.166 37.4193 351.632 37.1073 352.16 36.9806C352.689 36.8539 353.245 36.9209 353.729 37.1695L468.582 96.6376L469.613 97.1725C469.654 97.19 469.697 97.205 469.74 97.2173C469.818 97.2032 469.897 97.1957 469.976 97.1948C470.084 97.1587 470.173 97.0828 470.227 96.9825C470.255 96.9297 470.272 96.8719 470.278 96.8124C470.283 96.7529 470.277 96.6929 470.26 96.6358C470.242 96.5788 470.213 96.5257 470.175 96.4797C470.137 96.4337 470.09 96.3957 470.037 96.3679L469.895 96.2922L354.145 36.3598C353.467 36.0135 352.687 35.9209 351.947 36.0989C351.206 36.2769 350.554 36.7138 350.107 37.3305L294.322 115.122L273.292 144.457C273.254 144.508 273.227 144.567 273.214 144.63C273.2 144.692 273.201 144.757 273.215 144.82Z"
            fill="#3F3D56" />
        <path
            d="M333.354 149.132L337.811 149.626L370.893 153.291L392.823 155.719L394.119 155.863L421.484 134.488L422.532 133.669L428.996 128.622L451.991 110.663L452.129 109.401L460.308 35.5816C460.42 34.5652 460.123 33.5459 459.485 32.7474C458.846 31.9489 457.916 31.4362 456.9 31.3219L347.745 19.2301C346.729 19.1191 345.71 19.4154 344.911 20.0541C344.113 20.6929 343.6 21.622 343.485 22.6379L337.717 74.7087L334.518 103.578L331.656 129.405L330.329 141.399L329.942 144.873C329.831 145.89 330.129 146.909 330.768 147.707C331.408 148.505 332.338 149.018 333.354 149.132Z"
            fill="#E6E6E6" />
        <path
            d="M363.35 84.4255L410.633 89.6624L427.401 91.519C428.141 91.601 428.89 91.5364 429.605 91.3288C430.321 91.1213 430.988 90.7748 431.57 90.3093C432.151 89.8438 432.635 89.2683 432.994 88.6158C433.353 87.9632 433.58 87.2463 433.662 86.5059C433.744 85.7656 433.68 85.0164 433.472 84.3011C433.265 83.5857 432.918 82.9183 432.453 82.3368C431.987 81.7553 431.412 81.2713 430.759 80.9122C430.107 80.5532 429.39 80.3261 428.649 80.2441L407.793 77.9343L364.602 73.1452C363.107 72.98 361.607 73.4154 360.432 74.3557C359.258 75.296 358.505 76.6642 358.339 78.1596C358.173 79.655 358.607 81.155 359.547 82.33C360.487 83.505 361.855 84.2588 363.35 84.4255Z"
            fill="white" />
        <path
            d="M360.658 105.341C360.78 105.363 360.902 105.385 361.026 105.397L415.913 111.478L425.078 112.495C426.573 112.66 428.074 112.225 429.248 111.284C430.423 110.343 431.176 108.975 431.341 107.479C431.507 105.983 431.071 104.483 430.13 103.308C429.19 102.134 427.821 101.381 426.325 101.216L413.074 99.7495L369.596 94.9318L362.279 94.121C360.816 93.9578 359.347 94.37 358.182 95.2705C357.017 96.171 356.248 97.4891 356.037 98.9463C355.827 100.404 356.191 101.885 357.053 103.079C357.916 104.272 359.208 105.084 360.658 105.341Z"
            fill="white" />
        <path
            d="M354.446 123.888C354.895 124.634 355.511 125.267 356.245 125.738C356.98 126.208 357.812 126.502 358.679 126.598L381.175 129.09L421.242 133.529L421.251 133.527L422.532 133.669L428.996 128.622C429.036 128.238 429.036 127.852 428.997 127.468C428.86 126.18 428.289 124.978 427.376 124.059C426.463 123.141 425.264 122.561 423.978 122.417L418.412 121.799L396.333 119.355L380.447 117.593L359.926 115.319C358.874 115.203 357.811 115.383 356.856 115.839C355.902 116.295 355.094 117.009 354.524 117.901C353.954 118.792 353.644 119.825 353.63 120.883C353.617 121.941 353.899 122.982 354.446 123.888Z"
            fill="white" />
        <path
            d="M386.044 58.8589L397.809 60.1619L403.005 60.739L410.854 61.6076C412.35 61.7731 413.85 61.3376 415.025 60.3969C416.199 59.4563 416.952 58.0875 417.117 56.5918C417.283 55.0961 416.847 53.5959 415.907 52.4213C414.966 51.2467 413.597 50.4938 412.102 50.3283L387.297 47.583C385.802 47.4168 384.302 47.8514 383.127 48.7912C381.952 49.731 381.199 51.099 381.033 52.5943C380.867 54.0896 381.301 55.5896 382.241 56.7645C383.181 57.9393 384.549 58.6927 386.044 58.8589Z"
            fill="white" />
        <path
            d="M289.847 90.266L304.19 149.515L328.129 154.067L350.273 158.282L374.031 162.803L381.623 164.248C382.067 164.332 382.524 164.32 382.964 164.214C383.403 164.107 383.815 163.909 384.172 163.631L390.262 158.874L394.118 155.863L421.484 134.488L404.084 62.6115C403.912 61.8965 403.537 61.2462 403.005 60.739C402.538 60.2901 401.965 59.9661 401.34 59.7968C400.715 59.6274 400.057 59.6182 399.427 59.77L292.689 85.6093C291.695 85.8506 290.837 86.4765 290.304 87.3497C289.771 88.2228 289.607 89.2717 289.847 90.266Z"
            fill="#7F56D9" />
        <path
            d="M322.736 137.401C323.091 138.862 324.011 140.123 325.295 140.906C326.579 141.69 328.122 141.932 329.584 141.579L392.216 126.417C393.677 126.061 394.937 125.141 395.72 123.857C396.504 122.573 396.746 121.031 396.394 119.569C396.378 119.497 396.358 119.425 396.333 119.355C395.933 117.946 395.003 116.746 393.738 116.007C392.473 115.267 390.97 115.047 389.546 115.391L326.914 130.553C325.453 130.908 324.192 131.828 323.408 133.112C322.625 134.396 322.383 135.938 322.736 137.401Z"
            fill="white" />
        <path
            d="M328.129 154.067L350.273 158.282L397.18 146.927C398.643 146.573 399.904 145.653 400.688 144.369C401.472 143.084 401.713 141.541 401.359 140.079C401.005 138.617 400.085 137.355 398.801 136.571C397.516 135.788 395.973 135.546 394.511 135.9L331.879 151.062C330.57 151.377 329.417 152.149 328.629 153.24C328.439 153.501 328.272 153.778 328.129 154.067Z"
            fill="white" />
        <path
            d="M374.031 162.803L381.623 164.248C382.067 164.332 382.524 164.32 382.964 164.214C383.404 164.107 383.815 163.909 384.172 163.631L390.262 158.874L374.031 162.803Z"
            fill="white" />
        <path
            d="M335.356 105.63C335.711 107.092 336.631 108.353 337.915 109.136C339.199 109.919 340.742 110.161 342.204 109.809L366.462 103.936C367.924 103.58 369.184 102.66 369.967 101.376C370.751 100.092 370.993 98.5503 370.641 97.0882C370.452 96.3025 370.096 95.567 369.596 94.9319C368.925 94.0734 368.021 93.4262 366.992 93.0675C365.963 92.7089 364.852 92.6541 363.793 92.9095L339.534 98.7821C338.072 99.1362 336.811 100.057 336.027 101.341C335.243 102.625 335.002 104.168 335.356 105.63Z"
            fill="white" />
        <path
            d="M350.271 158.282L374.033 162.804L381.623 164.249C382.067 164.332 382.524 164.32 382.963 164.214C383.402 164.107 383.814 163.909 384.171 163.632L390.265 158.874L388.127 159.392L383.612 162.914C383.357 163.112 383.063 163.254 382.749 163.33C382.435 163.406 382.109 163.414 381.792 163.355L376.172 162.286L352.41 157.764L350.271 158.282ZM421.249 133.53L421.48 134.486L422.534 133.666L421.249 133.53ZM350.271 158.282L374.033 162.804L381.623 164.249C382.067 164.332 382.524 164.32 382.963 164.214C383.402 164.107 383.814 163.909 384.171 163.632L390.265 158.874L388.127 159.392L383.612 162.914C383.357 163.112 383.063 163.254 382.749 163.33C382.435 163.406 382.109 163.414 381.792 163.355L376.172 162.286L352.41 157.764L350.271 158.282ZM350.271 158.282L374.033 162.804L381.623 164.249C382.067 164.332 382.524 164.32 382.963 164.214C383.402 164.107 383.814 163.909 384.171 163.632L390.265 158.874L388.127 159.392L383.612 162.914C383.357 163.112 383.063 163.254 382.749 163.33C382.435 163.406 382.109 163.414 381.792 163.355L376.172 162.286L352.41 157.764L350.271 158.282ZM272.853 147.192L299.666 257.956C299.865 258.774 300.381 259.48 301.1 259.919C301.819 260.358 302.683 260.493 303.502 260.296L497.57 213.316C498.389 213.117 499.095 212.601 499.534 211.882C499.972 211.163 500.108 210.299 499.91 209.481L473.097 98.7171C472.973 98.2 472.721 97.7226 472.363 97.3292C472.006 96.9357 471.555 96.6389 471.052 96.4664C470.681 96.3358 470.288 96.2767 469.895 96.2922C469.437 96.3055 468.987 96.4237 468.582 96.6377C468.395 96.7265 468.218 96.8363 468.055 96.9647L452.128 109.402L428.997 127.471L421.247 133.524L421.249 133.53L421.242 133.532L392.825 155.716L388.127 159.392L383.612 162.914C383.357 163.112 383.063 163.254 382.749 163.33C382.435 163.406 382.109 163.414 381.792 163.355L376.172 162.286L352.41 157.764L328.626 153.241L276.535 143.328C276.091 143.24 275.633 143.25 275.193 143.357C274.601 143.502 274.062 143.813 273.642 144.255C273.481 144.429 273.338 144.618 273.215 144.82C272.787 145.532 272.657 146.384 272.853 147.192ZM350.271 158.282L374.033 162.804L381.623 164.249C382.067 164.332 382.524 164.32 382.963 164.214C383.402 164.107 383.814 163.909 384.171 163.632L390.265 158.874L388.127 159.392L383.612 162.914C383.357 163.112 383.063 163.254 382.749 163.33C382.435 163.406 382.109 163.414 381.792 163.355L376.172 162.286L352.41 157.764L350.271 158.282ZM350.271 158.282L374.033 162.804L381.623 164.249C382.067 164.332 382.524 164.32 382.963 164.214C383.402 164.107 383.814 163.909 384.171 163.632L390.265 158.874L388.127 159.392L383.612 162.914C383.357 163.112 383.063 163.254 382.749 163.33C382.435 163.406 382.109 163.414 381.792 163.355L376.172 162.286L352.41 157.764L350.271 158.282ZM350.271 158.282L374.033 162.804L381.623 164.249C382.067 164.332 382.524 164.32 382.963 164.214C383.402 164.107 383.814 163.909 384.171 163.632L390.265 158.874L388.127 159.392L383.612 162.914C383.357 163.112 383.063 163.254 382.749 163.33C382.435 163.406 382.109 163.414 381.792 163.355L376.172 162.286L352.41 157.764L350.271 158.282Z"
            fill="white" />
        <path
            d="M350.271 158.282L374.033 162.804L381.623 164.249C382.067 164.332 382.524 164.32 382.963 164.214C383.402 164.107 383.814 163.909 384.171 163.632L390.265 158.874L388.127 159.392L383.612 162.914C383.357 163.112 383.063 163.254 382.749 163.33C382.435 163.406 382.109 163.414 381.792 163.355L376.172 162.286L352.41 157.764L350.271 158.282ZM421.249 133.53L421.48 134.486L422.534 133.666L421.249 133.53ZM350.271 158.282L374.033 162.804L381.623 164.249C382.067 164.332 382.524 164.32 382.963 164.214C383.402 164.107 383.814 163.909 384.171 163.632L390.265 158.874L388.127 159.392L383.612 162.914C383.357 163.112 383.063 163.254 382.749 163.33C382.435 163.406 382.109 163.414 381.792 163.355L376.172 162.286L352.41 157.764L350.271 158.282ZM350.271 158.282L374.033 162.804L381.623 164.249C382.067 164.332 382.524 164.32 382.963 164.214C383.402 164.107 383.814 163.909 384.171 163.632L390.265 158.874L388.127 159.392L383.612 162.914C383.357 163.112 383.063 163.254 382.749 163.33C382.435 163.406 382.109 163.414 381.792 163.355L376.172 162.286L352.41 157.764L350.271 158.282ZM274.098 144.888L274.216 144.977C274.236 144.944 274.27 144.915 274.296 144.881C274.559 144.608 274.885 144.404 275.246 144.288C275.607 144.171 275.992 144.147 276.365 144.215L328.13 154.063L350.271 158.282L374.033 162.804L381.623 164.249C382.067 164.332 382.524 164.32 382.963 164.214C383.402 164.107 383.814 163.909 384.171 163.632L390.265 158.874L388.127 159.392L383.612 162.914C383.357 163.112 383.063 163.254 382.749 163.33C382.435 163.406 382.109 163.414 381.792 163.355L376.172 162.286L352.41 157.764L328.626 153.241L276.535 143.328C276.091 143.24 275.633 143.25 275.193 143.357L274.098 144.888ZM272.853 147.192L299.666 257.956C299.865 258.774 300.381 259.48 301.1 259.919C301.819 260.358 302.683 260.493 303.502 260.296L497.57 213.316C498.389 213.117 499.095 212.601 499.534 211.882C499.972 211.163 500.108 210.299 499.91 209.481L473.097 98.7171C472.973 98.2 472.721 97.7226 472.363 97.3292C472.006 96.9357 471.555 96.6389 471.052 96.4664C470.681 96.3358 470.288 96.2767 469.895 96.2922C469.437 96.3055 468.987 96.4237 468.582 96.6377C468.395 96.7265 468.218 96.8363 468.055 96.9647L452.128 109.402L428.997 127.471L421.247 133.524L421.249 133.53L421.242 133.532L392.825 155.716L388.127 159.392L383.612 162.914C383.357 163.112 383.063 163.254 382.749 163.33C382.435 163.406 382.109 163.414 381.792 163.355L376.172 162.286L352.41 157.764L328.626 153.241L276.535 143.328C276.091 143.24 275.633 143.25 275.193 143.357C274.601 143.501 274.062 143.813 273.642 144.255C273.481 144.429 273.338 144.618 273.215 144.82C272.787 145.532 272.657 146.384 272.853 147.192ZM273.737 146.978C273.658 146.652 273.653 146.311 273.722 145.983C273.791 145.654 273.933 145.345 274.137 145.078C274.156 145.039 274.183 145.004 274.216 144.977C274.236 144.944 274.27 144.915 274.296 144.881C274.559 144.608 274.885 144.404 275.246 144.288C275.607 144.171 275.992 144.147 276.365 144.215L328.13 154.063L350.271 158.282L374.033 162.804L381.623 164.249C382.067 164.332 382.524 164.32 382.963 164.214C383.402 164.107 383.814 163.909 384.171 163.632L390.265 158.874L394.12 155.863L421.48 134.486L422.534 133.666L428.993 128.621L451.992 110.659L468.619 97.6745C468.872 97.4774 469.164 97.3364 469.476 97.2608C469.563 97.2395 469.651 97.225 469.74 97.2174C469.818 97.2032 469.897 97.1957 469.976 97.1948C470.241 97.1923 470.506 97.2354 470.757 97.3222C471.115 97.447 471.437 97.6595 471.692 97.9402C471.948 98.2209 472.129 98.561 472.219 98.9295L499.033 209.693C499.103 209.983 499.116 210.285 499.07 210.58C499.024 210.875 498.92 211.158 498.765 211.413C498.609 211.668 498.405 211.89 498.163 212.066C497.922 212.242 497.648 212.368 497.358 212.438L303.289 259.418C302.704 259.559 302.086 259.461 301.573 259.147C301.059 258.833 300.691 258.327 300.551 257.741L273.737 146.978ZM350.271 158.282L374.033 162.804L381.623 164.249C382.067 164.332 382.524 164.32 382.963 164.214C383.402 164.107 383.814 163.909 384.171 163.632L390.265 158.874L388.127 159.392L383.612 162.914C383.357 163.112 383.063 163.254 382.749 163.33C382.435 163.406 382.109 163.414 381.792 163.355L376.172 162.286L352.41 157.764L350.271 158.282ZM350.271 158.282L374.033 162.804L381.623 164.249C382.067 164.332 382.524 164.32 382.963 164.214C383.402 164.107 383.814 163.909 384.171 163.632L390.265 158.874L388.127 159.392L383.612 162.914C383.357 163.112 383.063 163.254 382.749 163.33C382.435 163.406 382.109 163.414 381.792 163.355L376.172 162.286L352.41 157.764L350.271 158.282ZM350.271 158.282L374.033 162.804L381.623 164.249C382.067 164.332 382.524 164.32 382.963 164.214C383.402 164.107 383.814 163.909 384.171 163.632L390.265 158.874L388.127 159.392L383.612 162.914C383.357 163.112 383.063 163.254 382.749 163.33C382.435 163.406 382.109 163.414 381.792 163.355L376.172 162.286L352.41 157.764L350.271 158.282Z"
            fill="#3F3D56" />
        <path
            d="M446.99 191.555C446.553 189.74 446.853 187.825 447.826 186.232C448.798 184.638 450.363 183.495 452.177 183.054L476.671 177.124C478.484 176.692 480.394 176.996 481.982 177.97C483.571 178.943 484.709 180.506 485.148 182.317C485.586 184.128 485.289 186.039 484.321 187.631C483.354 189.224 481.794 190.368 479.985 190.812L455.491 196.742C453.676 197.179 451.761 196.878 450.168 195.906C448.574 194.933 447.431 193.369 446.99 191.555Z"
            fill="#7F56D9" />
        <path
            d="M176.303 170.984C179.656 170.984 182.374 168.266 182.374 164.913C182.374 161.56 179.656 158.842 176.303 158.842C172.95 158.842 170.232 161.56 170.232 164.913C170.232 168.266 172.95 170.984 176.303 170.984Z"
            fill="white" />
    </g>
    <defs>
        <clipPath id="clip0_1_15922">
            <rect width="500" height="428.014" fill="white" transform="translate(0 0.992798)" />
        </clipPath>
    </defs>
</svg>