<svg width="500" height="334" viewBox="0 0 500 334" fill="none" xmlns="http://www.w3.org/2000/svg">
    <g clip-path="url(#clip0_1_15969)">
        <path
            d="M179.35 192.09C196.485 161.948 229.171 138.804 263.771 141.034C238.249 168.787 223.366 204.673 221.757 242.343C221.189 256.873 222.07 273.093 212.422 283.973C206.419 290.742 197.243 294.021 188.222 294.709C179.2 295.396 170.18 293.766 161.278 292.143L159.119 292.806C158.297 258.145 162.215 222.231 179.35 192.09Z"
            fill="#F0F0F0" />
        <path
            d="M263.823 141.76C238.236 154.077 216.419 174.647 203.026 199.735C200.13 205.159 197.665 210.913 196.59 216.997C195.514 223.083 196.265 228.877 198.344 234.658C200.245 239.943 202.801 245.129 203.384 250.784C203.998 256.744 201.805 262.318 197.857 266.741C193.027 272.153 186.54 275.507 180.082 278.566C172.912 281.962 165.411 285.377 160.332 291.716C159.717 292.484 158.561 291.484 159.175 290.717C168.011 279.688 183.135 277.615 193.623 268.73C198.517 264.585 202.191 258.939 201.959 252.324C201.757 246.54 199.125 241.19 197.155 235.855C195.085 230.254 194.054 224.622 194.796 218.65C195.555 212.541 197.8 206.678 200.544 201.204C206.733 188.859 215.202 177.525 224.905 167.727C236.055 156.465 249.05 147.194 263.328 140.314C264.212 139.888 264.701 141.337 263.823 141.76Z"
            fill="white" />
        <path
            d="M206.949 191.351C203.027 188.482 200.251 184.314 199.119 179.588C197.987 174.863 198.571 169.889 200.767 165.555C201.215 164.679 202.596 165.333 202.148 166.21C200.095 170.242 199.552 174.876 200.615 179.274C201.679 183.672 204.279 187.545 207.948 190.194C208.744 190.77 207.741 191.924 206.949 191.351Z"
            fill="white" />
        <path
            d="M197.028 232.105C206.857 230.669 215.783 225.581 222.027 217.856C222.645 217.09 223.801 218.09 223.184 218.855C216.671 226.882 207.371 232.157 197.14 233.629C196.164 233.769 196.058 232.244 197.028 232.105Z"
            fill="white" />
        <path
            d="M236.81 158.346C238.097 159.772 239.717 160.856 241.526 161.501C243.335 162.146 245.276 162.331 247.174 162.041C248.148 161.889 248.253 163.414 247.286 163.565C245.187 163.876 243.044 163.668 241.044 162.96C239.044 162.252 237.247 161.065 235.812 159.502C235.664 159.366 235.574 159.179 235.559 158.979C235.544 158.779 235.606 158.581 235.733 158.425C235.866 158.272 236.053 158.178 236.255 158.164C236.457 158.149 236.656 158.214 236.81 158.346Z"
            fill="white" />
        <path
            d="M332.615 236.119C332.011 236.231 331.406 236.344 330.795 236.467C322.671 238.017 314.686 240.224 306.919 243.067C306.315 243.278 305.706 243.5 305.109 243.727C286.469 250.776 269.301 261.223 254.475 274.539C248.581 279.844 243.098 285.588 238.075 291.724C231.139 300.199 224.293 309.939 215.229 315.464C214.289 316.051 213.315 316.58 212.31 317.046L160.095 295.389C160.001 295.28 159.902 295.183 159.807 295.074L157.683 294.305C157.92 293.97 158.173 293.628 158.41 293.294C158.546 293.099 158.695 292.909 158.831 292.714C158.926 292.586 159.021 292.458 159.1 292.337C159.131 292.294 159.163 292.252 159.189 292.221C159.268 292.1 159.353 291.995 159.426 291.886C160.835 289.971 162.26 288.063 163.7 286.161C163.705 286.149 163.705 286.149 163.722 286.142C174.734 271.679 187.05 258.008 201.05 246.642C201.472 246.3 201.897 245.946 202.342 245.614C208.681 240.525 215.426 235.963 222.508 231.973C226.393 229.801 230.386 227.827 234.47 226.059C245.033 221.509 256.246 218.65 267.698 217.584C290.527 215.465 313.779 220.669 331.288 235.01C331.736 235.378 332.173 235.74 332.615 236.119Z"
            fill="#F0F0F0" />
        <path
            d="M332.223 236.733C304.378 231.163 274.573 234.453 248.774 246.421C243.197 249.008 237.764 252.118 233.242 256.328C228.719 260.54 225.83 265.619 224.009 271.486C222.345 276.85 221.263 282.53 218.324 287.396C215.226 292.525 210.119 295.655 204.304 296.809C197.188 298.222 189.99 296.995 182.992 295.549C175.222 293.945 167.177 292.155 159.305 294.159C158.351 294.401 158.03 292.907 158.982 292.665C172.678 289.178 186.002 296.629 199.725 295.849C206.129 295.485 212.462 293.19 216.259 287.768C219.58 283.028 220.7 277.172 222.339 271.726C224.059 266.008 226.626 260.89 230.814 256.568C235.098 252.148 240.421 248.819 245.908 246.1C258.282 239.969 271.869 236.018 285.515 234.037C301.198 231.758 317.157 232.179 332.699 235.281C333.66 235.473 333.179 236.924 332.223 236.733Z"
            fill="white" />
        <path
            d="M256.955 242.088C255.55 237.437 255.844 232.437 257.785 227.983C259.726 223.528 263.187 219.908 267.55 217.77C268.435 217.34 269.144 218.694 268.258 219.125C264.191 221.108 260.968 224.48 259.169 228.632C257.37 232.784 257.114 237.442 258.448 241.766C258.737 242.706 257.242 243.023 256.955 242.088Z"
            fill="white" />
        <path
            d="M224.495 268.655C233.207 273.426 243.398 274.738 253.035 272.329C253.989 272.09 254.311 273.584 253.357 273.823C243.324 276.311 232.722 274.924 223.667 269.94C222.804 269.464 223.637 268.182 224.495 268.655Z"
            fill="white" />
        <path
            d="M300.669 233.714C300.838 235.627 301.479 237.468 302.535 239.072C303.591 240.676 305.029 241.993 306.72 242.903C307.588 243.368 306.754 244.649 305.892 244.188C304.028 243.173 302.442 241.716 301.271 239.947C300.1 238.177 299.381 236.148 299.175 234.036C299.139 233.839 299.18 233.635 299.289 233.466C299.397 233.297 299.566 233.177 299.761 233.128C299.959 233.086 300.166 233.124 300.336 233.234C300.506 233.344 300.625 233.516 300.669 233.714Z"
            fill="white" />
        <path
            d="M233.149 271.85C225.836 236.493 216.696 224.705 216.696 224.705L213.204 221.997L209.004 218.736L209.024 218.316L208.028 217.978L207.794 217.796L207.411 217.502L207.349 217.568L207.219 217.703L188.216 211.244L164.108 203.055L152.944 188.545C151.126 186.182 148.785 184.272 146.106 182.964C143.426 181.657 140.479 180.989 137.498 181.011L101.845 181.274C97.0238 181.31 92.3908 183.148 88.8564 186.426L65.4221 208.162L28.9069 225.601L28.8453 225.54L28.4618 225.813L22.8199 228.511L23.0527 229.723L19.5607 232.243C19.5607 232.243 10.42 243.211 3.10737 276.11C1.24712 284.481 0.331441 302.438 0.000928809 324.565C-0.0156728 325.685 0.190428 326.796 0.607243 327.835C1.02406 328.874 1.64327 329.82 2.42889 330.618C3.2145 331.415 4.15083 332.049 5.18344 332.481C6.21605 332.913 7.32434 333.136 8.44387 333.137H203.478L227.821 333.137C228.94 333.136 230.047 332.913 231.079 332.481C232.111 332.049 233.047 331.417 233.833 330.62C234.618 329.824 235.238 328.879 235.655 327.841C236.072 326.803 236.28 325.693 236.264 324.574C235.941 300.496 235.026 280.928 233.149 271.85Z"
            fill="#3F3D56" />
        <path
            d="M258.173 31.697C250.585 31.697 243.308 34.7112 237.942 40.0766C232.577 45.4419 229.562 52.7189 229.562 60.3066C229.562 67.8943 232.577 75.1713 237.942 80.5366C243.308 85.9019 250.585 88.9161 258.173 88.9161H471.389C478.977 88.9161 486.255 85.9019 491.62 80.5366C496.986 75.1713 500 67.8943 500 60.3066C500 52.7189 496.986 45.4419 491.62 40.0766C486.255 34.7112 478.977 31.697 471.389 31.697H258.173Z"
            fill="#E5E5E5" />
        <path
            d="M258.173 37.487C252.121 37.487 246.316 39.8912 242.036 44.1707C237.757 48.4502 235.353 54.2544 235.353 60.3065C235.353 66.3587 237.757 72.1629 242.036 76.4424C246.316 80.7219 252.121 83.1261 258.173 83.1261H471.39C477.442 83.1261 483.246 80.7219 487.526 76.4424C491.806 72.1629 494.21 66.3587 494.21 60.3065C494.21 54.2544 491.806 48.4502 487.526 44.1707C483.246 39.8912 477.442 37.487 471.39 37.487H258.173Z"
            fill="white" />
        <path
            d="M125.27 167.617C151.067 167.617 171.979 146.705 171.979 120.909C171.979 95.1135 151.067 74.2018 125.27 74.2018C99.4734 74.2018 78.561 95.1135 78.561 120.909C78.561 146.705 99.4734 167.617 125.27 167.617Z"
            fill="#9E616A" />
        <path
            d="M113.321 165.33C113.122 164.891 112.923 164.45 112.724 164.007C112.801 164.01 112.876 164.021 112.953 164.023L113.321 165.33Z"
            fill="#2F2E41" />
        <path
            d="M77.2621 76.3258C79.6245 74.4413 82.3856 72.7074 85.4061 72.8049C88.4265 72.9022 91.4894 75.6301 90.8636 78.5865C96.4115 68.7638 105.242 61.209 115.805 57.2482C126.369 53.2875 137.989 53.1737 148.628 56.9271C156.135 59.5755 163.497 64.874 165.221 72.6451C165.664 74.64 165.759 76.8274 167.005 78.4473C168.575 80.4897 171.58 80.9517 174.054 80.2332C174.079 80.2261 174.104 80.2188 174.128 80.2114C174.546 80.0687 174.998 80.0546 175.424 80.1711C175.85 80.2876 176.231 80.5292 176.518 80.8648C176.805 81.2003 176.985 81.6143 177.035 82.0532C177.084 82.4921 177.001 82.9358 176.795 83.3267L174.671 87.288C177.349 87.8848 180.131 87.8256 182.78 87.1155C183.221 87.0001 183.686 87.0237 184.112 87.183C184.538 87.3423 184.905 87.6297 185.161 88.0055C185.418 88.3814 185.552 88.8274 185.545 89.2824C185.538 89.7374 185.39 90.1791 185.122 90.5468C178.118 100.163 166.417 106.372 154.476 106.299C145.989 106.247 137.415 103.322 129.155 105.274C125.96 106.029 122.974 107.49 120.417 109.549C117.86 111.608 115.796 114.214 114.378 117.175C112.959 120.136 112.221 123.377 112.219 126.66C112.216 129.943 112.948 133.185 114.362 136.149C111.825 133.373 106.92 134.03 104.324 136.751C101.729 139.472 101.057 143.534 101.318 147.285C101.718 153.023 103.966 158.429 106.336 163.691C86.4664 163.065 67.6731 149.128 61.3472 130.276C54.9948 111.346 61.6524 88.7778 77.2621 76.3258Z"
            fill="#2F2E41" />
        <path opacity="0.2" d="M45.9739 261.175L59.0747 332.452L66.9356 333.137L45.9739 261.175Z" fill="black" />
        <path opacity="0.2" d="M190.282 255.8L177.182 332.401L169.321 333.137L190.282 255.8Z" fill="black" />
        <path
            d="M88.436 52.3378C85.9241 53.3866 83.303 52.2372 82.2038 49.6048C81.0878 46.9322 82.1301 44.2191 84.6823 43.1535C87.2347 42.0877 89.8091 43.24 90.9431 45.9557C92.0601 48.6307 91.0291 51.255 88.436 52.3378ZM83.6242 37.8929L81.627 38.7268C81.128 38.9327 80.57 38.9438 80.0633 38.7579C79.5565 38.5721 79.138 38.2028 78.8905 37.7232L78.7917 37.5299C76.6427 33.6544 76.3966 28.9442 78.0642 23.5376C79.6091 18.6876 80.2507 15.2766 78.9603 12.1864C77.4684 8.61363 74.2826 7.49444 70.2199 9.11571C68.6442 9.77363 68.1428 9.76315 66.9028 10.9932C66.6331 11.264 66.3116 11.4777 65.9575 11.6216C65.6034 11.7655 65.2239 11.8366 64.8417 11.8307C64.4723 11.8264 64.1074 11.7477 63.7691 11.5993C63.4307 11.4509 63.1256 11.2359 62.8721 10.9671C62.3837 10.4491 62.1101 9.7651 62.1065 9.05317C62.1029 8.34125 62.3696 7.65448 62.8527 7.13157C64.937 4.94987 67.4508 3.22387 70.2356 2.06248C78.9645 -1.58228 83.3587 3.79869 85.3695 8.61415C87.3364 13.3242 86.23 17.6944 84.4523 23.3542C82.9626 28.0571 83.0494 31.5419 84.7416 35.0069C84.8638 35.2689 84.9317 35.5528 84.9414 35.8417C84.9511 36.1306 84.9023 36.4184 84.798 36.688C84.6936 36.9575 84.5358 37.2032 84.3341 37.4102C84.1325 37.6173 83.891 37.7815 83.6242 37.8929Z"
            fill="#7F56D9" />
        <path
            d="M305.27 73.9514H262.847C262.713 73.9523 262.579 73.9266 262.454 73.8756C262.329 73.8247 262.216 73.7496 262.12 73.6546C262.025 73.5596 261.949 73.4467 261.897 73.3223C261.845 73.1978 261.819 73.0644 261.819 72.9296C261.819 72.7949 261.845 72.6614 261.897 72.537C261.949 72.4126 262.025 72.2996 262.12 72.2047C262.216 72.1097 262.329 72.0346 262.454 71.9836C262.579 71.9327 262.713 71.9069 262.847 71.9079H305.27C305.539 71.9097 305.797 72.0181 305.988 72.2096C306.178 72.401 306.284 72.6598 306.284 72.9296C306.284 73.1994 306.178 73.4583 305.988 73.6497C305.797 73.8411 305.539 73.9496 305.27 73.9514Z"
            fill="#7F56D9" />
        <path
            d="M359.085 74.2919H316.663C316.528 74.2928 316.394 74.2671 316.269 74.2162C316.145 74.1652 316.031 74.0901 315.936 73.9951C315.84 73.9001 315.764 73.7872 315.712 73.6628C315.66 73.5384 315.634 73.4049 315.634 73.2702C315.634 73.1354 315.66 73.0019 315.712 72.8775C315.764 72.7531 315.84 72.6401 315.936 72.5452C316.031 72.4502 316.145 72.3751 316.269 72.3242C316.394 72.2732 316.528 72.2475 316.663 72.2484H359.085C359.22 72.2475 359.353 72.2732 359.478 72.3242C359.603 72.3751 359.716 72.4502 359.812 72.5452C359.907 72.6401 359.983 72.7531 360.035 72.8775C360.087 73.0019 360.114 73.1354 360.114 73.2702C360.114 73.4049 360.087 73.5384 360.035 73.6628C359.983 73.7872 359.907 73.9001 359.812 73.9951C359.716 74.0901 359.603 74.1652 359.478 74.2162C359.353 74.2671 359.22 74.2928 359.085 74.2919Z"
            fill="#7F56D9" />
        <path
            d="M412.9 74.6326H370.478C370.208 74.6307 369.95 74.5223 369.759 74.3308C369.569 74.1394 369.463 73.8806 369.463 73.6108C369.463 73.341 369.569 73.0821 369.759 72.8907C369.95 72.6993 370.208 72.5908 370.478 72.589H412.9C413.034 72.5881 413.168 72.6139 413.293 72.6648C413.418 72.7157 413.531 72.7908 413.627 72.8858C413.722 72.9808 413.798 73.0937 413.85 73.2182C413.902 73.3426 413.928 73.476 413.928 73.6108C413.928 73.7455 413.902 73.879 413.85 74.0034C413.798 74.1278 413.722 74.2408 413.627 74.3358C413.531 74.4307 413.418 74.5058 413.293 74.5568C413.168 74.6077 413.035 74.6335 412.9 74.6326Z"
            fill="#7F56D9" />
        <path
            d="M466.715 74.9731H424.293C424.023 74.9713 423.765 74.8628 423.575 74.6714C423.385 74.48 423.278 74.2211 423.278 73.9513C423.278 73.6815 423.385 73.4227 423.575 73.2313C423.765 73.0399 424.023 72.9314 424.293 72.9296H466.715C466.985 72.9314 467.243 73.0399 467.433 73.2313C467.623 73.4227 467.73 73.6815 467.73 73.9513C467.73 74.2211 467.623 74.48 467.433 74.6714C467.243 74.8628 466.985 74.9713 466.715 74.9731Z"
            fill="#7F56D9" />
        <path
            d="M283.965 64.5479C288.32 64.5479 291.85 61.018 291.85 56.6637C291.85 52.3094 288.32 48.7795 283.965 48.7795C279.611 48.7795 276.081 52.3094 276.081 56.6637C276.081 61.018 279.611 64.5479 283.965 64.5479Z"
            fill="#7F56D9" />
        <path
            d="M338.105 64.5479C342.46 64.5479 345.99 61.018 345.99 56.6637C345.99 52.3094 342.46 48.7795 338.105 48.7795C333.751 48.7795 330.221 52.3094 330.221 56.6637C330.221 61.018 333.751 64.5479 338.105 64.5479Z"
            fill="#7F56D9" />
        <path
            d="M392.245 64.5479C396.6 64.5479 400.13 61.018 400.13 56.6637C400.13 52.3094 396.6 48.7795 392.245 48.7795C387.891 48.7795 384.361 52.3094 384.361 56.6637C384.361 61.018 387.891 64.5479 392.245 64.5479Z"
            fill="#7F56D9" />
        <path
            d="M446.385 64.5479C450.74 64.5479 454.27 61.018 454.27 56.6637C454.27 52.3094 450.74 48.7795 446.385 48.7795C442.031 48.7795 438.501 52.3094 438.501 56.6637C438.501 61.018 442.031 64.5479 446.385 64.5479Z"
            fill="#7F56D9" />
    </g>
    <defs>
        <clipPath id="clip0_1_15969">
            <rect width="500" height="332.273" fill="white" transform="translate(0 0.863281)" />
        </clipPath>
    </defs>
</svg>