<svg width="500" height="352" viewBox="0 0 500 352" fill="none" xmlns="http://www.w3.org/2000/svg">
    <g clip-path="url(#clip0_1_16017)">
        <path
            d="M407.585 232.973C408.144 232.247 408.538 231.406 408.737 230.512C408.937 229.617 408.938 228.689 408.74 227.794C408.543 226.899 408.151 226.058 407.593 225.33C407.035 224.603 406.325 224.006 405.511 223.583L406.751 209.306L398.257 206.437L396.79 226.623C396.17 228.037 396.09 229.628 396.564 231.097C397.039 232.565 398.036 233.809 399.366 234.591C400.697 235.374 402.268 235.641 403.782 235.343C405.296 235.045 406.649 234.202 407.583 232.974L407.585 232.973Z"
            fill="#FFB8B8" />
        <path d="M449.961 343.974H442.319L438.683 314.481H449.967L449.961 343.974Z" fill="#FFB8B8" />
        <path
            d="M436.858 341.789H451.603V351.073H427.573C427.573 348.611 428.552 346.249 430.293 344.508C432.034 342.767 434.395 341.789 436.858 341.789Z"
            fill="#2F2E41" />
        <path d="M432.609 324.404L425.186 326.229L414.615 298.459L425.573 295.765L432.609 324.404Z" fill="#FFB8B8" />
        <path
            d="M419.465 325.146L433.783 321.622L436.002 330.637L412.669 336.38C412.081 333.989 412.466 331.463 413.741 329.356C415.015 327.249 417.074 325.735 419.465 325.146Z"
            fill="#2F2E41" />
        <path
            d="M441.016 334.57C440.318 334.572 439.644 334.314 439.125 333.847C438.606 333.38 438.279 332.737 438.207 332.043L429.411 250.082L421.756 275.146L432.599 314.292C432.785 314.963 432.717 315.68 432.408 316.304C432.099 316.928 431.57 317.416 430.923 317.674L422.303 321.122C421.948 321.264 421.568 321.332 421.186 321.323C420.803 321.314 420.427 321.228 420.079 321.069C419.731 320.911 419.419 320.684 419.162 320.401C418.904 320.119 418.707 319.787 418.581 319.426L405.293 281.3C403.838 277.137 403.194 272.734 403.397 268.328L405.251 227.182L454.102 229.251L453.339 331.051C453.33 331.759 453.057 332.439 452.573 332.957C452.089 333.475 451.429 333.793 450.723 333.85L441.236 334.565C441.162 334.568 441.089 334.57 441.016 334.57Z"
            fill="#2F2E41" />
        <path
            d="M432.926 136.123C441.998 136.123 449.352 128.769 449.352 119.697C449.352 110.625 441.998 103.271 432.926 103.271C423.854 103.271 416.5 110.625 416.5 119.697C416.5 128.769 423.854 136.123 432.926 136.123Z"
            fill="#FFB8B8" />
        <path
            d="M445.006 231.927C440.68 231.927 435.308 231.574 429.746 231.208C422.148 230.708 414.293 230.191 408.428 230.53C407.636 230.609 406.837 230.483 406.108 230.166C405.378 229.848 404.742 229.349 404.26 228.715C398.215 220.975 407.537 190.79 407.939 189.509L415.525 155.756C417.197 148.333 422.528 142.857 429.445 141.466C435.919 140.166 442.181 142.757 446.197 148.404C446.41 148.704 446.623 149.011 446.835 149.327C459.911 168.693 452.515 216.807 452.02 219.91C452.711 220.737 456.446 225.415 455.419 228.665C455.001 229.987 453.867 230.888 452.047 231.34C449.729 231.799 447.366 231.996 445.004 231.925L445.006 231.927Z"
            fill="#7F56D9" />
        <path
            d="M408.693 231.942C407.205 231.942 405.198 231.393 402.492 230.27C401.329 229.786 397.79 228.314 402.087 190.764C404.197 172.318 407.221 154.002 407.251 153.819L407.28 153.642L407.443 153.569C407.521 153.533 415.242 149.994 416.585 145.446C416.63 145.288 416.682 145.136 416.742 144.988C417.111 143.977 417.857 143.147 418.823 142.673C419.789 142.198 420.902 142.115 421.928 142.441C423.011 142.7 423.956 143.362 424.57 144.292C425.184 145.222 425.421 146.35 425.233 147.449C424.765 150.415 423.866 153.298 422.564 156.004C418.93 163.501 416.468 183.376 416.444 183.576C416.305 185.273 413.008 225.49 412.373 228.542C412.151 229.608 411.743 230.912 410.545 231.545C409.97 231.828 409.335 231.966 408.694 231.946L408.693 231.942Z"
            fill="#2F2E41" />
        <path
            d="M426.637 230.401C426.337 230.401 426.046 230.301 425.809 230.117C420.976 226.445 428.797 181.93 433.433 166.571C434.362 163.495 435.188 160.862 435.891 158.743C437.172 154.94 438.066 151.017 438.559 147.035C438.815 144.877 439.369 143.645 440.256 143.267C440.872 143.005 441.593 143.183 442.409 143.798C446.694 143.586 450.857 145.336 454.715 147.263L458.187 148.995L462.084 217.98C461.973 222.382 453.295 225.49 449.51 225.689C443.432 226.008 432.517 226.998 427.708 230.042C427.393 230.261 427.022 230.386 426.638 230.401L426.637 230.401Z"
            fill="#2F2E41" />
        <path
            d="M404.931 217.458C404.873 217.458 404.816 217.458 404.758 217.452L396.887 216.968C396.496 216.944 396.113 216.839 395.764 216.659C395.415 216.479 395.108 216.228 394.861 215.923C394.614 215.618 394.434 215.264 394.331 214.886C394.228 214.507 394.205 214.111 394.264 213.722L397.825 190.128L404.529 157.023C404.694 156.208 405.029 155.436 405.511 154.758C405.994 154.08 406.613 153.511 407.33 153.088C408.046 152.665 408.844 152.398 409.67 152.302C410.497 152.207 411.334 152.287 412.128 152.536C413.485 152.969 414.642 153.873 415.392 155.085C416.141 156.296 416.432 157.736 416.213 159.143L410.887 192.315L407.733 215.019C407.636 215.694 407.3 216.311 406.785 216.759C406.271 217.207 405.613 217.455 404.931 217.458Z"
            fill="#2F2E41" />
        <path
            d="M431.817 191.632C432.297 190.851 432.942 190.185 433.708 189.68C434.473 189.176 435.34 188.845 436.247 188.711C437.154 188.578 438.079 188.645 438.958 188.908C439.836 189.171 440.646 189.623 441.331 190.233L454.235 183.999L459.936 190.917L441.589 199.464C440.488 200.546 439.029 201.187 437.487 201.265C435.946 201.343 434.429 200.853 433.225 199.888C432.02 198.923 431.212 197.549 430.952 196.028C430.693 194.506 431 192.942 431.817 191.632Z"
            fill="#FFB8B8" />
        <path
            d="M449.743 198.326C449.108 198.326 448.491 198.112 447.992 197.719C447.493 197.326 447.141 196.776 446.992 196.159L445.119 188.367C444.976 187.781 445.025 187.165 445.259 186.609C445.492 186.053 445.898 185.586 446.417 185.278L457.719 178.513L451.941 157.356C451.441 155.544 451.67 153.609 452.579 151.964C453.489 150.319 455.006 149.096 456.806 148.556C458.606 148.015 460.546 148.201 462.211 149.073C463.876 149.946 465.133 151.435 465.713 153.222L472.093 172.701C472.876 175.075 472.883 177.638 472.11 180.016C471.338 182.394 469.828 184.464 467.798 185.925L451.4 197.789C450.918 198.138 450.338 198.326 449.743 198.326Z"
            fill="#2F2E41" />
        <path
            d="M327.622 0.108521H11.1554C8.19789 0.11206 5.36252 1.2885 3.27125 3.37978C1.17997 5.47105 0.00353981 8.30641 0 11.2639V45.3187C0.00353981 48.2762 1.17997 51.1115 3.27125 53.2028C5.36252 55.2941 8.19789 56.4705 11.1554 56.4741H327.622C330.58 56.4705 333.415 55.2941 335.507 53.2028C337.598 51.1115 338.774 48.2762 338.778 45.3187V11.2639C338.774 8.30641 337.598 5.47105 335.507 3.37978C333.415 1.2885 330.58 0.11206 327.622 0.108521ZM337.603 45.3187C337.599 47.9646 336.547 50.501 334.676 52.372C332.805 54.2429 330.268 55.2958 327.622 55.2997H11.1554C8.50946 55.2958 5.97302 54.2429 4.10206 52.372C2.2311 50.501 1.17828 47.9646 1.17439 45.3187V11.2639C1.17828 8.61798 2.2311 6.08154 4.10206 4.21058C5.97302 2.33962 8.50946 1.2868 11.1554 1.28291H327.622C330.268 1.2868 332.805 2.33962 334.676 4.21058C336.547 6.08154 337.599 8.61798 337.603 11.2639V45.3187Z"
            fill="#3F3D56" />
        <path
            d="M327.622 136.911H11.1554C8.19789 136.908 5.36252 135.731 3.27125 133.64C1.17997 131.549 0.00353981 128.713 0 125.756V91.7018C0.00353981 88.7443 1.17997 85.9089 3.27125 83.8177C5.36252 81.7264 8.19789 80.5499 11.1554 80.5464H327.622C330.58 80.5499 333.415 81.7264 335.507 83.8177C337.598 85.9089 338.774 88.7443 338.778 91.7018V125.756C338.774 128.713 337.598 131.549 335.507 133.64C333.415 135.731 330.58 136.908 327.622 136.911ZM11.1554 81.7208C8.50919 81.7238 5.97224 82.7763 4.10109 84.6475C2.22994 86.5186 1.1774 89.0556 1.17439 91.7018V125.756C1.17687 128.402 2.22917 130.94 4.10037 132.811C5.97158 134.683 8.50884 135.736 11.1554 135.739H327.622C330.269 135.736 332.806 134.684 334.677 132.812C336.548 130.941 337.601 128.404 337.604 125.758V91.7018C337.601 89.0556 336.548 86.5186 334.677 84.6475C332.806 82.7763 330.269 81.7238 327.623 81.7208H11.1554Z"
            fill="#CCCCCC" />
        <path
            d="M327.622 217.349H11.1554C8.19789 217.346 5.36252 216.169 3.27125 214.078C1.17997 211.987 0.00353981 209.151 0 206.194V172.14C0.00353981 169.182 1.17997 166.347 3.27125 164.256C5.36252 162.164 8.19789 160.988 11.1554 160.984H327.622C330.58 160.988 333.415 162.164 335.507 164.256C337.598 166.347 338.774 169.182 338.778 172.14V206.194C338.774 209.151 337.598 211.987 335.507 214.078C333.415 216.169 330.58 217.346 327.622 217.349ZM11.1554 162.156C8.50919 162.159 5.97224 163.212 4.10109 165.083C2.22994 166.954 1.1774 169.491 1.17439 172.137V206.191C1.17722 208.837 2.22968 211.375 4.10085 213.246C5.97202 215.117 8.50908 216.17 11.1554 216.173H327.622C330.269 216.17 332.806 215.118 334.677 213.246C336.548 211.375 337.601 208.838 337.604 206.192V172.14C337.602 169.493 336.549 166.955 334.678 165.084C332.807 163.212 330.269 162.159 327.622 162.156H11.1554Z"
            fill="#CCCCCC" />
        <path
            d="M53.9171 47.7076C50.077 47.7076 46.323 46.5688 43.13 44.4353C39.937 42.3018 37.4484 39.2694 35.9788 35.7216C34.5093 32.1737 34.1248 28.2697 34.8739 24.5034C35.6231 20.737 37.4723 17.2773 40.1878 14.5619C42.9032 11.8465 46.3628 9.99727 50.1292 9.24809C53.8956 8.49891 57.7996 8.88341 61.3474 10.353C64.8953 11.8226 67.9277 14.3112 70.0612 17.5042C72.1947 20.6972 73.3334 24.4511 73.3334 28.2913C73.3334 33.4408 71.2878 38.3794 67.6465 42.0207C64.0053 45.6619 59.0667 47.7076 53.9171 47.7076Z"
            fill="#7F56D9" />
        <path
            d="M298.955 44.1436H91.6976C90.4518 44.1436 89.2571 43.6487 88.3762 42.7678C87.4953 41.8869 87.0004 40.6922 87.0004 39.4464C87.0004 38.2006 87.4953 37.0058 88.3762 36.1249C89.2571 35.244 90.4518 34.7491 91.6976 34.7491H298.955C300.201 34.7491 301.396 35.244 302.277 36.1249C303.158 37.0058 303.653 38.2006 303.653 39.4464C303.653 40.6922 303.158 41.8869 302.277 42.7678C301.396 43.6487 300.201 44.1436 298.955 44.1436Z"
            fill="#CCCCCC" />
        <path
            d="M231.431 24.1809H91.693C90.4472 24.1809 89.2524 23.686 88.3715 22.8051C87.4906 21.9242 86.9957 20.7294 86.9957 19.4836C86.9957 18.2378 87.4906 17.0431 88.3715 16.1622C89.2524 15.2813 90.4472 14.7864 91.693 14.7864H231.431C232.677 14.7864 233.872 15.2813 234.753 16.1622C235.633 17.0431 236.128 18.2378 236.128 19.4836C236.128 20.7294 235.633 21.9242 234.753 22.8051C233.872 23.686 232.677 24.1809 231.431 24.1809Z"
            fill="#CCCCCC" />
        <path
            d="M53.9171 128.145C50.077 128.145 46.323 127.006 43.13 124.873C39.937 122.739 37.4484 119.707 35.9788 116.159C34.5093 112.611 34.1248 108.707 34.8739 104.941C35.6231 101.174 37.4723 97.7146 40.1878 94.9992C42.9032 92.2837 46.3628 90.4345 50.1292 89.6853C53.8956 88.9362 57.7996 89.3207 61.3474 90.7902C64.8953 92.2598 67.9277 94.7484 70.0612 97.9414C72.1947 101.134 73.3334 104.888 73.3334 108.729C73.3334 113.878 71.2878 118.817 67.6465 122.458C64.0053 126.099 59.0667 128.145 53.9171 128.145Z"
            fill="#E6E6E6" />
        <path
            d="M298.955 124.581H91.6976C90.4518 124.581 89.2571 124.087 88.3762 123.206C87.4953 122.325 87.0004 121.13 87.0004 119.884C87.0004 118.638 87.4953 117.444 88.3762 116.563C89.2571 115.682 90.4518 115.187 91.6976 115.187H298.955C300.201 115.187 301.396 115.682 302.277 116.563C303.158 117.444 303.653 118.638 303.653 119.884C303.653 121.13 303.158 122.325 302.277 123.206C301.396 124.087 300.201 124.581 298.955 124.581Z"
            fill="#E6E6E6" />
        <path
            d="M231.431 104.619H91.693C90.4472 104.619 89.2524 104.124 88.3715 103.243C87.4906 102.362 86.9957 101.167 86.9957 99.9216C86.9957 98.6758 87.4906 97.4811 88.3715 96.6002C89.2524 95.7192 90.4472 95.2244 91.693 95.2244H231.431C232.677 95.2244 233.872 95.7192 234.753 96.6002C235.633 97.4811 236.128 98.6758 236.128 99.9216C236.128 101.167 235.633 102.362 234.753 103.243C233.872 104.124 232.677 104.619 231.431 104.619Z"
            fill="#E6E6E6" />
        <path
            d="M53.9171 208.583C50.077 208.583 46.323 207.444 43.13 205.31C39.937 203.177 37.4484 200.145 35.9788 196.597C34.5093 193.049 34.1248 189.145 34.8739 185.378C35.6231 181.612 37.4723 178.152 40.1878 175.437C42.9032 172.722 46.3628 170.872 50.1292 170.123C53.8956 169.374 57.7996 169.759 61.3474 171.228C64.8953 172.698 67.9277 175.186 70.0612 178.379C72.1947 181.572 73.3334 185.326 73.3334 189.166C73.3334 194.316 71.2878 199.255 67.6465 202.896C64.0053 206.537 59.0667 208.583 53.9171 208.583Z"
            fill="#E6E6E6" />
        <path
            d="M298.955 205.019H91.6976C90.4518 205.019 89.2571 204.525 88.3762 203.644C87.4953 202.763 87.0004 201.568 87.0004 200.322C87.0004 199.076 87.4953 197.882 88.3762 197.001C89.2571 196.12 90.4518 195.625 91.6976 195.625H298.955C300.201 195.625 301.396 196.12 302.277 197.001C303.158 197.882 303.653 199.076 303.653 200.322C303.653 201.568 303.158 202.763 302.277 203.644C301.396 204.525 300.201 205.019 298.955 205.019Z"
            fill="#E6E6E6" />
        <path
            d="M231.431 185.057H91.693C90.4472 185.057 89.2524 184.562 88.3715 183.681C87.4906 182.8 86.9957 181.605 86.9957 180.359C86.9957 179.114 87.4906 177.919 88.3715 177.038C89.2524 176.157 90.4472 175.662 91.693 175.662H231.431C232.677 175.662 233.872 176.157 234.753 177.038C235.633 177.919 236.128 179.114 236.128 180.359C236.128 181.605 235.633 182.8 234.753 183.681C233.872 184.562 232.677 185.057 231.431 185.057Z"
            fill="#E6E6E6" />
        <path
            d="M52.926 35.121C52.4438 35.1221 51.9743 34.9662 51.5884 34.6769L51.5643 34.6588L46.5317 30.8093C46.2986 30.6306 46.103 30.4078 45.956 30.1535C45.8091 29.8992 45.7136 29.6185 45.6752 29.3273C45.6367 29.0361 45.6559 28.7402 45.7318 28.4565C45.8077 28.1728 45.9387 27.9068 46.1174 27.6737C46.2961 27.4406 46.5189 27.245 46.7732 27.098C47.0275 26.951 47.3082 26.8556 47.5994 26.8171C47.8906 26.7786 48.1865 26.7979 48.4702 26.8738C48.7539 26.9497 49.0199 27.0807 49.253 27.2594L52.5127 29.7593L60.2152 19.7101C60.5759 19.2397 61.1087 18.9319 61.6964 18.8542C62.2841 18.7766 62.8786 18.9355 63.3491 19.2961L63.3016 19.363L63.3504 19.2961C63.8203 19.6574 64.1277 20.1903 64.2052 20.778C64.2826 21.3656 64.1239 21.96 63.7637 22.4307L54.7036 34.2455C54.4937 34.5173 54.2241 34.737 53.9156 34.8878C53.6071 35.0385 53.268 35.1163 52.9247 35.115L52.926 35.121Z"
            fill="white" />
        <path
            d="M499.331 351.892H366.911C366.734 351.892 366.564 351.821 366.438 351.696C366.313 351.57 366.242 351.4 366.242 351.223C366.242 351.045 366.313 350.875 366.438 350.75C366.564 350.624 366.734 350.554 366.911 350.554H499.331C499.509 350.554 499.679 350.624 499.804 350.75C499.93 350.875 500 351.045 500 351.223C500 351.4 499.93 351.57 499.804 351.696C499.679 351.821 499.509 351.892 499.331 351.892Z"
            fill="#CCCCCC" />
        <path
            d="M438.965 124.075C438.965 124.075 436.966 113.023 432.417 114.343C427.869 115.664 416.163 117.015 416.141 111.81C416.119 106.604 427.16 102.004 433.669 102.626C440.178 103.249 451.246 105.154 450.637 114.916C450.149 121.065 448.249 127.017 445.084 132.311L438.965 124.075Z"
            fill="#2F2E41" />
    </g>
    <defs>
        <clipPath id="clip0_1_16017">
            <rect width="500" height="351.783" fill="white" transform="translate(0 0.108521)" />
        </clipPath>
    </defs>
</svg>