<?xml version="1.0" encoding="UTF-8"?>
<!-- Generated by Pixelmator Pro 3.3.5 -->
<svg width="512" height="512" viewBox="0 0 512 512" xmlns="http://www.w3.org/2000/svg">
    <g id="flag">
        <path id="rect551" fill="#ffffff" fill-rule="evenodd" stroke="none" d="M 0 0 L 512 0 L 512 512 L 0 512 Z"/>
        <path id="Rectangle" fill="#f31930" fill-rule="evenodd" stroke="none" d="M 0 72 L 512 72 L 512 53 L 0 53 Z"/>
        <path id="path1" fill="#f31930" fill-rule="evenodd" stroke="none" d="M 0 464 L 512 464 L 512 445 L 0 445 Z"/>
        <g id="g3005">
            <path id="path614" fill="#f31930" fill-rule="evenodd" stroke="none" d="M 348.7724 263.971497 C 348.7724 334.600494 290.525299 391.852844 218.672333 391.852844 C 146.819366 391.852844 88.572273 334.59906 88.572273 263.971497 C 88.572273 193.343872 146.819366 136.090118 218.672333 136.090118 C 290.525299 136.090118 348.7724 193.343872 348.7724 263.971497 Z"/>
            <path id="path615" fill="#ffffff" fill-rule="evenodd" stroke="none" d="M 355.279144 263.965271 C 355.279144 320.465942 308.680908 366.268951 251.199326 366.268951 C 193.717758 366.268951 147.119522 320.465942 147.119522 263.965271 C 147.119522 207.46463 193.717758 161.661621 251.199326 161.661621 C 308.680908 161.661621 355.279144 207.46463 355.279144 263.965271 Z"/>
            <path id="path563" fill="#f30000" fill-rule="evenodd" stroke="none" d="M 374.104004 204.229309 L 373.053894 251.502289 L 328.950897 263.475281 L 372.423889 278.957275 L 371.37381 322.308289 L 399.7258 288.454285 L 442.56781 303.317322 L 417.785797 266.985291 L 448.027802 230.860291 L 401.614807 243.658295 L 374.102814 204.230316 Z"/>
        </g>
    </g>
</svg>
