<?xml version="1.0" encoding="UTF-8"?>
<!-- Generated by Pixelmator Pro 3.3.5 -->
<svg width="121" height="121" viewBox="0 0 121 121" xmlns="http://www.w3.org/2000/svg">
    <path id="Shape" fill="#23e6a8" fill-opacity="0.401708" fill-rule="evenodd" stroke="none" d="M 71.968239 22.793457 L 88.742859 39.461998 L 88.933311 39.570763 L 89.202988 39.754158 L 92.028679 42.495453 L 94.665459 45.308083 L 102.972458 53.779152 L 111.438583 62.091606 L 113.811974 64.339706 L 116.263382 66.830811 L 116.477661 67.177757 L 116.838943 67.655235 L 117.228462 68.402145 L 117.272377 83.477417 L 117.256531 98.23645 L 117.183647 98.306061 L 117.117538 98.292023 L 117.090462 98.192398 L 117.135895 98.04718 L 117.15799 97.8311 L 117.069038 97.622116 L 117.020638 97.298203 L 116.988968 96.961174 L 116.918663 96.70565 L 116.859657 96.312538 L 116.773857 95.840805 L 116.728859 95.45752 L 116.741905 95.195007 L 116.662682 94.988266 L 116.562653 94.818359 L 116.50943 94.582848 L 116.42627 94.268356 L 116.268166 93.737656 L 116.132713 93.187302 L 116.067108 92.813843 L 115.968407 92.577972 L 115.903145 92.460037 L 115.774834 92.225166 L 115.564835 91.833458 L 115.491127 91.508347 L 115.39756 91.267769 L 115.186157 90.943253 L 115.062981 90.612411 L 114.917198 90.374504 L 114.745422 90.069321 L 114.544144 89.625061 L 114.305748 89.351379 L 114.215385 89.200912 L 114.129143 89.072182 L 113.935318 88.882721 L 113.824638 88.603806 L 113.752617 88.446556 L 113.565536 88.330711 L 113.447388 88.13456 L 113.368614 87.998611 L 113.277817 87.894585 L 113.149818 87.767807 L 113.033844 87.606079 L 112.90078 87.467514 L 112.727776 87.359406 L 112.692055 87.166107 L 112.50293 86.871269 L 112.200714 86.62085 L 111.99176 86.486237 L 111.891693 86.317032 L 110.626526 84.987305 L 109.237358 83.732941 L 108.779442 83.397766 L 108.444298 82.924835 L 103.154999 77.508789 L 97.729088 72.230476 L 95.404503 70.047821 L 93.194817 67.694397 L 92.045624 66.390244 L 90.837547 65.279236 L 89.52224 64.089554 L 88.28096 62.74649 L 83.511406 57.86248 L 78.684425 53.109489 L 78.034523 52.543655 L 77.042053 51.570702 L 76.470978 51.077797 L 74.397537 49.083946 L 72.428307 47.079445 L 72.157761 46.77359 L 71.873093 46.406921 L 71.799019 43.300255 L 71.860222 40.262383 L 71.945259 31.483696 L 71.968239 22.793457 Z M 48.896 97.942848 L 14.868082 63.925293 L 3.702154 52.766899 L 3.702154 38.078545 L 3.734463 23.39019 L 3.816369 23.87175 L 3.959782 24.923325 L 4.170691 26.004387 L 4.425458 26.987167 L 4.73974 27.969948 L 5.149615 29.031349 L 5.682592 30.171379 L 6.255675 31.219727 L 6.887531 32.20433 L 7.652794 33.239479 L 8.436783 34.161469 L 19.111834 44.869247 L 39.162754 64.922943 L 48.915821 74.681641 L 48.905914 86.312241 L 48.896 97.942848 Z"/>
    <path id="path1" fill="#23e6a8" fill-rule="evenodd" stroke="none" d="M 99.387077 117.23896 C 99.062157 117.247643 98.495018 117.241112 98.12677 117.224434 C 97.758522 117.207756 97.155945 117.155655 96.787689 117.10865 C 96.419441 117.061638 95.859634 116.973236 95.543663 116.912201 C 95.227692 116.851166 94.722588 116.736504 94.421204 116.657394 C 94.11982 116.578293 93.632645 116.435112 93.338608 116.339226 C 93.044556 116.24334 92.557175 116.066956 92.255531 115.947266 C 91.953873 115.827583 91.370338 115.563202 90.958771 115.359756 C 90.547203 115.156311 90.015511 114.872742 89.777229 114.729607 C 89.538956 114.586472 89.122459 114.320892 88.851692 114.139427 C 88.580925 113.957962 88.167633 113.660263 87.933258 113.477875 C 87.698891 113.295486 87.326714 112.991554 87.106186 112.802467 C 86.885666 112.61338 80.444252 106.19912 72.791954 98.548553 C 65.139648 90.89798 53.235619 78.993553 46.338554 72.094269 C 39.44149 65.194992 28.102812 53.850937 21.141497 46.885277 C 14.180181 39.919617 8.312824 34.019615 8.102926 33.774185 C 7.893028 33.528732 7.572709 33.130707 7.391106 32.889679 C 7.209502 32.648636 6.9184 32.238472 6.744212 31.978195 C 6.570024 31.717911 6.300086 31.284508 6.144351 31.015076 C 5.988614 30.745636 5.731018 30.259827 5.571914 29.935509 C 5.412809 29.611191 5.183337 29.101982 5.061975 28.803917 C 4.940612 28.505867 4.746464 27.975166 4.630534 27.62458 C 4.514603 27.27401 4.346013 26.689644 4.255888 26.326019 C 4.165762 25.962379 4.040964 25.360924 3.978557 24.989433 C 3.916151 24.617943 3.833222 24.022118 3.794272 23.665367 C 3.745687 23.220367 3.723202 22.708191 3.72265 22.033951 C 3.722208 21.493423 3.74434 20.784828 3.771832 20.459297 C 3.799324 20.133766 3.857806 19.62075 3.901792 19.319267 C 3.945778 19.017784 4.025549 18.558838 4.079062 18.299385 C 4.132575 18.039925 4.245717 17.562294 4.330488 17.237976 C 4.415259 16.913658 4.584034 16.360115 4.705543 16.007881 C 4.827051 15.655647 5.029161 15.124939 5.154675 14.828545 C 5.280189 14.532143 5.517752 14.024284 5.682592 13.699966 C 5.847433 13.375648 6.105319 12.903893 6.255675 12.651619 C 6.406029 12.399338 6.689848 11.957085 6.886382 11.668839 C 7.082916 11.380585 7.397891 10.95015 7.586327 10.712311 C 7.774763 10.47448 8.102065 10.085304 8.313665 9.847466 C 8.525265 9.609634 8.899039 9.217499 9.144274 8.976051 C 9.389508 8.734612 9.760135 8.389648 9.967889 8.209488 C 10.175643 8.029312 10.530105 7.738037 10.755581 7.56221 C 10.981058 7.386375 11.413661 7.074936 11.716923 6.870132 C 12.020185 6.665306 12.480985 6.372749 12.740923 6.219994 C 13.000862 6.067245 13.518166 5.792755 13.890488 5.610046 C 14.262809 5.42733 14.776779 5.193703 15.032641 5.090874 C 15.288504 4.988045 15.75483 4.817032 16.068924 4.710823 C 16.383015 4.60463 16.870399 4.456314 17.152 4.381256 C 17.433599 4.30619 17.912123 4.193001 18.215385 4.129715 C 18.518646 4.066429 19.014893 3.979294 19.318153 3.936066 C 19.621416 3.892838 20.117661 3.839043 20.420923 3.816528 C 20.724186 3.794014 21.176123 3.767975 21.42523 3.758659 C 21.674339 3.749352 22.241476 3.757324 22.685539 3.776382 C 23.129601 3.795456 23.776493 3.847153 24.123077 3.891289 C 24.469662 3.935417 24.992493 4.016327 25.284924 4.071091 C 25.577353 4.12587 26.08873 4.240845 26.421312 4.326607 C 26.753897 4.412376 27.269188 4.561882 27.566404 4.658836 C 27.863621 4.755783 28.353598 4.933044 28.655245 5.052734 C 28.95689 5.172424 29.54043 5.436806 29.952 5.640251 C 30.363569 5.843689 30.895262 6.127258 31.133539 6.270393 C 31.371815 6.413528 31.788307 6.679108 32.059078 6.86058 C 32.329845 7.042038 32.743141 7.339745 32.977505 7.522125 C 33.211872 7.704514 33.584057 8.008659 33.804581 8.197998 C 34.025108 8.387337 40.643398 14.978851 48.51189 22.845802 C 56.380386 30.712753 70.591583 44.922356 80.092346 54.422699 C 89.593109 63.92305 100.754509 75.089851 104.895462 79.237816 C 109.036423 83.385773 112.596603 86.980377 112.806984 87.225822 C 113.017357 87.47126 113.338058 87.869293 113.519661 88.110321 C 113.701271 88.351364 113.992363 88.761528 114.166557 89.021805 C 114.340744 89.282082 114.61068 89.715485 114.766426 89.984924 C 114.922157 90.254372 115.179749 90.740173 115.33886 91.064491 C 115.497963 91.388809 115.727432 91.898018 115.848801 92.196075 C 115.970154 92.494125 116.164307 93.024834 116.280243 93.375412 C 116.396164 93.725998 116.564758 94.310349 116.654884 94.673981 C 116.74501 95.037613 116.869743 95.639076 116.932068 96.010567 C 116.994392 96.38205 117.077682 96.986725 117.117157 97.354286 C 117.16642 97.813026 117.188927 98.324585 117.188927 98.985703 C 117.188927 99.515427 117.166435 100.215172 117.138931 100.540703 C 117.111443 100.866234 117.052963 101.37925 117.00898 101.680733 C 116.964989 101.982216 116.885223 102.441162 116.831711 102.700615 C 116.778191 102.960068 116.665047 103.437698 116.580276 103.762024 C 116.495506 104.086334 116.326729 104.639885 116.205231 104.992119 C 116.083717 105.34436 115.881607 105.875061 115.756096 106.171455 C 115.630577 106.467857 115.393021 106.975716 115.228172 107.300034 C 115.063339 107.624352 114.80545 108.096107 114.655098 108.348381 C 114.504738 108.600662 114.220924 109.042908 114.024384 109.331161 C 113.827858 109.619415 113.512878 110.04985 113.32444 110.287689 C 113.136009 110.52552 112.808701 110.914703 112.597107 111.152534 C 112.385498 111.390366 112.011734 111.782501 111.766502 112.023949 C 111.521263 112.265396 111.150635 112.610352 110.942886 112.79052 C 110.735123 112.970688 110.380661 113.261955 110.15519 113.43779 C 109.92971 113.613625 109.497108 113.925064 109.193848 114.129875 C 108.890587 114.334686 108.429787 114.627243 108.169846 114.780006 C 107.909904 114.932762 107.392609 115.207237 107.020279 115.389954 C 106.647964 115.57267 106.133987 115.806297 105.878128 115.909126 C 105.622269 116.011955 105.155945 116.182739 104.841843 116.288651 C 104.527748 116.394554 104.049232 116.541328 103.778465 116.614815 C 103.50769 116.688293 103.029175 116.801727 102.71508 116.866882 C 102.400978 116.932037 101.895874 117.020622 101.592613 117.063744 C 101.289352 117.106865 100.801971 117.160378 100.509537 117.182655 C 100.217102 117.204933 99.711998 117.23027 99.387077 117.23896 Z M 3.702195 52.775345 C 20.70352 69.760254 30.851042 79.900009 37.22084 86.266144 C 43.590633 92.632278 52.209278 101.251762 56.373375 105.420547 C 63.403336 112.458427 63.954597 113.019829 64.086235 113.275345 C 64.164215 113.426689 64.260895 113.656021 64.301079 113.784966 C 64.355194 113.958588 64.374153 114.142151 64.374153 114.492561 C 64.374153 114.885437 64.358162 115.014458 64.279892 115.252922 C 64.22805 115.410881 64.121712 115.645432 64.043587 115.774147 C 63.965462 115.902863 63.8265 116.095001 63.734787 116.201111 C 63.643078 116.307228 63.436172 116.482079 63.275009 116.589676 C 63.113842 116.697273 62.869862 116.822517 62.732838 116.868011 C 62.595806 116.913498 62.350769 116.967911 62.188309 116.98893 C 62.000023 117.013283 54.702942 117.025352 42.062771 117.022217 C 31.156185 117.019516 21.949045 117.004204 21.602461 116.988205 C 21.255877 116.972198 20.715322 116.929245 20.40123 116.892754 C 20.087139 116.856262 19.582031 116.78299 19.278769 116.729927 C 18.975508 116.676865 18.4704 116.571747 18.156307 116.496338 C 17.842215 116.420929 17.346338 116.287346 17.054361 116.199486 C 16.762381 116.111626 16.274996 115.946396 15.971284 115.832306 C 15.66757 115.718216 15.170955 115.515182 14.867692 115.381111 C 14.56443 115.247047 14.112493 115.02948 13.863384 114.897636 C 13.614277 114.765793 13.215508 114.542915 12.977231 114.402351 C 12.738955 114.261795 12.357907 114.022873 12.130462 113.871422 C 11.903016 113.719971 11.521969 113.4505 11.283692 113.272614 C 11.045416 113.094719 10.673231 112.801781 10.456615 112.621635 C 10.24 112.441498 9.781022 112.019562 9.436664 111.684006 C 9.092305 111.348457 8.615894 110.852783 8.377972 110.58252 C 8.140049 110.312256 7.758353 109.843468 7.529758 109.540771 C 7.301164 109.238075 6.96939 108.769287 6.792484 108.499023 C 6.615579 108.22876 6.364032 107.821892 6.233492 107.594864 C 6.102952 107.367844 5.862221 106.914886 5.698533 106.588303 C 5.534844 106.261711 5.302523 105.76123 5.182261 105.47612 C 5.062 105.19101 4.865493 104.672668 4.745578 104.324265 C 4.625663 103.975861 4.457336 103.435196 4.37152 103.122795 C 4.285702 102.810394 4.154234 102.242645 4.079368 101.861137 C 4.004501 101.479622 3.90702 100.875595 3.862742 100.518845 C 3.818465 100.162094 3.764301 99.578323 3.742379 99.221573 C 3.716282 98.796906 3.702464 90.666336 3.702357 75.674141 L 3.702195 52.775345 Z M 117.188927 67.998215 C 97.305016 48.109825 87.020103 37.826454 81.505241 32.315056 C 75.990372 26.803658 68.222694 19.033836 64.243721 15.048805 C 58.261787 9.057747 56.983482 7.759033 56.860497 7.54776 C 56.778694 7.407219 56.675655 7.177246 56.631523 7.036713 C 56.587395 6.896179 56.541164 6.629959 56.52879 6.445122 C 56.51326 6.213142 56.525581 6.014648 56.568581 5.804176 C 56.60284 5.63649 56.689026 5.373367 56.760101 5.219452 C 56.831177 5.065536 56.965538 4.840958 57.058689 4.720375 C 57.151836 4.599792 57.319958 4.424271 57.432285 4.33033 C 57.544617 4.236382 57.756737 4.099098 57.90366 4.025246 C 58.050587 3.951393 58.281631 3.864883 58.417091 3.833 C 58.632442 3.782326 61.224316 3.774963 79.047386 3.774467 C 97.129539 3.773949 99.504501 3.780739 100.078766 3.834633 C 100.434837 3.868042 100.947693 3.929031 101.21846 3.970177 C 101.489227 4.011322 101.968727 4.098686 102.284019 4.164322 C 102.599304 4.229958 103.107384 4.354218 103.413071 4.440453 C 103.718758 4.526672 104.196297 4.674805 104.474281 4.7696 C 104.752258 4.864403 105.2258 5.042236 105.526588 5.16478 C 105.827377 5.287323 106.323624 5.509895 106.629356 5.659386 C 106.935089 5.808876 107.40654 6.058113 107.67704 6.213242 C 107.947533 6.36837 108.395615 6.643425 108.672775 6.824486 C 108.949944 7.005539 109.375526 7.302849 109.618507 7.485184 C 109.861504 7.667503 110.237541 7.962852 110.454155 8.141487 C 110.670769 8.320122 111.212517 8.830116 111.658035 9.274803 C 112.103561 9.71949 112.614502 10.260231 112.793472 10.476448 C 112.972443 10.692657 113.265076 11.064148 113.443771 11.301979 C 113.622459 11.539818 113.892815 11.920158 114.044556 12.147171 C 114.196304 12.374191 114.435333 12.754532 114.575729 12.992363 C 114.716133 13.230202 114.929886 13.610535 115.050728 13.837555 C 115.171577 14.064575 115.368065 14.464203 115.487373 14.725624 C 115.606682 14.98703 115.788109 15.411591 115.890541 15.66909 C 115.992958 15.926582 116.160904 16.393768 116.263733 16.707275 C 116.366554 17.02079 116.522766 17.560333 116.610855 17.906273 C 116.698952 18.252213 116.816391 18.774063 116.871849 19.065948 C 116.927292 19.357841 117.007713 19.87085 117.05056 20.205978 C 117.093407 20.5411 117.148148 21.177956 117.172211 21.621185 C 117.203629 22.199783 117.212151 28.85321 117.202446 45.212631 L 117.188927 67.998215 Z"/>
</svg>
